<?xml version="1.0" encoding="UTF-8" standalone="no"?>
<!-- Created with Inkscape (http://www.inkscape.org/) -->

<svg
   width="75.031059mm"
   height="75.031059mm"
   viewBox="0 0 75.031059 75.031059"
   version="1.1"
   id="svg1"
   xml:space="preserve"
   xmlns="http://www.w3.org/2000/svg"
   xmlns:svg="http://www.w3.org/2000/svg"><defs
     id="defs1" /><g
     id="layer1"
     transform="translate(1638.7876,-1643.1731)"><g
       id="g48"><rect
         style="opacity:0.01;fill:#2d2d2d;fill-opacity:0.01;stroke:none;stroke-width:2;stroke-linecap:butt;stroke-linejoin:round;stroke-dasharray:none;stroke-opacity:0.972549"
         id="rect16-3-3-7-2-4-4-1-0-6"
         width="75.031059"
         height="75.031059"
         x="-1563.7566"
         y="1643.1731"
         ry="0"
         rx="0" /><path
         style="-inkscape-font-specification:Arial;fill:#acacac;stroke-width:34.9106;stroke-linejoin:bevel;stroke-opacity:0.972549"
         d="m -1526.2411,1660.3296 q 2.813,0 5.4034,0.7286 2.6107,0.7285 4.8571,2.0642 2.2666,1.3154 4.1284,3.1773 1.8619,1.8618 3.1773,4.1284 1.3357,2.2464 2.0642,4.8571 0.7286,2.5904 0.7286,5.4034 0,2.813 -0.7286,5.4236 -0.7285,2.5905 -2.0642,4.8571 -1.3154,2.2463 -3.1773,4.1082 -1.8618,1.8618 -4.1284,3.1773 -2.2464,1.3357 -4.8571,2.0642 -2.5904,0.7286 -5.4034,0.7286 -2.813,0 -5.4236,-0.7286 -2.5904,-0.7285 -4.8571,-2.0642 -2.2463,-1.3155 -4.1082,-3.1773 -1.8618,-1.8619 -3.1975,-4.1082 -1.3154,-2.2666 -2.044,-4.8571 -0.7285,-2.6106 -0.7285,-5.4236 0,-2.813 0.7285,-5.4034 0.7286,-2.6107 2.044,-4.8571 1.3357,-2.2666 3.1975,-4.1284 1.8619,-1.8619 4.1082,-3.1773 2.2667,-1.3357 4.8571,-2.0642 2.6106,-0.7286 5.4236,-0.7286 z m -17.465,20.359 q 0,2.4083 0.6274,4.6344 0.6273,2.2261 1.7607,4.1689 1.1333,1.9428 2.732,3.5416 1.5988,1.5988 3.5416,2.7321 1.9428,1.1333 4.1689,1.7606 2.2262,0.6274 4.6344,0.6274 3.1166,0 5.9903,-1.0726 2.894,-1.0524 5.2618,-3.0761 l -24.5684,-24.5684 q -2.0237,2.3678 -3.0963,5.2618 -1.0524,2.8737 -1.0524,5.9903 z m 30.7813,11.2521 q 2.0238,-2.3881 3.0761,-5.2416 1.0524,-2.8737 1.0524,-6.0105 0,-2.4083 -0.6274,-4.6344 -0.6273,-2.2261 -1.7606,-4.169 -1.1333,-1.9428 -2.7321,-3.5213 -1.5785,-1.5988 -3.5213,-2.7321 -1.9428,-1.1333 -4.169,-1.7606 -2.2261,-0.6274 -4.6344,-0.6274 -3.1368,0 -6.0105,1.0524 -2.8535,1.0523 -5.2416,3.0761 z"
         id="text28-40-4-3-7"
         aria-label="ðŸš«" /></g><g
       id="g70"><rect
         style="opacity:0.01;fill:#2d2d2d;fill-opacity:0.01;stroke:none;stroke-width:2;stroke-linecap:butt;stroke-linejoin:round;stroke-dasharray:none;stroke-opacity:0.972549"
         id="rect16-3-3-7-2-4-4-1-0-6-8"
         width="75.031059"
         height="75.031059"
         x="-1638.7876"
         y="1643.1731"
         ry="0"
         rx="0" /><path
         style="font-size:41.4465px;line-height:0;font-family:Arial;-inkscape-font-specification:Arial;fill:#ffffff;fill-opacity:1;stroke-width:34.9106;stroke-linejoin:bevel;stroke-opacity:0.972549"
         d="m -1582.3503,1672.5735 c 0.6611,0.2833 1.2615,0.6543 1.8012,1.113 0.5397,0.4587 0.9984,0.9782 1.3761,1.5583 0.3778,0.5801 0.6679,1.2143 0.8702,1.9024 0.2159,0.6745 0.3238,1.3693 0.3238,2.0844 0,0.7286 -0.1079,1.4302 -0.3238,2.1047 -0.2023,0.6746 -0.4991,1.302 -0.8904,1.8821 -0.3778,0.5801 -0.8365,1.0996 -1.3762,1.5583 -0.5261,0.4587 -1.1198,0.8365 -1.7809,1.1333 v 6.4153 c 0,1.2143 -0.1484,2.3611 -0.4452,3.4404 -0.2968,1.0928 -0.7353,2.0912 -1.3154,2.9952 -0.5667,0.9174 -1.2817,1.7336 -2.1452,2.4487 -0.8635,0.7151 -1.8619,1.3087 -2.9952,1.7809 -0.7555,0.3103 -1.5313,0.5464 -2.3273,0.7083 -0.796,0.1754 -1.5988,0.2631 -2.4083,0.2631 h -30.5384 c 0,-0.4183 -0.01,-0.8365 -0.02,-1.2547 -0.013,-0.4047 -0.02,-0.823 -0.02,-1.2547 0,-0.3913 0.1012,-0.8702 0.3036,-1.4369 0.2159,-0.5532 0.4789,-1.1131 0.7892,-1.6797 0.3103,-0.5667 0.6409,-1.0996 0.9917,-1.5988 0.3507,-0.4857 0.6678,-0.8702 0.9511,-1.1535 -0.9714,-1.3087 -1.7134,-2.7389 -2.2261,-4.2904 -0.5127,-1.5515 -0.769,-3.1436 -0.769,-4.7761 0,-1.592 0.2159,-3.0896 0.6476,-4.4927 0.4452,-1.4166 1.0591,-2.7185 1.8416,-3.9058 0.796,-1.1873 1.7337,-2.2531 2.813,-3.1976 1.0929,-0.9444 2.2869,-1.7404 3.5821,-2.388 1.2952,-0.6611 2.6646,-1.1603 4.1082,-1.4976 1.4571,-0.3508 2.9479,-0.5262 4.4725,-0.5262 1.0793,0 2.1182,0.088 3.1166,0.2631 -0.3913,-0.5261 -0.7016,-1.0186 -0.931,-1.4773 -0.2159,-0.4587 -0.3778,-0.9242 -0.4857,-1.3964 -0.1079,-0.4857 -0.1821,-0.9849 -0.2226,-1.4976 -0.027,-0.5127 -0.04,-1.0861 -0.04,-1.7202 0,-0.9984 0.1889,-1.9361 0.5666,-2.813 0.3913,-0.8905 0.9174,-1.6595 1.5785,-2.3071 0.6611,-0.6611 1.4302,-1.1805 2.3071,-1.5583 0.8905,-0.3913 1.8349,-0.5869 2.8333,-0.5869 1.1468,0 2.2261,0.2564 3.238,0.7691 1.0253,0.5127 1.882,1.2277 2.5701,2.1452 0.6881,-0.9175 1.5449,-1.6325 2.5702,-2.1452 1.0254,-0.5127 2.1115,-0.7691 3.2583,-0.7691 0.9983,0 1.936,0.1956 2.813,0.5869 0.8905,0.3778 1.6595,0.8972 2.3071,1.5583 0.6611,0.6476 1.1805,1.4166 1.5582,2.3071 0.3913,0.8769 0.5869,1.8146 0.5869,2.813 v 1.4571 c 0,0.5667 -0.074,1.1266 -0.2226,1.6797 -0.1484,0.5532 -0.3508,1.0861 -0.6071,1.5988 -0.2563,0.4992 -0.5666,0.9782 -0.9309,1.4369 -0.3508,0.4452 -0.7353,0.8499 -1.1536,1.2142 z"
         id="path42-8"
         aria-label="ðŸŒ" /><path
         style="-inkscape-font-specification:Arial;fill:#616161;stroke-width:0.1;stroke-linejoin:bevel"
         d="m -1582.3499,1672.5734 q 0.9916,0.425 1.8011,1.1131 0.8095,0.6881 1.3761,1.5583 0.5667,0.8702 0.8703,1.9023 0.3238,1.0119 0.3238,2.0845 0,1.0928 -0.3238,2.1047 -0.3036,1.0119 -0.8905,1.8821 -0.5666,0.8702 -1.3761,1.5583 -0.7893,0.6881 -1.7809,1.1333 v 6.4153 q 0,1.8214 -0.4453,3.4404 -0.4452,1.6392 -1.3154,2.9951 -0.85,1.3762 -2.1452,2.4488 -1.2952,1.0726 -2.9952,1.7809 -1.1333,0.4654 -2.3273,0.7083 -1.194,0.2631 -2.4082,0.2631 h -30.5385 q 0,-0.6274 -0.02,-1.2547 -0.02,-0.6072 -0.02,-1.2548 0,-0.5869 0.3036,-1.4368 0.3238,-0.8298 0.7893,-1.6798 0.4654,-0.8499 0.9916,-1.5987 0.5262,-0.7286 0.9512,-1.1536 -1.4571,-1.963 -2.2262,-4.2903 -0.769,-2.3273 -0.769,-4.7761 0,-2.388 0.6476,-4.4927 0.6678,-2.125 1.8416,-3.9059 1.194,-1.7809 2.813,-3.1975 1.6393,-1.4166 3.5821,-2.388 1.9428,-0.9917 4.1082,-1.4976 2.1857,-0.5262 4.4725,-0.5262 1.619,0 3.1166,0.2631 -0.5869,-0.7893 -0.9309,-1.4773 -0.3238,-0.6881 -0.4857,-1.3964 -0.1619,-0.7286 -0.2227,-1.4976 -0.04,-0.769 -0.04,-1.7202 0,-1.4976 0.5666,-2.813 0.5869,-1.3357 1.5786,-2.3071 0.9916,-0.9916 2.307,-1.5583 1.3357,-0.5869 2.8333,-0.5869 1.7202,0 3.238,0.7691 1.5381,0.769 2.5702,2.1451 1.0321,-1.3761 2.5701,-2.1451 1.5381,-0.7691 3.2583,-0.7691 1.4976,0 2.813,0.5869 1.3357,0.5667 2.3071,1.5583 0.9916,0.9714 1.5583,2.3071 0.5869,1.3154 0.5869,2.813 v 1.4571 q 0,0.85 -0.2227,1.6797 -0.2226,0.8298 -0.6071,1.5988 -0.3845,0.7488 -0.9309,1.4369 -0.5262,0.6678 -1.1535,1.2142 z m -2.894,11.0295 q 0.9107,0 1.6999,-0.344 0.7893,-0.3441 1.3762,-0.931 0.5869,-0.6071 0.9309,-1.3963 0.3441,-0.7893 0.3441,-1.7 0,-0.9107 -0.3441,-1.7 -0.344,-0.7892 -0.9309,-1.3761 -0.5869,-0.5869 -1.3762,-0.9309 -0.7892,-0.3441 -1.6999,-0.3441 v -4.3713 q 0.5869,-0.3035 1.113,-0.769 0.5262,-0.4655 0.9107,-1.0321 0.4048,-0.5667 0.6274,-1.2143 0.2429,-0.6678 0.2429,-1.3559 v -1.4571 q 0,-0.9107 -0.3441,-1.7 -0.344,-0.7892 -0.9309,-1.3761 -0.5869,-0.5869 -1.3762,-0.9309 -0.7892,-0.3441 -1.6999,-0.3441 -0.9107,0 -1.7,0.3441 -0.7892,0.344 -1.3964,0.9309 -0.5869,0.5869 -0.9309,1.3761 -0.344,0.7893 -0.344,1.7 v 1.4571 q 0,0.7083 0.2226,1.3559 0.2226,0.6476 0.6071,1.2345 0.4048,0.5667 0.9309,1.0321 0.5464,0.4453 1.1536,0.7488 0,0.9512 -0.3238,1.7607 -0.3238,0.8095 -0.9107,1.3964 -0.5667,0.5666 -1.3762,0.8904 -0.8095,0.3238 -1.7606,0.3238 -0.9512,0 -1.7607,-0.3238 -0.7893,-0.3238 -1.3762,-0.9107 -0.5666,-0.5869 -0.8904,-1.3761 -0.3238,-0.8095 -0.3238,-1.7607 0.5869,-0.3035 1.1131,-0.769 0.5261,-0.4655 0.9106,-1.0321 0.4048,-0.5667 0.6274,-1.2143 0.2429,-0.6678 0.2429,-1.3559 v -1.4571 q 0,-0.9107 -0.3441,-1.7 -0.344,-0.7892 -0.9309,-1.3761 -0.5869,-0.5869 -1.3762,-0.9309 -0.7892,-0.3441 -1.6999,-0.3441 -0.9107,0 -1.7,0.3441 -0.7892,0.344 -1.3964,0.9309 -0.5868,0.5869 -0.9309,1.3761 -0.344,0.7893 -0.344,1.7 v 1.4571 q 0,0.7083 0.2226,1.3559 0.2226,0.6476 0.6071,1.2345 0.4048,0.5667 0.9309,1.0321 0.5465,0.4453 1.1536,0.7488 v 4.7154 q 1.538,0.8297 2.8737,2.0237 1.3357,1.194 2.3071,2.6511 0.9916,1.4571 1.5381,3.1369 0.5666,1.6797 0.5666,3.4808 h -5.8284 q 0,2.5297 -0.8702,4.6547 -0.8702,2.1249 -2.4285,3.6832 -1.5583,1.5583 -3.7035,2.4285 -2.1249,0.8702 -4.6344,0.8702 -1.9023,0 -3.7035,-0.5059 -1.8011,-0.506 -3.3189,-1.6595 -0.7691,0.3238 -1.5178,0.85 -0.7286,0.5261 -1.356,1.1737 -0.6273,0.6679 -1.0928,1.4369 -0.4452,0.769 -0.6476,1.5988 h 27.6243 q 0.8095,0 1.5987,-0.1619 0.8095,-0.1619 1.5786,-0.425 2.813,-0.9714 4.1891,-3.0964 1.3762,-2.1047 1.3762,-5.0391 z m -32.0158,2.1857 q 0,1.2142 0.344,2.3475 0.3441,1.1131 0.9714,2.0845 0.6476,0.9512 1.5583,1.6999 0.9107,0.7488 2.0238,1.2345 0.6476,0.2834 1.3356,0.4655 0.6881,0.1619 1.4167,0.1619 0.9107,0 1.7606,-0.1417 0.8703,-0.1416 1.7202,-0.4857 1.0929,-0.4452 1.9833,-1.2142 0.9107,-0.769 1.5381,-1.7404 0.6476,-0.9714 0.9916,-2.1048 0.3643,-1.1333 0.3643,-2.307 0,-1.6595 -0.6274,-3.1166 -0.6273,-1.4571 -1.7202,-2.5499 -1.0726,-1.0929 -2.5297,-1.7202 -1.4571,-0.6274 -3.1165,-0.6274 -1.6595,0 -3.1166,0.6274 -1.4571,0.6273 -2.55,1.7202 -1.0928,1.0928 -1.7202,2.5499 -0.6273,1.4571 -0.6273,3.1166 z m 8.0141,6.5367 q -1.356,0 -2.55,-0.5059 -1.194,-0.5262 -2.0844,-1.3964 -0.8905,-0.8905 -1.4167,-2.0845 -0.5059,-1.194 -0.5059,-2.5499 0,-1.3559 0.5059,-2.55 0.5262,-1.194 1.4167,-2.0844 0.8904,-0.8905 2.0844,-1.3964 1.194,-0.5262 2.55,-0.5262 1.3559,0 2.5499,0.5262 1.194,0.5059 2.0642,1.3964 0.8905,0.8904 1.3964,2.0844 0.5262,1.1941 0.5262,2.55 0,1.3356 -0.5262,2.5297 -0.5262,1.1737 -1.4166,2.0642 -0.8905,0.8904 -2.0845,1.4166 -1.1738,0.5262 -2.5094,0.5262 z m 17.4447,0 q 0.4452,0 0.85,0.1821 0.4047,0.1619 0.6881,0.4655 0.3035,0.2833 0.4654,0.6881 0.1822,0.4047 0.1822,0.85 0,0.4452 -0.1822,0.8297 -0.1619,0.4047 -0.4654,0.7083 -0.3036,0.3036 -0.7083,0.4655 -0.3846,0.1821 -0.8298,0.1821 -0.4452,0 -0.85,-0.1821 -0.3845,-0.1619 -0.688,-0.4655 -0.3036,-0.3036 -0.4857,-0.7083 -0.1619,-0.3845 -0.1619,-0.8297 0,-0.4453 0.1619,-0.8298 0.1821,-0.4047 0.4857,-0.7083 0.3035,-0.3036 0.688,-0.4655 0.4048,-0.1821 0.85,-0.1821 z m -19.6304,-6.5367 q 0,0.4654 0.1619,0.8702 0.1821,0.3845 0.4857,0.6678 0.3036,0.2833 0.6881,0.4655 0.4047,0.1619 0.85,0.1619 0.4452,0 0.8297,-0.1619 0.4047,-0.1822 0.6881,-0.4655 0.3035,-0.3035 0.4654,-0.6881 0.1822,-0.4047 0.1822,-0.8499 0,-0.4453 -0.1822,-0.8298 -0.1619,-0.4047 -0.4452,-0.7083 -0.2833,-0.3035 -0.6881,-0.4655 -0.4047,-0.1821 -0.8499,-0.1821 -0.4655,0 -0.8703,0.1821 -0.3845,0.162 -0.688,0.4655 -0.2834,0.2833 -0.4655,0.6881 -0.1619,0.4047 -0.1619,0.85 z m 26.1874,-21.1078 v 1.4571 q 0,0.5869 -0.4452,1.0321 -0.425,0.425 -1.0119,0.425 -0.6071,0 -1.0321,-0.425 -0.425,-0.425 -0.425,-1.0321 v -1.4571 q 0,-0.5869 0.425,-1.0119 0.4452,-0.425 1.0321,-0.425 0.5869,0 1.0119,0.425 0.4452,0.425 0.4452,1.0119 z m -11.6366,0 v 1.4571 q 0,0.5869 -0.4452,1.0321 -0.425,0.425 -1.0119,0.425 -0.6071,0 -1.0321,-0.425 -0.425,-0.425 -0.425,-1.0321 v -1.4571 q 0,-0.5869 0.425,-1.0119 0.4452,-0.425 1.0321,-0.425 0.5869,0 1.0119,0.425 0.4452,0.425 0.4452,1.0119 z m 5.8082,23.2732 q 0.5869,0 1.0118,0.4452 0.4453,0.425 0.4453,1.0119 0,0.6071 -0.425,1.0321 -0.425,0.425 -1.0321,0.425 -0.6072,0 -1.0321,-0.425 -0.425,-0.425 -0.425,-1.0321 0,-0.5869 0.425,-1.0119 0.4452,-0.4452 1.0321,-0.4452 z m -5.8082,5.8284 q 0.5869,0 1.0119,0.4452 0.425,0.425 0.425,1.0119 0,0.5869 -0.425,1.0119 -0.425,0.4452 -1.0119,0.4452 -0.6071,0 -1.0321,-0.425 -0.425,-0.425 -0.425,-1.0321 0,-0.6071 0.425,-1.0321 0.425,-0.425 1.0321,-0.425 z"
         id="text28-40-5-7"
         aria-label="ðŸŒ" /></g><g
       id="g65"><path
         style="-inkscape-font-specification:Arial;stroke-width:34.9106;stroke-linejoin:bevel;stroke-opacity:0.972549"
         d="m -1582.3499,1747.6043 q 0.9916,0.425 1.8011,1.1131 0.8095,0.6881 1.3761,1.5583 0.5667,0.8702 0.8703,1.9023 0.3238,1.0119 0.3238,2.0845 0,1.0928 -0.3238,2.1047 -0.3036,1.0119 -0.8905,1.8821 -0.5666,0.8702 -1.3761,1.5583 -0.7893,0.688 -1.7809,1.1333 v 6.4153 q 0,1.8214 -0.4453,3.4404 -0.4452,1.6392 -1.3154,2.9951 -0.85,1.3762 -2.1452,2.4488 -1.2952,1.0726 -2.9952,1.7809 -1.1333,0.4654 -2.3273,0.7083 -1.194,0.2631 -2.4082,0.2631 h -30.5385 q 0,-0.6274 -0.02,-1.2548 -0.02,-0.6071 -0.02,-1.2547 0,-0.5869 0.3036,-1.4369 0.3238,-0.8297 0.7893,-1.6797 0.4654,-0.8499 0.9916,-1.5987 0.5262,-0.7286 0.9512,-1.1536 -1.4571,-1.963 -2.2262,-4.2903 -0.769,-2.3274 -0.769,-4.7761 0,-2.388 0.6476,-4.4927 0.6678,-2.125 1.8416,-3.9059 1.194,-1.7809 2.813,-3.1975 1.6393,-1.4166 3.5821,-2.388 1.9428,-0.9917 4.1082,-1.4976 2.1857,-0.5262 4.4725,-0.5262 1.619,0 3.1166,0.2631 -0.5869,-0.7893 -0.9309,-1.4774 -0.3238,-0.688 -0.4857,-1.3963 -0.1619,-0.7286 -0.2227,-1.4976 -0.04,-0.769 -0.04,-1.7202 0,-1.4976 0.5666,-2.813 0.5869,-1.3357 1.5786,-2.3071 0.9916,-0.9917 2.307,-1.5583 1.3357,-0.5869 2.8333,-0.5869 1.7202,0 3.238,0.769 1.5381,0.7691 2.5702,2.1452 1.0321,-1.3761 2.5701,-2.1452 1.5381,-0.769 3.2583,-0.769 1.4976,0 2.813,0.5869 1.3357,0.5666 2.3071,1.5583 0.9916,0.9714 1.5583,2.3071 0.5869,1.3154 0.5869,2.813 v 1.4571 q 0,0.85 -0.2227,1.6797 -0.2226,0.8297 -0.6071,1.5988 -0.3845,0.7488 -0.9309,1.4368 -0.5262,0.6679 -1.1535,1.2143 z m -2.894,11.0295 q 0.9107,0 1.6999,-0.344 0.7893,-0.3441 1.3762,-0.931 0.5869,-0.6071 0.9309,-1.3964 0.3441,-0.7892 0.3441,-1.6999 0,-0.9107 -0.3441,-1.7 -0.344,-0.7892 -0.9309,-1.3761 -0.5869,-0.5869 -1.3762,-0.9309 -0.7892,-0.3441 -1.6999,-0.3441 v -4.3713 q 0.5869,-0.3036 1.113,-0.769 0.5262,-0.4655 0.9107,-1.0321 0.4048,-0.5667 0.6274,-1.2143 0.2429,-0.6678 0.2429,-1.3559 v -1.4571 q 0,-0.9107 -0.3441,-1.7 -0.344,-0.7892 -0.9309,-1.3761 -0.5869,-0.5869 -1.3762,-0.9309 -0.7892,-0.3441 -1.6999,-0.3441 -0.9107,0 -1.7,0.3441 -0.7892,0.344 -1.3964,0.9309 -0.5869,0.5869 -0.9309,1.3761 -0.344,0.7893 -0.344,1.7 v 1.4571 q 0,0.7083 0.2226,1.3559 0.2226,0.6476 0.6071,1.2345 0.4048,0.5666 0.9309,1.0321 0.5464,0.4452 1.1536,0.7488 0,0.9512 -0.3238,1.7607 -0.3238,0.8095 -0.9107,1.3964 -0.5667,0.5666 -1.3762,0.8904 -0.8095,0.3238 -1.7606,0.3238 -0.9512,0 -1.7607,-0.3238 -0.7893,-0.3238 -1.3762,-0.9107 -0.5666,-0.5869 -0.8904,-1.3761 -0.3238,-0.8095 -0.3238,-1.7607 0.5869,-0.3036 1.1131,-0.769 0.5261,-0.4655 0.9106,-1.0321 0.4048,-0.5667 0.6274,-1.2143 0.2429,-0.6678 0.2429,-1.3559 v -1.4571 q 0,-0.9107 -0.3441,-1.7 -0.344,-0.7892 -0.9309,-1.3761 -0.5869,-0.5869 -1.3762,-0.9309 -0.7892,-0.3441 -1.6999,-0.3441 -0.9107,0 -1.7,0.3441 -0.7892,0.344 -1.3964,0.9309 -0.5868,0.5869 -0.9309,1.3761 -0.344,0.7893 -0.344,1.7 v 1.4571 q 0,0.7083 0.2226,1.3559 0.2226,0.6476 0.6071,1.2345 0.4048,0.5666 0.9309,1.0321 0.5465,0.4452 1.1536,0.7488 v 4.7154 q 1.538,0.8297 2.8737,2.0237 1.3357,1.194 2.3071,2.6511 0.9916,1.4571 1.5381,3.1368 0.5666,1.6798 0.5666,3.4809 h -5.8284 q 0,2.5297 -0.8702,4.6546 -0.8702,2.125 -2.4285,3.6833 -1.5583,1.5583 -3.7035,2.4285 -2.1249,0.8702 -4.6344,0.8702 -1.9023,0 -3.7035,-0.5059 -1.8011,-0.506 -3.3189,-1.6595 -0.7691,0.3238 -1.5178,0.85 -0.7286,0.5261 -1.356,1.1737 -0.6273,0.6679 -1.0928,1.4369 -0.4452,0.769 -0.6476,1.5988 h 27.6243 q 0.8095,0 1.5987,-0.1619 0.8095,-0.1619 1.5786,-0.425 2.813,-0.9714 4.1891,-3.0964 1.3762,-2.1047 1.3762,-5.0391 z m -32.0158,2.1857 q 0,1.2142 0.344,2.3475 0.3441,1.1131 0.9714,2.0845 0.6476,0.9511 1.5583,1.6999 0.9107,0.7488 2.0238,1.2345 0.6476,0.2833 1.3356,0.4655 0.6881,0.1619 1.4167,0.1619 0.9107,0 1.7606,-0.1417 0.8703,-0.1416 1.7202,-0.4857 1.0929,-0.4452 1.9833,-1.2142 0.9107,-0.7691 1.5381,-1.7405 0.6476,-0.9714 0.9916,-2.1047 0.3643,-1.1333 0.3643,-2.307 0,-1.6595 -0.6274,-3.1166 -0.6273,-1.4571 -1.7202,-2.55 -1.0726,-1.0928 -2.5297,-1.7202 -1.4571,-0.6273 -3.1165,-0.6273 -1.6595,0 -3.1166,0.6273 -1.4571,0.6274 -2.55,1.7202 -1.0928,1.0929 -1.7202,2.55 -0.6273,1.4571 -0.6273,3.1166 z m 8.0141,6.5367 q -1.356,0 -2.55,-0.506 -1.194,-0.5261 -2.0844,-1.3964 -0.8905,-0.8904 -1.4167,-2.0844 -0.5059,-1.194 -0.5059,-2.5499 0,-1.356 0.5059,-2.55 0.5262,-1.194 1.4167,-2.0844 0.8904,-0.8905 2.0844,-1.3964 1.194,-0.5262 2.55,-0.5262 1.3559,0 2.5499,0.5262 1.194,0.5059 2.0642,1.3964 0.8905,0.8904 1.3964,2.0844 0.5262,1.194 0.5262,2.55 0,1.3356 -0.5262,2.5296 -0.5262,1.1738 -1.4166,2.0643 -0.8905,0.8904 -2.0845,1.4166 -1.1738,0.5262 -2.5094,0.5262 z m 17.4447,0 q 0.4452,0 0.85,0.1821 0.4047,0.1619 0.6881,0.4655 0.3035,0.2833 0.4654,0.6881 0.1822,0.4047 0.1822,0.8499 0,0.4453 -0.1822,0.8298 -0.1619,0.4047 -0.4654,0.7083 -0.3036,0.3036 -0.7083,0.4655 -0.3846,0.1821 -0.8298,0.1821 -0.4452,0 -0.85,-0.1821 -0.3845,-0.1619 -0.688,-0.4655 -0.3036,-0.3036 -0.4857,-0.7083 -0.1619,-0.3845 -0.1619,-0.8298 0,-0.4452 0.1619,-0.8297 0.1821,-0.4048 0.4857,-0.7083 0.3035,-0.3036 0.688,-0.4655 0.4048,-0.1821 0.85,-0.1821 z m -19.6304,-6.5367 q 0,0.4654 0.1619,0.8702 0.1821,0.3845 0.4857,0.6678 0.3036,0.2833 0.6881,0.4655 0.4047,0.1619 0.85,0.1619 0.4452,0 0.8297,-0.1619 0.4047,-0.1822 0.6881,-0.4655 0.3035,-0.3036 0.4654,-0.6881 0.1822,-0.4047 0.1822,-0.8499 0,-0.4453 -0.1822,-0.8298 -0.1619,-0.4047 -0.4452,-0.7083 -0.2833,-0.3036 -0.6881,-0.4655 -0.4047,-0.1821 -0.8499,-0.1821 -0.4655,0 -0.8703,0.1821 -0.3845,0.1619 -0.688,0.4655 -0.2834,0.2833 -0.4655,0.6881 -0.1619,0.4047 -0.1619,0.85 z m 26.1874,-21.1078 v 1.4571 q 0,0.5869 -0.4452,1.0321 -0.425,0.425 -1.0119,0.425 -0.6071,0 -1.0321,-0.425 -0.425,-0.425 -0.425,-1.0321 v -1.4571 q 0,-0.5869 0.425,-1.0119 0.4452,-0.425 1.0321,-0.425 0.5869,0 1.0119,0.425 0.4452,0.425 0.4452,1.0119 z m -11.6366,0 v 1.4571 q 0,0.5869 -0.4452,1.0321 -0.425,0.425 -1.0119,0.425 -0.6071,0 -1.0321,-0.425 -0.425,-0.425 -0.425,-1.0321 v -1.4571 q 0,-0.5869 0.425,-1.0119 0.4452,-0.425 1.0321,-0.425 0.5869,0 1.0119,0.425 0.4452,0.425 0.4452,1.0119 z m 5.8082,23.2732 q 0.5869,0 1.0118,0.4452 0.4453,0.425 0.4453,1.0119 0,0.6071 -0.425,1.0321 -0.425,0.425 -1.0321,0.425 -0.6072,0 -1.0321,-0.425 -0.425,-0.425 -0.425,-1.0321 0,-0.5869 0.425,-1.0119 0.4452,-0.4452 1.0321,-0.4452 z m -5.8082,5.8284 q 0.5869,0 1.0119,0.4452 0.425,0.425 0.425,1.0119 0,0.5869 -0.425,1.0119 -0.425,0.4452 -1.0119,0.4452 -0.6071,0 -1.0321,-0.425 -0.425,-0.425 -0.425,-1.0321 0,-0.6071 0.425,-1.0321 0.425,-0.425 1.0321,-0.425 z"
         id="text28-40-1"
         aria-label="ðŸŒ" /><rect
         style="opacity:0.01;fill:#2d2d2d;fill-opacity:0.01;stroke:none;stroke-width:2;stroke-linecap:butt;stroke-linejoin:round;stroke-dasharray:none;stroke-opacity:0.972549"
         id="rect16-3-3-7-2-4-4-1-0-6-8-7"
         width="75.031059"
         height="75.031059"
         x="-1638.7876"
         y="1718.2041"
         ry="0"
         rx="0" /></g><g
       id="g64"><path
         style="-inkscape-font-specification:Arial;stroke-width:34.9106;stroke-linejoin:bevel;stroke-opacity:0.972549"
         d="m -1526.2411,1735.3606 q 2.813,0 5.4034,0.7286 2.6107,0.7285 4.8571,2.0642 2.2666,1.3154 4.1284,3.1773 1.8619,1.8618 3.1773,4.1285 1.3357,2.2463 2.0642,4.857 0.7286,2.5904 0.7286,5.4034 0,2.813 -0.7286,5.4237 -0.7285,2.5904 -2.0642,4.857 -1.3154,2.2463 -3.1773,4.1082 -1.8618,1.8618 -4.1284,3.1773 -2.2464,1.3357 -4.8571,2.0642 -2.5904,0.7286 -5.4034,0.7286 -2.813,0 -5.4236,-0.7286 -2.5904,-0.7285 -4.8571,-2.0642 -2.2463,-1.3155 -4.1082,-3.1773 -1.8618,-1.8619 -3.1975,-4.1082 -1.3154,-2.2666 -2.044,-4.857 -0.7285,-2.6107 -0.7285,-5.4237 0,-2.813 0.7285,-5.4034 0.7286,-2.6107 2.044,-4.857 1.3357,-2.2667 3.1975,-4.1285 1.8619,-1.8619 4.1082,-3.1773 2.2667,-1.3357 4.8571,-2.0642 2.6106,-0.7286 5.4236,-0.7286 z m -17.465,20.359 q 0,2.4083 0.6274,4.6344 0.6273,2.2261 1.7607,4.1689 1.1333,1.9428 2.732,3.5416 1.5988,1.5988 3.5416,2.7321 1.9428,1.1333 4.1689,1.7606 2.2262,0.6274 4.6344,0.6274 3.1166,0 5.9903,-1.0726 2.894,-1.0523 5.2618,-3.0761 l -24.5684,-24.5684 q -2.0237,2.3678 -3.0963,5.2618 -1.0524,2.8737 -1.0524,5.9903 z m 30.7813,11.2521 q 2.0238,-2.3881 3.0761,-5.2416 1.0524,-2.8737 1.0524,-6.0105 0,-2.4083 -0.6274,-4.6344 -0.6273,-2.2261 -1.7606,-4.1689 -1.1333,-1.9428 -2.7321,-3.5214 -1.5785,-1.5987 -3.5213,-2.732 -1.9428,-1.1334 -4.169,-1.7607 -2.2261,-0.6274 -4.6344,-0.6274 -3.1368,0 -6.0105,1.0524 -2.8535,1.0523 -5.2416,3.0761 z"
         id="text28-40-4-4"
         aria-label="ðŸš«" /><rect
         style="opacity:0.01;fill:#2d2d2d;fill-opacity:0.01;stroke:none;stroke-width:2;stroke-linecap:butt;stroke-linejoin:round;stroke-dasharray:none;stroke-opacity:0.972549"
         id="rect16-3-3-7-2-4-4-1-0-6-8-7-6"
         width="75.031059"
         height="75.031059"
         x="-1563.7566"
         y="1718.2041"
         ry="0"
         rx="0" /></g></g></svg>
