<?xml version="1.0" encoding="UTF-8" standalone="no"?>
<!-- Created with Inkscape (http://www.inkscape.org/) -->

<svg
   width="74.654022mm"
   height="74.654022mm"
   viewBox="0 0 74.654022 74.654022"
   version="1.1"
   id="svg1"
   xml:space="preserve"
   xmlns="http://www.w3.org/2000/svg"
   xmlns:svg="http://www.w3.org/2000/svg"><defs
     id="defs1" /><g
     id="layer1"
     transform="translate(2012.2463,-1718.5812)"><g
       id="g5"><rect
         style="opacity:0.1;fill:#d9d9d9;fill-opacity:0.01;stroke:none;stroke-width:2;stroke-linecap:butt;stroke-linejoin:miter;stroke-dasharray:none;stroke-opacity:1"
         id="rect40-1-5-5-4-9"
         width="74.654022"
         height="74.654022"
         x="-2012.2463"
         y="1718.5812" /><path
         id="path8-2-5-1"
         style="fill:#000000;fill-opacity:1;stroke:none;stroke-width:0.367203;stroke-linecap:round;stroke-linejoin:round;stroke-dasharray:none;stroke-opacity:1"
         d="m -1974.9191,1732.9207 a 14.726314,14.726314 0 0 0 -14.7261,14.7265 v 6.4797 c -2.2471,0.3291 -3.9633,2.2499 -3.9633,4.5911 v 19.6242 c 0,2.574 2.0721,4.6463 4.6462,4.6463 h 28.0865 c 2.574,0 4.6463,-2.0723 4.6463,-4.6463 v -19.6242 c 0,-2.3412 -1.7163,-4.2619 -3.9632,-4.5911 v -6.4797 a 14.726314,14.726314 0 0 0 -14.7264,-14.7265 z m 0,6.9749 a 7.7514044,7.7514044 0 0 1 7.7515,7.7516 v 6.4244 h -15.5029 v -6.4244 a 7.7514044,7.7514044 0 0 1 7.7514,-7.7516 z" /></g></g></svg>
