<?xml version="1.0" encoding="UTF-8" standalone="no"?>
<!-- Created with Inkscape (http://www.inkscape.org/) -->

<svg
   width="74.654022mm"
   height="74.654022mm"
   viewBox="0 0 74.654022 74.654022"
   version="1.1"
   id="svg1"
   xml:space="preserve"
   xmlns="http://www.w3.org/2000/svg"
   xmlns:svg="http://www.w3.org/2000/svg"><defs
     id="defs1" /><g
     id="layer1"
     transform="translate(2087.5356,-1720.4379)"><g
       id="g6"><rect
         style="opacity:0.1;fill:#d9d9d9;fill-opacity:0.01;stroke:none;stroke-width:2;stroke-linecap:butt;stroke-linejoin:miter;stroke-dasharray:none;stroke-opacity:1"
         id="rect40-1-5-5-4-9-2"
         width="74.654022"
         height="74.654022"
         x="-2087.5356"
         y="1720.4379" /><path
         id="path8-8-4-5-0-2-7"
         style="fill:#000000;fill-opacity:1;stroke-width:1.57722;stroke-linecap:round;stroke-linejoin:round"
         d="m -2049.7843,1727.4229 c -8.0606,0 -14.595,6.5347 -14.595,14.5954 v 13.0163 c -2.2272,0.3262 -3.9279,2.2296 -3.9279,4.5501 v 19.45 c 0,2.5512 2.0538,4.6049 4.6048,4.6049 h 27.8366 c 2.5512,0 4.6049,-2.0537 4.6049,-4.6049 v -2.8908 -16.5592 -0.081 c 0,-0.114 -0.011,-0.2264 -0.02,-0.3369 -0.2099,-2.3538 -2.1739,-4.1874 -4.5842,-4.1874 h -21.6018 v -12.9615 c 0,-4.2429 3.4395,-7.6827 7.6823,-7.6827 4.243,-10e-5 7.6827,3.4397 7.6827,7.6827 v 5.1822 h 0.1612 3.3755 3.376 v -5.178 c 0,-8.0608 -6.5348,-14.5955 -14.5954,-14.5955 z" /></g></g></svg>
