<?xml version="1.0" encoding="UTF-8" standalone="no"?>
<!-- Created with Inkscape (http://www.inkscape.org/) -->

<svg
   width="210mm"
   height="297mm"
   viewBox="0 0 210 297"
   version="1.1"
   id="svg5"
   xml:space="preserve"
   sodipodi:docname="abcl.svg"
   inkscape:version="1.3.2 (091e20e, 2023-11-25, custom)"
   xmlns:inkscape="http://www.inkscape.org/namespaces/inkscape"
   xmlns:sodipodi="http://sodipodi.sourceforge.net/DTD/sodipodi-0.dtd"
   xmlns:xlink="http://www.w3.org/1999/xlink"
   xmlns="http://www.w3.org/2000/svg"
   xmlns:svg="http://www.w3.org/2000/svg"><sodipodi:namedview
     id="namedview7"
     pagecolor="#ffffff"
     bordercolor="#000000"
     borderopacity="0.25"
     inkscape:showpageshadow="2"
     inkscape:pageopacity="0.0"
     inkscape:pagecheckerboard="0"
     inkscape:deskcolor="#d1d1d1"
     inkscape:document-units="mm"
     showgrid="false"
     inkscape:zoom="0.37378544"
     inkscape:cx="347.79311"
     inkscape:cy="444.10505"
     inkscape:window-width="958"
     inkscape:window-height="1008"
     inkscape:window-x="1920"
     inkscape:window-y="0"
     inkscape:window-maximized="0"
     inkscape:current-layer="layer1" /><defs
     id="defs2" /><g
     inkscape:label="Layer 1"
     inkscape:groupmode="layer"
     id="layer1"><path
       style="opacity:1;fill:#ffffff;fill-opacity:1;stroke:none;stroke-width:1.497;stroke-linecap:round;stroke-linejoin:round;stroke-dasharray:none;stroke-opacity:1;stop-color:#000000"
       d="m 50.827203,154.20387 20.29489,-1.44125 14.82442,-2.84117 18.913577,-3.12901 13.48909,-4.82452 5.79654,2.6939 0.30009,3.7971 6.60474,-2.33524 7.89895,11.19593 7.19074,71.12676 4.41789,19.44947 -7.5892,11.84566 -35.40998,-2.22086 -36.592507,-0.55666 -8.99005,-15.11171 -2.37969,-43.38987 -6.32473,-31.19495 -1.43247,-10.47331 z"
       id="path4473"
       inkscape:export-filename="icon128.png"
       inkscape:export-xdpi="23.987713"
       inkscape:export-ydpi="23.987713" /><path
       style="fill:#d8d6d6;fill-opacity:1;stroke:none;stroke-width:0.666999;stroke-linecap:round;stroke-linejoin:round;stroke-opacity:1"
       d="m 123.02043,177.80107 c 0.2319,-28.28423 -5.21327,-37.88162 -1.77299,-34.48621 l 3.33674,7.90992 1.43167,28.41032 z"
       id="path3"
       sodipodi:nodetypes="ccccc" /><path
       style="fill:#d8d6d6;fill-opacity:1;stroke:none;stroke-width:0.666999;stroke-linecap:round;stroke-linejoin:round;stroke-opacity:1"
       d="m 129.67463,231.57283 -0.98769,2.88126 0.72003,9.55104 0.32031,1.77411 0.28189,2.01737 -1.18028,-0.65371 -0.14127,2.23361 1.96753,-0.255 3.28138,12.19023 12.66296,-3.72166 3.9737,-14.46591 -8.76855,-46.52459 -3.12491,-41.17563 -7.62919,-9.30027 -6.60474,2.33524 -2.52532,-0.65001 2.6637,3.41587 0.67733,19.43684 4.09681,35.27399 2.56315,27.07701 -1.44886,-0.34298 z"
       id="path2" /><path
       style="fill:#f2cbdf;fill-opacity:1;stroke:none;stroke-width:0.666999;stroke-linecap:round;stroke-linejoin:round;stroke-opacity:1"
       d="m 57.079843,186.04871 22.75557,-4.51787 36.937547,-2.95124 7.67138,-0.95597 3.14299,4.02294 3.542,48.57811 1.44304,2.03409 -1.30178,1.5077 -1.59596,-2.19364 -9.95352,0.0191 -30.199167,-1.03348 -22.49797,3.45347 -6.14172,-0.65709 -1.20788,-33.47607 z"
       id="path1" /><rect
       style="opacity:0;fill:#ffffff;fill-opacity:0.00677969;stroke:#000000;stroke-width:1.799;stroke-linecap:round;stroke-linejoin:round;stroke-dasharray:none;stroke-opacity:1;stop-color:#000000"
       id="rect5379"
       width="133.73706"
       height="133.73706"
       x="32.939812"
       y="134.63655"
       inkscape:export-filename="abcl.png"
       inkscape:export-xdpi="16.33"
       inkscape:export-ydpi="16.33" /><path
       style="fill:#ffffff;fill-opacity:1;stroke:none;stroke-width:0.666999;stroke-linecap:round;stroke-linejoin:round;stroke-opacity:1"
       d="m 128.76224,156.10303 c -0.0608,31.00002 7.85744,57.47398 9.0748,92.27945 l 2.68646,-3.60172 -2.35215,-17.37569 -1.40806,-24.5349 -4.10493,-16.96984 -0.80174,-21.66139 -1.74527,-7.05691 0.1774,-1.92445 z"
       id="path4"
       sodipodi:nodetypes="cccccccccc" /><path
       id="path5"
       style="fill:#ffffff;stroke-width:0.616975;stroke-linecap:round;stroke-linejoin:round"
       d="m 144.84443,253.7828 c -0.8106,0.40026 -1.47633,0.20769 -1.87659,-0.60292 -0.40025,-0.81059 -0.20644,-1.72364 0.60415,-2.1239 0.81061,-0.40026 2.22275,-1.0942 2.62296,-0.28369 0.40026,0.8106 -0.53991,2.61025 -1.35052,3.01051 z"
       sodipodi:nodetypes="sssss" /><path
       id="path5-8"
       style="fill:#ffffff;stroke-width:0.616975;stroke-linecap:round;stroke-linejoin:round"
       d="m 148.21754,246.24882 c -0.51028,0.74626 -1.18492,0.90479 -1.93118,0.3945 -0.74624,-0.51028 -0.91458,-1.27545 -0.40432,-2.0217 0.51029,-0.74626 -0.86207,-20.38597 -0.1159,-19.87575 0.74624,0.51028 2.9617,20.75669 2.4514,21.50295 z"
       sodipodi:nodetypes="sssss" /><path
       id="path313"
       style="fill:#765589;fill-opacity:0.992157;stroke-width:0.352778"
       d="m 119.72016,141.64856 c -0.50747,-0.0234 -0.97849,0.0768 -1.37098,0.31936 -0.35128,0.2171 -4.92938,0.99182 -10.48515,1.77458 -1.74625,0.24602 -3.83057,0.78501 -4.63176,1.19786 -1.25709,0.64777 -1.60961,0.69312 -2.57245,0.32969 -0.995961,-0.37593 -1.322471,-0.31287 -3.044261,0.5886 -1.66107,0.86968 -2.17301,0.97727 -3.685046,0.77669 -1.30088,-0.17257 -2.04666,-0.0823 -2.87837,0.34778 -0.77691,0.40176 -1.58232,0.5175 -2.6169,0.37569 -1.16739,-0.16001 -1.68902,-0.0521 -2.38073,0.49196 -0.71278,0.56068 -1.06708,0.62744 -1.81488,0.34313 -0.73256,-0.27852 -1.22892,-0.20018 -2.34456,0.36897 -1.09788,0.5601 -1.7661,0.66901 -2.98121,0.4868 -1.17709,-0.17652 -1.79212,-0.0869 -2.4753,0.3607 -0.64756,0.42429 -1.28675,0.53198 -2.22105,0.37413 -1.04778,-0.17702 -1.44086,-0.0782 -1.95544,0.49041 -0.52077,0.57546 -0.92579,0.67292 -2.11408,0.51005 -1.08378,-0.14855 -1.58909,-0.0577 -1.92392,0.34572 -0.35247,0.42469 -0.63456,0.46498 -1.26038,0.17983 -0.60254,-0.27454 -1.06366,-0.23605 -1.82522,0.15296 -0.58158,0.29708 -1.51268,0.44601 -2.16886,0.34675 -0.69116,-0.10455 -1.38112,0.018 -1.73012,0.30747 -0.31931,0.26482 -1.30983,0.50383 -2.20142,0.53072 -1.50971,0.0455 -5.18641,0.74194 -8.21087,1.55546 -2.31115,0.62166 -2.44146,2.11015 -0.46509,5.31234 3.18905,5.16699 3.30827,5.96007 8.46667,56.4069 0.68448,6.69395 1.39227,13.04361 1.57303,14.11076 0.18075,1.06715 0.50916,3.4484 0.72967,5.29167 0.2205,1.84325 0.44596,3.66906 0.50126,4.05711 0.0553,0.38806 0.20991,1.49948 0.34365,2.46962 0.67472,4.89446 1.71693,7.50042 4.52169,11.30629 3.40517,4.62059 6.11092,5.32245 23.81715,6.17791 4.124076,0.19925 8.807386,0.5171 10.407117,0.70642 1.59973,0.18933 6.48023,0.43299 10.84585,0.54157 4.36562,0.10858 9.68357,0.31945 11.81788,0.4687 26.18687,1.83136 30.62293,-3.83824 25.23412,-32.25384 -0.38862,-2.04923 -1.62371,-11.29529 -1.95544,-14.64045 -0.12506,-1.26118 -0.92944,-7.37272 -1.788,-13.5816 -0.85855,-6.20888 -1.80234,-13.11452 -2.09703,-15.34583 -0.6868,-5.20023 -3.62698,-26.57549 -4.10001,-29.80749 -0.97671,-6.67345 -4.42371,-9.56733 -11.67836,-9.80405 -2.06887,-0.0675 -2.38856,-0.17479 -2.85564,-0.95808 -1.05181,-1.76386 -2.90317,-2.94318 -4.42556,-3.01326 z m 0.27853,3.02308 c 1.01567,-0.0191 1.19128,0.1932 1.7694,1.0051 0.64249,0.90228 0.68401,1.10175 0.231,1.10175 -0.67814,0 -0.70082,0.29994 -0.0786,1.03042 0.56999,0.66911 1.56194,3.15663 1.80092,4.51601 0.71748,4.08116 0.90863,6.26232 1.42989,16.32562 0.0955,1.84326 0.26692,4.73827 0.38137,6.43319 0.20808,3.08168 0.20828,3.08165 -1.08831,2.5399 -3.03183,-1.26678 -34.260147,2.02234 -62.617877,6.59495 -1.26118,0.20336 -2.60693,0.43053 -2.94743,0.52376 -0.48959,0.13406 -0.68047,0.16593 -0.91053,-1.29863 l 0.40589,3.74396 c -0.0913,-1.12498 0.35323,-1.52856 3.32753,-1.90404 l 19.52749,-2.69751 c 1.11986,-0.21954 2.22562,-0.34597 3.0825,-0.38809 l 2.66185,-0.33486 c -0.015,-0.0963 0.0313,-0.1013 0.154,-0.0196 l 3.09542,-0.38964 c 0.0919,-0.0626 0.21078,-0.10336 0.34365,-0.10336 0.0763,0 0.13793,0.0142 0.18861,0.0367 l 2.57711,-0.32453 c 0.0603,-0.0257 0.2282,-0.0422 0.4625,-0.0584 l 3.838576,-0.48317 c 0.77611,-0.12945 6.094071,-0.68995 11.817881,-1.24592 16.8608,-1.63773 16.23172,-1.80885 16.86203,4.58887 l 3.21014,32.18925 c 0.0223,0.0861 0.0362,0.20268 0.0362,0.36122 0,1.11436 0.7568,8.05594 1.26556,11.60859 0.66542,4.64673 0.67072,4.63015 -1.15083,3.54965 -2.01622,-1.19595 -9.14515,-1.91553 -19.2779,-1.94613 -1.5103,-0.005 -2.51285,-0.0121 -3.48247,-0.0217 l -21.098967,1.15651 c -5.51778,0.43357 -7.19421,0.60092 -12.52327,1.24902 -2.52236,0.30677 -5.75122,0.75835 -7.17475,1.00356 -1.86878,0.32191 -2.62305,0.33743 -2.71405,0.0558 -0.0693,-0.21453 -0.30242,-2.13624 -0.51832,-4.27054 -0.21591,-2.13431 -0.48739,-4.26579 -0.60306,-4.73666 -0.11978,-0.48765 -0.16302,-0.68812 0.0212,-0.63148 l -1.42989,-13.19041 c -0.0762,0.0358 -0.0963,-0.0919 -0.0992,-0.40308 -7.6e-4,-0.0876 0.01,-0.17031 0.0289,-0.24598 l -0.31057,-2.8665 c -0.0543,-0.012 -0.0688,-0.1484 -0.0713,-0.41547 -3.5e-4,-0.0403 0.01,-0.0755 0.014,-0.11369 l -0.32194,-2.96881 c -0.0365,0.003 -0.0397,-0.0618 -0.0186,-0.17364 l -2.65876,-24.52511 c -1.31425,-12.4905 -2.29363,-16.4426 -5.12785,-20.69693 -0.87072,-1.30699 -0.88826,-1.29437 2.69389,-1.90686 5.47596,-0.9363 5.25446,-1.05967 11.43858,6.37584 2.40864,2.89603 3.16222,3.26291 4.3708,2.12751 0.57735,-0.5424 1.05146,-0.68991 1.69602,-0.52813 0.70747,0.17756 0.94352,0.0705 1.12809,-0.51108 0.28144,-0.88673 0.63782,-0.91784 1.79886,-0.15709 0.83961,0.55012 0.92524,0.53842 1.75855,-0.24443 0.81524,-0.76588 0.96597,-0.79088 2.16989,-0.35554 1.2382,0.44774 1.32951,0.42631 2.12649,-0.50023 0.77338,-0.89911 0.87742,-0.92748 1.46089,-0.39945 0.79705,0.72132 1.33392,0.72131 1.73788,-5.2e-4 0.26828,-0.47938 0.44842,-0.5001 1.1405,-0.12971 0.83091,0.44469 1.73234,-0.17354 2.20141,-1.5105 0.0986,-0.28097 0.41257,-0.12256 0.88212,0.44545 0.72908,0.88194 0.72922,0.88193 1.81281,-0.15193 1.08359,-1.03386 1.0835,-1.03369 2.00194,-0.17622 0.91845,0.85748 0.91815,0.85721 1.854146,-0.24649 0.78201,-0.92211 1.04102,-1.03802 1.57407,-0.70539 0.51388,0.32068 0.7363,0.26591 1.14256,-0.28112 0.44254,-0.59588 0.61023,-0.62268 1.3653,-0.21859 0.47333,0.25332 1.30813,0.37374 1.855701,0.26769 0.60312,-0.11682 1.21251,0.001 1.54512,0.29972 1.26637,1.13587 2.00982,-0.16064 3.75636,-6.54895 0.29175,-1.06716 0.75186,-2.64293 1.02268,-3.50212 0.27082,-0.85918 0.49247,-1.82759 0.49247,-2.1518 0,-0.63696 6.49615,-1.99514 11.32231,-2.3673 0.5714,-0.0441 1.00297,-0.0763 1.34152,-0.0827 z m -15.13861,2.1208 c 0.35022,0.0502 0.32129,0.56799 -0.0196,1.80247 -0.23314,0.8442 -0.46373,2.72542 -0.51263,4.18063 -0.13421,3.99681 -0.93448,6.43751 -1.91306,5.83271 -0.26269,-0.16236 -0.33673,-1.15364 -0.21962,-2.9502 0.17739,-2.72133 0.13447,-2.66649 -0.755,0.9648 -0.4144,1.6918 -1.22532,2.11958 -2.542481,1.34152 -1.01377,-0.59885 -1.06732,-0.59503 -1.73529,0.12195 -0.97772,1.04944 -1.19259,0.45049 -1.05627,-2.94142 0.0641,-1.59408 -0.0333,-2.97774 -0.21652,-3.07475 -0.18985,-0.10054 -0.38924,0.95148 -0.46354,2.44636 -0.19281,3.88012 -1.647616,6.57109 -2.616376,4.84002 -0.17965,-0.32102 -0.56399,-0.58343 -0.85421,-0.58343 -0.29022,0 -0.91771,0.3901 -1.39475,0.86713 -1.33343,1.33344 -1.86417,0.18669 -2.36213,-5.10615 -0.46497,-4.94231 -0.31416,-5.28598 2.32028,-5.28598 1.39365,0 1.39365,-3.4e-4 1.23196,3.79202 -0.16745,3.92763 -0.082,5.02708 0.39016,5.02708 0.15208,0 0.2768,-0.83344 0.27699,-1.85208 1.9e-4,-1.01865 0.11568,-3.08262 0.25683,-4.5868 0.27834,-2.96637 0.0705,-2.73025 2.842196,-3.23081 0.58209,-0.10513 1.4371,-0.29819 1.90014,-0.42943 0.83676,-0.23717 0.84041,-0.22623 0.60462,1.8433 -0.5651,4.95982 -0.63531,6.49211 -0.29818,6.49211 0.19164,0 0.45448,-0.83344 0.58447,-1.85209 0.82267,-6.44702 0.93368,-6.67441 3.485051,-7.15305 1.3243,-0.24844 1.32424,-0.2483 1.09141,1.73271 -0.29932,2.54676 0.0474,2.55759 0.57464,0.0181 0.22558,-1.08662 0.63695,-2.05073 0.92191,-2.16007 0.20345,-0.0781 0.3623,-0.11336 0.47904,-0.0966 z m 21.87722,1.41128 c 7.90079,0.0131 8.84661,1.65671 11.15642,19.38848 0.69506,5.33576 1.48578,11.28889 1.757,13.22917 0.47057,3.3663 1.00037,7.25205 2.59674,19.05 0.39381,2.91041 0.96023,7.03826 1.25884,9.17257 0.29861,2.1343 0.85017,6.18244 1.22578,8.99583 0.3756,2.8134 1.00938,7.49619 1.40818,10.4066 2.38934,17.43733 2.4211,17.87107 1.56941,21.54339 -1.16154,5.00845 -2.8213,6.50283 -8.6248,7.76697 -5.07755,1.106 -5.60082,0.60829 -7.63415,-7.26158 -0.22439,-0.86846 -0.6544,-1.40351 -1.44953,-1.8035 -1.13029,-0.56869 -1.13054,-0.56858 0.008,-0.89504 1.3944,-0.39991 1.60938,-1.64457 0.31575,-1.8278 -0.74035,-0.10486 -0.76327,-0.15932 -0.23203,-0.54777 0.51672,-0.37784 0.53694,-0.62694 0.16175,-2.00039 -0.83268,-3.04817 -1.4006,-6.17354 -1.4056,-7.74216 -0.004,-1.17716 -0.0966,-1.45069 -0.35812,-1.05834 -0.37252,0.55882 -0.16366,4.56577 0.34933,6.70295 0.83848,3.49326 0.94547,3.175 -1.0666,3.175 -2.27899,0 -2.16112,0.51481 0.36174,1.5813 1.90256,0.80427 1.90248,0.80463 0.69349,1.0635 -2.82625,0.60517 -2.5392,1.87474 0.53434,2.36317 0.54996,0.0874 0.84426,0.76011 1.49293,3.41064 0.44441,1.81586 1.04911,3.78462 1.34359,4.37493 0.29449,0.59031 0.53536,1.12807 0.53536,1.19527 0,0.0666 -0.11906,0.0963 -0.26458,0.0646 -0.14552,-0.0317 -3.2018,-0.17063 -6.79132,-0.30851 -15.56288,-0.59781 -19.09574,-0.7475 -29.280381,-1.24127 -23.581106,-1.14328 -23.860406,-1.18577 -26.853656,-4.10879 -3.20544,-3.13023 -5.95467,-11.64371 -5.95467,-18.4397 0,-0.10625 2.46627,-0.36791 11.64166,-1.23507 14.61224,-1.38098 23.173546,-1.75113 38.629167,-1.66863 14.50471,0.0775 14.85446,0.12251 17.40927,2.21692 0.0678,0.0556 0.41056,1.75341 0.7612,3.77341 0.40944,2.35881 1.01342,4.41806 1.68878,5.75624 1.45715,2.8872 2.23893,5.69373 1.97611,7.09466 -0.11994,0.63937 -0.0735,1.16272 0.10335,1.16272 0.59906,0 1.16795,-0.84245 1.17926,-1.74615 0.0157,-1.25809 0.94141,-0.0583 1.25832,1.63091 0.26323,1.40315 0.73726,1.50871 1.20871,0.26872 0.3549,-0.93346 0.0682,-1.84868 -0.94568,-3.01481 -0.60744,-0.69869 2.29413,-1.26169 3.41375,-0.66249 0.45715,0.24463 0.73245,0.22653 0.9095,-0.0599 0.28286,-0.45768 -1.06224,-1.70791 -1.83761,-1.70791 -0.38565,0 -0.49797,-0.80827 -0.52607,-3.79253 -0.0666,-7.08396 -1.48212,-23.35968 -2.9533,-33.95452 -0.0943,-0.67909 -0.42908,-3.21927 -0.74363,-5.64462 -0.8044,-6.2023 -0.77677,-6.01467 -1.59267,-10.91664 -0.40548,-2.43619 -0.78614,-4.74652 -0.84594,-5.13457 -0.0598,-0.38806 -0.29988,-1.89653 -0.5333,-3.35174 -0.4794,-2.98878 -0.5459,-3.49724 -0.87333,-6.70243 -0.418,-4.09183 -0.46962,-4.71339 -0.69195,-8.29045 -0.12061,-1.94028 -0.28699,-3.84631 -0.36948,-4.2354 -0.62724,-2.95645 -0.27813,-5.78136 0.8294,-6.71329 0.60908,-0.5125 1.10743,-1.15609 1.10743,-1.42988 0,-0.74431 -0.97888,-0.60023 -1.41129,0.20774 -0.65982,1.23289 -1.02283,0.75957 -0.47904,-0.62477 0.39766,-1.01236 0.43338,-1.56616 0.14883,-2.31459 -0.50403,-1.32572 -1.08107,-0.86907 -1.08107,0.85576 0,1.27749 -0.0607,1.37026 -0.68213,1.03766 -0.95234,-0.50967 -2.93992,-0.47247 -2.7652,0.0517 0.0764,0.22917 0.63373,0.58636 1.23868,0.79375 1.50227,0.51503 1.40999,0.23871 1.65468,4.96301 0.12059,2.32833 0.29906,5.58288 0.39636,7.23212 0.2918,4.94722 1.5283,16.20862 2.11098,19.22621 2.13436,11.05353 5.85455,42.32225 6.35879,53.44635 0.29482,6.50467 -1.71438,9.25615 -3.36776,4.61212 -0.45416,-1.27566 -1.05106,-2.66904 -1.32653,-3.09593 -0.81668,-1.26554 -1.58598,-5.8969 -2.74299,-16.50958 -0.42355,-3.88501 -0.58603,-5.47134 -0.69453,-6.78925 -0.0678,-0.82345 -0.20913,-1.93435 -0.31419,-2.4691 -0.10505,-0.53475 -0.28334,-2.16318 -0.39636,-3.61839 -0.11303,-1.4552 -0.26516,-3.20128 -0.33796,-3.88038 -0.13014,-1.21471 -0.33801,-3.40805 -0.71831,-7.58455 -0.10601,-1.16417 -0.26615,-2.83105 -0.35605,-3.70417 -0.0899,-0.87313 -0.24809,-2.77813 -0.35191,-4.23333 -0.10383,-1.45521 -0.3419,-4.15431 -0.52865,-5.99757 -0.59246,-5.84774 -1.38539,-15.84191 -1.7632,-22.225 -0.45981,-7.76853 -0.8897,-11.17391 -1.80041,-14.25081 -0.85096,-2.875 -0.7436,-3.02581 2.15336,-3.02101 z m -40.790787,1.71773 c 0.7974,0.0195 1.00651,1.33617 1.66191,6.20582 0.45417,3.37452 -0.68555,5.7256 -2.09445,4.32118 -0.35411,-0.35297 -0.56627,-0.27698 -1.06298,0.38034 -0.55612,0.73596 -0.6681,0.76342 -1.0821,0.26458 -0.61478,-0.74076 -1.05769,-0.70171 -1.9911,0.17519 -0.77882,0.73166 -0.77849,0.73166 -1.02164,-1.32292 -0.13373,-1.13002 -0.4693,-2.5309 -0.74569,-3.11299 -0.553,-1.16458 -0.55202,-1.11785 0.10335,3.65714 0.20258,1.47603 0.181,1.52393 -0.52193,1.14774 -0.83576,-0.44729 -1.69823,-0.22344 -1.98127,0.51418 -0.47064,1.22646 -2.86608,-0.22659 -3.53467,-2.14406 -0.27062,-0.77611 -0.96777,-2.72097 -1.54926,-4.3217 -0.58149,-1.60072 -1.03359,-2.91603 -1.00459,-2.92333 2.42364,-0.61143 2.67881,-0.48159 3.76928,1.92339 0.57931,1.27765 1.18124,2.32286 1.3379,2.32286 0.15667,0 0.5602,0.8733 0.89659,1.94045 0.3364,1.06715 0.67285,1.94045 0.74775,1.94045 0.30205,0 -0.34242,-2.81669 -1.28674,-5.6224 -0.55101,-1.63712 -1.00201,-3.01088 -1.00201,-3.05252 0,-0.17983 2.28228,-0.85008 2.8944,-0.85008 0.84374,0 2.23116,2.8998 2.80086,5.85442 0.45215,2.34499 1.01408,3.31266 0.99478,1.71256 -0.0163,-1.35105 -0.79441,-4.54972 -1.53221,-6.29832 -0.67631,-1.60288 -0.68254,-1.59087 0.92397,-1.85157 1.43838,-0.23342 1.40999,-0.29826 2.05104,4.63951 0.86,6.62427 1.19262,4.3648 0.48163,-3.27215 -0.12311,-1.32229 -0.035,-1.55678 0.7152,-1.89859 0.43481,-0.19812 0.76617,-0.3357 1.03198,-0.32918 z m -17.34261,3.23029 c 0.19814,0.003 0.42313,0.0179 0.67592,0.0434 1.03511,0.1046 1.15555,0.28902 2.46187,3.77393 1.55996,4.16158 1.84874,6.6928 0.68006,5.96294 -0.59521,-0.37171 -0.83572,-0.29716 -1.69499,0.52607 -1.36524,1.30798 -1.53582,1.25053 -3.18068,-1.06919 -0.79109,-1.11565 -2.48102,-3.29864 -3.75533,-4.85086 -2.00758,-2.44542 -2.2215,-2.83737 -1.60093,-2.93626 0.90515,-0.14423 1.56924,0.66811 3.91449,4.78834 1.61483,2.83701 2.42517,3.85062 2.42517,3.03444 0,-0.31666 -3.13768,-6.08952 -3.92379,-7.2192 -0.72045,-1.03531 -0.56843,-1.37149 0.62167,-1.37149 0.87866,0 3.6186,3.53656 5.08237,6.56032 0.63114,1.30376 1.39475,2.05291 1.39475,1.3684 0,-0.39015 -2.47994,-5.00294 -3.49901,-6.50865 -1.05186,-1.55416 -0.98861,-2.12157 0.39843,-2.1022 z"
       sodipodi:nodetypes="sssssssssssssssssssssssssssssssssscssssssssssssssssssccccccccsccccsccssssccssssscccccsccccsssssssssssssssssssssssssssssscssssssssssssssssssssssssssssssssssssscsssscsssssssssssssssssssssssssssscssssssscsssssssssscsssssssscsssssssssssssssssssscsssssssssssssssssssssssssssssssssss" /><text
       xml:space="preserve"
       style="font-size:22.6463px;line-height:35.8417px;font-family:'Ink Free';-inkscape-font-specification:'Ink Free';text-align:center;text-decoration-color:#000000;text-anchor:middle;fill:#d080b5;fill-opacity:1;stroke-width:1.497;stroke-linecap:round;stroke-linejoin:round;stop-color:#000000;font-weight:normal;font-style:normal;font-stretch:normal;font-variant:normal;stroke-dasharray:none;stroke:#77568a;stroke-opacity:1"
       id="text671"><textPath
         xlink:href="#path723"
         startOffset="50%"
         id="textPath725"
         style="font-style:normal;font-variant:normal;font-weight:normal;font-stretch:normal;font-family:'Ink Free';-inkscape-font-specification:'Ink Free';fill:#d080b5;fill-opacity:1;stroke-width:1.497;stroke-dasharray:none;stroke:#77568a;stroke-opacity:1">ABCL</textPath></text><path
       style="opacity:0.00336699;fill:#ffffff;stroke-width:0.666999;stroke-linecap:round;stroke-linejoin:round;stop-color:#000000"
       d="m 66.385333,216.90474 c 17.57193,-5.15825 58.831507,-5.15825 58.831507,-5.15825"
       id="path723" /><path
       style="fill:#ffffff;fill-opacity:1;stroke:none;stroke-width:1.497;stroke-linecap:round;stroke-linejoin:round;stroke-dasharray:none;stroke-opacity:1;stop-color:#000000"
       d="m 50.827234,20.466809 20.29489,-1.44126 14.82442,-2.84117 18.913576,-3.12901 13.48909,-4.8245127 5.79654,2.6938927 0.30009,3.7971 6.60474,-2.33524 7.89895,11.19593 7.19074,71.126759 4.41788,19.449472 -7.5892,11.84566 -35.40998,-2.22086 -36.592506,-0.55666 -8.99004,-15.11171 -2.37969,-43.389862 -6.32473,-31.194949 -1.43247,-10.47331 z"
       id="path4473-6"
       inkscape:export-filename="abcl.png"
       inkscape:export-xdpi="16.116745"
       inkscape:export-ydpi="16.116745" /><rect
       style="opacity:0;fill:#ffffff;fill-opacity:0.00677969;stroke:#000000;stroke-width:1.799;stroke-linecap:round;stroke-linejoin:round;stroke-dasharray:none;stroke-opacity:1;stop-color:#000000"
       id="rect5379-0"
       width="133.73706"
       height="133.73706"
       x="32.939808"
       y="0.89950001"
       inkscape:export-filename="abcl.png"
       inkscape:export-xdpi="16.33"
       inkscape:export-ydpi="16.33" /><path
       id="path313-2"
       style="fill:#000000;stroke-width:0.352778"
       d="m 119.72019,7.9114963 c -0.50747,-0.0234 -0.97849,0.0768 -1.37098,0.31936 -0.35128,0.21711 -4.92938,0.99182 -10.48515,1.7745727 -1.74625,0.24603 -3.83057,0.78501 -4.63176,1.19786 -1.25709,0.64777 -1.60961,0.69313 -2.57245,0.32969 -0.995961,-0.37593 -1.322471,-0.31287 -3.044261,0.5886 -1.66107,0.86968 -2.17301,0.97728 -3.685045,0.7767 -1.30088,-0.17257 -2.04666,-0.0823 -2.87837,0.34778 -0.77691,0.40176 -1.58232,0.51749 -2.6169,0.37569 -1.16739,-0.16001 -1.68902,-0.0521 -2.38073,0.49196 -0.71278,0.56067 -1.06708,0.62744 -1.81488,0.34313 -0.73256,-0.27853 -1.22892,-0.20019 -2.34456,0.36897 -1.09788,0.56009 -1.7661,0.66901 -2.98121,0.48679 -1.17709,-0.17652 -1.79212,-0.0869 -2.4753,0.3607 -0.64756,0.4243 -1.28675,0.53199 -2.22105,0.37414 -1.04778,-0.17702 -1.44086,-0.0782 -1.95544,0.49041 -0.52077,0.57545 -0.92579,0.67292 -2.11408,0.51004 -1.08378,-0.14855 -1.58909,-0.0577 -1.92392,0.34572 -0.35247,0.42469 -0.63456,0.46498 -1.26038,0.17983 -0.60254,-0.27453 -1.06366,-0.23605 -1.82522,0.15297 -0.58158,0.29707 -1.51268,0.446 -2.16886,0.34674 -0.69116,-0.10455 -1.38112,0.018 -1.73012,0.30748 -0.31931,0.26482 -1.30983,0.50383 -2.20142,0.53072 -1.50971,0.0455 -5.18641,0.74193 -8.21087,1.55546 -2.31115,0.62165 -2.44146,2.11014 -0.46509,5.31233 3.18905,5.167 3.30827,5.96007 8.46667,56.406899 0.68448,6.69395 1.39227,13.04361 1.57303,14.11076 0.18075,1.06715 0.50916,3.4484 0.72967,5.291672 0.2205,1.84325 0.44596,3.66906 0.50126,4.05711 0.0553,0.38806 0.20991,1.49948 0.34365,2.46962 0.67472,4.89446 1.71693,7.50042 4.52169,11.30629 3.40517,4.62059 6.11092,5.32245 23.81715,6.17791 4.124075,0.19925 8.807385,0.5171 10.407116,0.70642 1.59973,0.18933 6.48023,0.43299 10.84585,0.54157 4.36562,0.10858 9.68357,0.31945 11.81788,0.4687 26.18687,1.83136 30.62293,-3.83824 25.23412,-32.253842 -0.38862,-2.04923 -1.62371,-11.29529 -1.95544,-14.64045 -0.12506,-1.26118 -0.92944,-7.37271 -1.788,-13.5816 -0.85855,-6.208879 -1.80234,-13.114509 -2.09703,-15.345829 -0.6868,-5.20023 -3.62698,-26.57549 -4.10001,-29.80748 -0.97671,-6.67345 -4.42371,-9.56734 -11.67836,-9.80406 -2.06887,-0.0675 -2.38856,-0.17479 -2.85564,-0.95808 -1.05181,-1.7638427 -2.90317,-2.9431727 -4.42556,-3.0132527 z m 0.27853,3.0230727 c 1.01567,-0.0191 1.19128,0.19321 1.7694,1.00511 0.64249,0.90228 0.68401,1.10174 0.231,1.10174 -0.67814,0 -0.70082,0.29995 -0.0786,1.03043 0.56999,0.66911 1.56194,3.15662 1.80092,4.516 0.71748,4.08117 0.90863,6.26232 1.42989,16.32562 0.0955,1.84326 0.26692,4.73828 0.38137,6.4332 0.20808,3.08168 0.20827,3.08164 -1.08831,2.5399 -3.03184,-1.26679 -34.260146,2.02234 -62.617876,6.59494 -1.26118,0.20336 -2.57147,0.44576 -2.91197,0.53899 -0.48959,0.13405 -0.68047,0.16592 -0.91053,-1.29863 l 0.39067,3.38791 c -0.0913,-1.12498 0.33299,-1.18773 3.30729,-1.56322 l 19.52749,-2.69751 c 1.11986,-0.21953 2.22562,-0.34597 3.0825,-0.38809 l 2.66185,-0.33486 c -0.015,-0.0963 0.0313,-0.1013 0.154,-0.0196 l 3.09542,-0.38964 c 0.0919,-0.0626 0.21078,-0.10335 0.34365,-0.10335 0.0763,0 0.13793,0.0142 0.18861,0.0367 l 2.57711,-0.32453 c 0.0603,-0.0257 0.2282,-0.0422 0.4625,-0.0584 l 3.838575,-0.48318 c 0.77611,-0.12944 6.094071,-0.68995 11.817881,-1.24592 16.8608,-1.63773 16.23172,-1.80885 16.86202,4.58887 l 3.21014,32.189249 c 0.0223,0.0861 0.0362,0.20268 0.0362,0.36122 0,1.11436 0.7568,8.05594 1.26556,11.60859 0.66542,4.64673 0.67072,4.63015 -1.15083,3.54965 -2.01622,-1.19595 -9.14515,-1.91553 -19.2779,-1.94613 -1.5103,-0.005 -2.51285,-0.0121 -3.48247,-0.0217 l -21.098966,1.15651 c -5.51778,0.43357 -7.19421,0.60092 -12.52327,1.24902 -2.52236,0.30677 -5.75122,0.75835 -7.17475,1.00356 -1.86878,0.32191 -2.62305,0.33743 -2.71405,0.0558 -0.0693,-0.21453 -0.30242,-2.13624 -0.51832,-4.27054 -0.21591,-2.13431 -0.48739,-4.26579 -0.60306,-4.73666 -0.11978,-0.48765 -0.16302,-0.68812 0.0212,-0.63148 l -1.42989,-13.19041 c -0.0762,0.0358 -0.0963,-0.0919 -0.0992,-0.40308 -7.6e-4,-0.0876 0.01,-0.17031 0.0289,-0.24598 l -0.31057,-2.86649 c -0.0543,-0.012 -0.0688,-0.1484 -0.0713,-0.41548 -3.5e-4,-0.0403 0.01,-0.0755 0.014,-0.11369 l -0.32194,-2.96881 c -0.0365,0.003 -0.0397,-0.0618 -0.0186,-0.17363 l -2.65876,-24.525119 c -1.31425,-12.4905 -2.29363,-16.4426 -5.12785,-20.69693 -0.87072,-1.30699 -0.88826,-1.29437 2.69389,-1.90686 5.47596,-0.93629 5.25446,-1.05967 11.43858,6.37584 2.40864,2.89603 3.16222,3.26291 4.3708,2.12752 0.57735,-0.54241 1.05146,-0.68991 1.69602,-0.52813 0.70747,0.17756 0.94352,0.0705 1.12809,-0.51108 0.28144,-0.88674 0.63782,-0.91785 1.79886,-0.1571 0.83961,0.55013 0.92524,0.53842 1.75855,-0.24443 0.81524,-0.76588 0.96597,-0.79088 2.16989,-0.35553 1.2382,0.44773 1.32951,0.4263 2.12649,-0.50023 0.77338,-0.89912 0.87742,-0.92749 1.46089,-0.39946 0.79705,0.72132 1.33392,0.72132 1.73788,-5.2e-4 0.26828,-0.47938 0.44842,-0.5001 1.1405,-0.12971 0.83091,0.44469 1.73234,-0.17354 2.20141,-1.5105 0.0986,-0.28096 0.41257,-0.12255 0.88212,0.44545 0.72908,0.88195 0.72922,0.88194 1.81281,-0.15193 1.08359,-1.03386 1.0835,-1.03369 2.00194,-0.17621 0.91845,0.85747 0.91815,0.8572 1.854145,-0.2465 0.78201,-0.92211 1.04102,-1.03802 1.57408,-0.70538 0.51388,0.32067 0.7363,0.2659 1.14256,-0.28112 0.44253,-0.59588 0.61023,-0.62269 1.3653,-0.21859 0.47333,0.25331 1.30813,0.37374 1.855701,0.26768 0.60312,-0.11681 1.21251,0.001 1.54512,0.29972 1.26637,1.13587 2.00982,-0.16064 3.75636,-6.54895 0.29174,-1.06715 0.75185,-2.64293 1.02268,-3.50211 0.27082,-0.85918 0.49246,-1.82759 0.49246,-2.15181 0,-0.63695 6.49615,-1.99513 11.32231,-2.3673 0.5714,-0.0441 1.00297,-0.0763 1.34152,-0.0827 z m -15.13861,2.1208 c 0.35022,0.0502 0.32129,0.56799 -0.0196,1.80248 -0.23314,0.8442 -0.46373,2.72541 -0.51263,4.18062 -0.13421,3.99681 -0.93448,6.43752 -1.91306,5.83272 -0.26269,-0.16237 -0.33673,-1.15364 -0.21962,-2.95021 0.17739,-2.72132 0.13447,-2.66648 -0.755,0.9648 -0.4144,1.6918 -1.22532,2.11958 -2.542481,1.34152 -1.01377,-0.59885 -1.06732,-0.59503 -1.73529,0.12196 -0.97772,1.04944 -1.19259,0.45048 -1.05627,-2.94143 0.0641,-1.59407 -0.0333,-2.97773 -0.21652,-3.07474 -0.18985,-0.10055 -0.38924,0.95147 -0.46354,2.44636 -0.19281,3.88011 -1.647615,6.57108 -2.616375,4.84001 -0.17965,-0.32101 -0.56399,-0.58342 -0.85421,-0.58342 -0.29022,0 -0.91771,0.39009 -1.39475,0.86713 -1.33343,1.33344 -1.86417,0.18669 -2.36213,-5.10615 -0.46497,-4.94231 -0.31416,-5.28598 2.32028,-5.28598 1.39365,0 1.39365,-3.5e-4 1.23196,3.79201 -0.16745,3.92764 -0.082,5.02709 0.39016,5.02709 0.15208,0 0.2768,-0.83344 0.27699,-1.85209 1.9e-4,-1.01864 0.11568,-3.08261 0.25683,-4.5868 0.27834,-2.96636 0.0705,-2.73024 2.842195,-3.23081 0.58209,-0.10512 1.4371,-0.29819 1.90014,-0.42943 0.83676,-0.23716 0.84041,-0.22622 0.60462,1.8433 -0.5651,4.95982 -0.63531,6.49211 -0.29818,6.49211 0.19164,0 0.45448,-0.83344 0.58447,-1.85208 0.82267,-6.44703 0.93368,-6.67441 3.485051,-7.15306 1.3243,-0.24843 1.32424,-0.2483 1.09141,1.73272 -0.29932,2.54675 0.0474,2.55758 0.57464,0.0181 0.22558,-1.08662 0.63695,-2.05073 0.92191,-2.16008 0.20345,-0.0781 0.3623,-0.11335 0.47904,-0.0966 z m 21.87722,1.41129 c 7.90079,0.0131 8.84661,1.6567 11.15642,19.38848 0.69506,5.33576 1.48578,11.28889 1.757,13.22916 0.47057,3.3663 1.00037,7.25206 2.59674,19.049999 0.39381,2.91042 0.96023,7.03827 1.25884,9.17257 0.29861,2.1343 0.85017,6.18244 1.22577,8.99583 0.3756,2.8134 1.00938,7.49619 1.40818,10.4066 2.38935,17.437332 2.4211,17.871072 1.56941,21.543392 -1.16154,5.00845 -2.8213,6.50283 -8.6248,7.76697 -5.07755,1.106 -5.60082,0.60829 -7.63415,-7.26158 -0.22439,-0.86846 -0.6544,-1.40351 -1.44953,-1.8035 -1.13029,-0.56869 -1.13054,-0.56858 0.008,-0.89504 1.3944,-0.39991 1.60938,-1.64457 0.31575,-1.8278 -0.74035,-0.10486 -0.76327,-0.15932 -0.23203,-0.54777 0.51672,-0.37784 0.53694,-0.62694 0.16175,-2.00039 -0.83268,-3.04817 -1.4006,-6.17354 -1.4056,-7.74216 -0.004,-1.17716 -0.0966,-1.45069 -0.35812,-1.05834 -0.37252,0.55882 -0.16366,4.56577 0.34933,6.70295 0.83848,3.49326 0.94547,3.175 -1.0666,3.175 -2.27899,0 -2.16112,0.51481 0.36174,1.5813 1.90256,0.80427 1.90248,0.80463 0.69349,1.0635 -2.82625,0.60517 -2.5392,1.87474 0.53434,2.36317 0.54996,0.0874 0.84426,0.76011 1.49293,3.41064 0.44441,1.81586 1.04911,3.78462 1.34359,4.37493 0.29449,0.59031 0.53536,1.12807 0.53536,1.19527 0,0.0666 -0.11906,0.0963 -0.26458,0.0646 -0.14552,-0.0317 -3.2018,-0.17063 -6.79132,-0.30851 -15.56288,-0.59781 -19.09574,-0.7475 -29.280381,-1.24127 -23.581105,-1.14328 -23.860405,-1.18577 -26.853655,-4.10879 -3.20544,-3.13023 -5.95467,-11.64371 -5.95467,-18.4397 0,-0.10625 2.46627,-0.36791 11.64166,-1.235072 14.61224,-1.38098 23.173545,-1.75113 38.629166,-1.66863 14.50471,0.0775 14.85446,0.12251 17.40927,2.216922 0.0678,0.0556 0.41056,1.75341 0.7612,3.77341 0.40944,2.35881 1.01342,4.41806 1.68878,5.75624 1.45715,2.8872 2.23893,5.69373 1.97611,7.09466 -0.11994,0.63937 -0.0735,1.16272 0.10335,1.16272 0.59906,0 1.16796,-0.84245 1.17926,-1.74615 0.0157,-1.25809 0.94141,-0.0583 1.25832,1.63091 0.26323,1.40315 0.73726,1.50871 1.20871,0.26872 0.3549,-0.93346 0.0682,-1.84868 -0.94568,-3.01481 -0.60744,-0.69869 2.29413,-1.26169 3.41375,-0.66249 0.45715,0.24463 0.73245,0.22653 0.9095,-0.0599 0.28286,-0.45768 -1.06224,-1.70791 -1.83761,-1.70791 -0.38565,0 -0.49797,-0.80827 -0.52607,-3.79253 -0.0666,-7.08396 -1.48212,-23.359682 -2.9533,-33.954522 -0.0943,-0.67909 -0.42908,-3.21927 -0.74363,-5.64461 -0.8044,-6.202309 -0.77676,-6.014669 -1.59267,-10.916649 -0.40548,-2.43619 -0.78614,-4.74651 -0.84594,-5.13457 -0.0598,-0.38805 -0.29988,-1.89653 -0.5333,-3.35173 -0.4794,-2.98879 -0.5459,-3.49725 -0.87333,-6.70244 -0.418,-4.09183 -0.46962,-4.71339 -0.69195,-8.29045 -0.12061,-1.94027 -0.28698,-3.84631 -0.36948,-4.2354 -0.62724,-2.95645 -0.27813,-5.78136 0.8294,-6.71328 0.60908,-0.51251 1.10743,-1.1561 1.10743,-1.42989 0,-0.7443 -0.97888,-0.60022 -1.41129,0.20774 -0.65982,1.23289 -1.02283,0.75957 -0.47904,-0.62477 0.39766,-1.01235 0.43338,-1.56616 0.14883,-2.31459 -0.50403,-1.32571 -1.08107,-0.86907 -1.08107,0.85577 0,1.27749 -0.0607,1.37025 -0.68213,1.03766 -0.95234,-0.50968 -2.93992,-0.47248 -2.7652,0.0517 0.0764,0.22917 0.63373,0.58635 1.23868,0.79375 1.50227,0.51502 1.40999,0.23871 1.65468,4.963 0.12059,2.32833 0.29906,5.58289 0.39636,7.23212 0.2918,4.94722 1.5283,16.20863 2.11098,19.22622 2.13437,11.053519 5.85455,42.322239 6.35879,53.446341 0.29483,6.50467 -1.71438,9.25615 -3.36776,4.61212 -0.45416,-1.27566 -1.05106,-2.66904 -1.32653,-3.09593 -0.81668,-1.26554 -1.58598,-5.8969 -2.74299,-16.509582 -0.42355,-3.88501 -0.58603,-5.47134 -0.69453,-6.78925 -0.0678,-0.82345 -0.20913,-1.93435 -0.31419,-2.4691 -0.10505,-0.53475 -0.28334,-2.16318 -0.39636,-3.61839 -0.11303,-1.4552 -0.26516,-3.20128 -0.33796,-3.88038 -0.13014,-1.21471 -0.338,-3.40805 -0.71831,-7.58455 -0.10601,-1.16417 -0.26615,-2.83104 -0.35605,-3.70417 -0.0899,-0.873119 -0.24809,-2.778119 -0.35191,-4.233329 -0.10383,-1.45521 -0.3419,-4.15431 -0.52865,-5.99757 -0.59246,-5.84773 -1.38539,-15.8419 -1.7632,-22.225 -0.45981,-7.76852 -0.8897,-11.17391 -1.80041,-14.25081 -0.85096,-2.875 -0.7436,-3.0258 2.15336,-3.021 z m -40.790786,1.71772 c 0.7974,0.0195 1.00651,1.33618 1.66191,6.20582 0.45417,3.37452 -0.68555,5.7256 -2.09445,4.32119 -0.35411,-0.35298 -0.56627,-0.27699 -1.06298,0.38034 -0.55612,0.73595 -0.6681,0.76341 -1.0821,0.26458 -0.61478,-0.74077 -1.05769,-0.70171 -1.9911,0.17518 -0.77882,0.73166 -0.77849,0.73166 -1.02164,-1.32292 -0.13373,-1.13001 -0.4693,-2.5309 -0.74569,-3.11298 -0.553,-1.16458 -0.55202,-1.11786 0.10335,3.65714 0.20258,1.47603 0.181,1.52393 -0.52193,1.14773 -0.83576,-0.44728 -1.69823,-0.22343 -1.98127,0.51418 -0.47064,1.22647 -2.86608,-0.22659 -3.53467,-2.14405 -0.27062,-0.77611 -0.96777,-2.72098 -1.54926,-4.3217 -0.58149,-1.60073 -1.03359,-2.91604 -1.00459,-2.92334 2.42364,-0.61143 2.67881,-0.48158 3.76928,1.9234 0.57931,1.27764 1.18124,2.32285 1.3379,2.32285 0.15667,0 0.5602,0.8733 0.89659,1.94045 0.3364,1.06716 0.67285,1.94045 0.74775,1.94045 0.30205,0 -0.34242,-2.81668 -1.28674,-5.62239 -0.55101,-1.63713 -1.00201,-3.01089 -1.00201,-3.05253 0,-0.17982 2.28228,-0.85008 2.8944,-0.85008 0.84374,0 2.23116,2.8998 2.80086,5.85443 0.45215,2.34498 1.01408,3.31265 0.99478,1.71255 -0.0163,-1.35104 -0.79441,-4.54972 -1.53221,-6.29832 -0.67631,-1.60287 -0.68254,-1.59086 0.92397,-1.85157 1.43838,-0.23341 1.40999,-0.29826 2.05104,4.63951 0.86,6.62427 1.19262,4.3648 0.48163,-3.27215 -0.12311,-1.32229 -0.035,-1.55678 0.7152,-1.89859 0.43481,-0.19812 0.76617,-0.33569 1.03198,-0.32918 z m -17.34261,3.23029 c 0.19814,0.003 0.42313,0.0179 0.67592,0.0434 1.03511,0.1046 1.15555,0.28902 2.46187,3.77393 1.55996,4.16158 1.84874,6.6928 0.68006,5.96295 -0.59521,-0.37172 -0.83572,-0.29717 -1.69499,0.52606 -1.36524,1.30799 -1.53582,1.25053 -3.18068,-1.06918 -0.79109,-1.11566 -2.48102,-3.29865 -3.75533,-4.85087 -2.00758,-2.44542 -2.2215,-2.83736 -1.60093,-2.93625 0.90515,-0.14424 1.56924,0.66811 3.91449,4.78834 1.61483,2.83701 2.42517,3.85061 2.42517,3.03444 0,-0.31667 -3.13768,-6.08952 -3.92379,-7.2192 -0.72045,-1.03532 -0.56843,-1.37149 0.62167,-1.37149 0.87866,0 3.6186,3.53655 5.08237,6.56032 0.63114,1.30376 1.39475,2.0529 1.39475,1.36839 0,-0.39015 -2.47994,-5.00293 -3.49901,-6.50865 -1.05186,-1.55415 -0.98861,-2.12157 0.39843,-2.10219 z"
       sodipodi:nodetypes="sssssssssssssssssssssssssssssssssscssssssssssssssssssccccccccsccccsccssssccssssscccccsccccsssssssssssssssssssssssssssssscssssssssssssssssssssssssssssssssssssscsssscsssssssssssssssssssssssssssscssssssscsssssssssscsssssssscsssssssssssssssssssscsssssssssssssssssssssssssssssss" /><text
       xml:space="preserve"
       style="font-style:normal;font-variant:normal;font-weight:normal;font-stretch:normal;font-size:22.6463px;line-height:35.8417px;font-family:'Ink Free';-inkscape-font-specification:'Ink Free';text-align:center;text-decoration-color:#000000;text-anchor:middle;fill:#000000;fill-opacity:1;stroke:#000000;stroke-width:1.497;stroke-linecap:round;stroke-linejoin:round;stroke-dasharray:none;stroke-opacity:1;stop-color:#000000"
       id="text671-3"><textPath
         xlink:href="#path723-7"
         startOffset="50%"
         id="textPath725-1"
         style="font-style:normal;font-variant:normal;font-weight:normal;font-stretch:normal;font-family:'Ink Free';-inkscape-font-specification:'Ink Free';fill:#000000;fill-opacity:1;stroke:#000000;stroke-width:1.497;stroke-dasharray:none;stroke-opacity:1">ABCL</textPath></text><path
       style="opacity:0.00336699;fill:#ffffff;stroke-width:0.666999;stroke-linecap:round;stroke-linejoin:round;stop-color:#000000"
       d="m 66.385364,83.167668 c 17.57193,-5.15825 58.831506,-5.15825 58.831506,-5.15825"
       id="path723-7" /></g></svg>
