<?xml version="1.0" encoding="UTF-8" standalone="no"?>
<!-- Created with Inkscape (http://www.inkscape.org/) -->

<svg
   width="95.111084mm"
   height="95.111115mm"
   viewBox="0 0 95.111084 95.111115"
   version="1.1"
   id="svg5"
   xml:space="preserve"
   xmlns:inkscape="http://www.inkscape.org/namespaces/inkscape"
   xmlns:sodipodi="http://sodipodi.sourceforge.net/DTD/sodipodi-0.dtd"
   xmlns:xlink="http://www.w3.org/1999/xlink"
   xmlns="http://www.w3.org/2000/svg"
   xmlns:svg="http://www.w3.org/2000/svg"><sodipodi:namedview
     id="namedview7"
     pagecolor="#ffffff"
     bordercolor="#000000"
     borderopacity="0.25"
     inkscape:showpageshadow="2"
     inkscape:pageopacity="0.0"
     inkscape:pagecheckerboard="0"
     inkscape:deskcolor="#d1d1d1"
     inkscape:document-units="mm"
     showgrid="false"
     inkscape:zoom="0.96362023"
     inkscape:cx="1709.6984"
     inkscape:cy="1525.4972"
     inkscape:window-width="1920"
     inkscape:window-height="1017"
     inkscape:window-x="1912"
     inkscape:window-y="-8"
     inkscape:window-maximized="1"
     inkscape:current-layer="layer1" /><defs
     id="defs2"><linearGradient
       inkscape:collect="always"
       id="linearGradient9978"><stop
         style="stop-color:#8f8f69;stop-opacity:1;"
         offset="0"
         id="stop9974" /><stop
         style="stop-color:#b8b89e;stop-opacity:1;"
         offset="1"
         id="stop9976" /></linearGradient><linearGradient
       inkscape:collect="always"
       id="linearGradient7600"><stop
         style="stop-color:#563b16;stop-opacity:1;"
         offset="0"
         id="stop7596" /><stop
         style="stop-color:#965403;stop-opacity:0;"
         offset="1"
         id="stop7598" /></linearGradient><linearGradient
       inkscape:collect="always"
       id="linearGradient6094"><stop
         style="stop-color:#ffffff;stop-opacity:1;"
         offset="0"
         id="stop6090" /><stop
         style="stop-color:#828256;stop-opacity:1;"
         offset="1"
         id="stop6092" /></linearGradient><linearGradient
       inkscape:collect="always"
       xlink:href="#linearGradient6094"
       id="linearGradient5534"
       x1="555.6405"
       y1="383.82339"
       x2="551.73346"
       y2="443.62216"
       gradientUnits="userSpaceOnUse" /><linearGradient
       inkscape:collect="always"
       xlink:href="#linearGradient7600"
       id="linearGradient7602"
       x1="547.22894"
       y1="431.42282"
       x2="549.3772"
       y2="379.39078"
       gradientUnits="userSpaceOnUse" /><linearGradient
       inkscape:collect="always"
       xlink:href="#linearGradient9978"
       id="linearGradient9980"
       x1="567.25623"
       y1="432.62054"
       x2="590.66388"
       y2="410.75821"
       gradientUnits="userSpaceOnUse" /></defs><g
     inkscape:label="Layer 1"
     inkscape:groupmode="layer"
     id="layer1"
     transform="translate(-511.19142,-351.81481)"><path
       style="fill:url(#linearGradient5534);fill-opacity:1;stroke-width:0.264583"
       d="m 560.97731,439.321 c -0.79615,-0.28248 -1.92724,-0.76445 -2.51355,-1.07104 -1.13583,-0.59397 -1.33606,-0.63455 -4.30328,-0.87219 -2.00243,-0.16037 -5.52525,-0.90778 -7.36659,-1.56291 -0.82027,-0.29185 -1.40783,-0.32406 -2.45128,-0.13441 -3.27481,0.59522 -6.68546,-0.87131 -10.24637,-4.40578 -6.48188,-6.43375 -11.70268,-18.60385 -12.20168,-28.44307 -0.21752,-4.28897 0.51758,-6.79351 2.71802,-9.26042 0.75685,-0.8485 0.85283,-1.16972 1.14634,-3.83646 0.45711,-4.15307 2.58284,-12.12173 4.83383,-18.12037 1.09519,-2.91859 1.1929,-3.074 2.46334,-3.91831 7.54529,-5.01445 19.94717,-7.63749 31.61771,-6.68728 6.2238,0.50674 11.00201,1.42013 16.00729,3.05991 8.54472,2.79934 15.15209,7.99313 17.60962,13.84221 1.18467,2.81959 1.35392,4.56384 0.91629,9.44259 -0.46784,5.21552 -1.14902,11.63034 -1.3503,12.71621 -0.0936,0.50472 0.0983,1.60157 0.50903,2.91042 1.1695,3.7266 1.31236,4.67649 0.95995,6.38288 -0.9498,4.59909 -6.07287,12.5343 -11.7097,18.13735 -4.77571,4.74711 -14.48948,10.40279 -20.57576,11.9799 -2.02901,0.52577 -4.30043,0.46612 -6.06291,-0.15923 z m -19.61916,-9.44075 c -4.88909,-5.85349 -8.15944,-11.81742 -10.68666,-19.48858 -1.66575,-5.05626 -3.69665,-14.92847 -3.1778,-15.44732 0.23193,-0.23193 0.65844,0.49994 0.66457,1.14037 0.009,0.9519 1.82141,8.32709 2.65546,10.80636 2.94817,8.76369 8.12531,19.14199 11.56894,23.19156 0.82347,0.96836 1.08488,1.5942 0.66145,1.58355 -0.10914,-0.003 -0.86782,-0.80642 -1.68596,-1.78594 z"
       id="path4203-2-3"
       sodipodi:nodetypes="sssssssssssssssssssssssscsscs" /><path
       id="path2188-0-8"
       style="fill:#766856;fill-opacity:1;stroke-width:0.264583"
       d="m 560.27418,360.8177 c -10.2953,-0.0659 -20.61586,2.4905 -27.21798,6.87814 -1.27044,0.8443 -1.36822,1.00003 -2.46341,3.91862 -2.25099,5.99863 -4.37671,13.96727 -4.83382,18.12034 -0.29351,2.66674 -0.38933,2.98796 -1.14618,3.83646 -2.20044,2.46691 -2.9357,4.97145 -2.71818,9.26041 0.499,9.83922 5.71996,22.00949 12.20184,28.44323 3.5609,3.53447 6.97159,5.00064 10.2464,4.40542 1.04345,-0.18965 1.63075,-0.1575 2.45101,0.13435 1.84134,0.65513 5.36405,1.40285 7.36648,1.56322 2.96722,0.23764 3.16778,0.27833 4.30361,0.87229 0.58631,0.30659 1.7174,0.78826 2.51354,1.07074 1.76248,0.62535 4.03368,0.68493 6.06268,0.15916 6.08628,-1.5771 15.8003,-7.23252 20.57601,-11.97963 5.63682,-5.60304 10.75956,-13.53831 11.70936,-18.13739 0.35241,-1.70639 0.20987,-2.65648 -0.95963,-6.38307 -0.41073,-1.30885 -0.60261,-2.4057 -0.50901,-2.91042 0.20128,-1.08587 0.88246,-7.50051 1.3503,-12.71602 0.43763,-4.87875 0.26793,-6.62325 -0.91674,-9.44283 -2.45752,-5.84908 -9.06455,-11.04272 -17.60926,-13.84205 -5.00527,-1.63978 -9.7835,-2.55303 -16.00729,-3.05977 -1.45882,-0.11877 -2.92897,-0.18178 -4.39973,-0.1912 z m 1.79524,2.03657 1.50068,0.0791 1.50017,0.0785 -0.0811,1.05834 c -0.0446,0.58208 -0.24669,1.71318 -0.44907,2.51354 -0.62117,2.45656 -0.79449,4.32195 -0.38913,4.18682 0.34961,-0.11654 1.55167,-5.42143 1.57097,-6.93291 l 0.0103,-0.76171 1.64435,0.18604 c 0.90445,0.10232 1.71644,0.23033 1.80454,0.28473 0.0881,0.0544 -0.17198,1.68267 -0.57774,3.61839 -0.85672,4.08703 -0.86554,4.18114 -0.40876,4.18114 0.22656,0 0.50262,-0.84289 0.80201,-2.4474 0.97024,-5.20018 0.97939,-5.22786 1.7384,-5.20536 0.37703,0.0112 1.11112,0.16 1.63091,0.33072 l 0.94464,0.31058 -0.72812,3.6928 c -0.40054,2.03116 -0.66961,3.78733 -0.59841,3.9026 0.36173,0.58529 0.6069,-0.11185 1.27537,-3.62665 0.79829,-4.19739 0.6812,-4.0426 2.67167,-3.54139 1.0002,0.25186 1.15417,0.37841 1.04594,0.8599 -0.20805,0.92543 -1.45521,7.10814 -1.45521,7.21403 0,0.0537 0.16896,0.0977 0.37568,0.0977 0.20672,0 0.44014,-0.32743 0.51884,-0.72761 0.0787,-0.40018 0.40447,-2.09682 0.72347,-3.77031 0.319,-1.67349 0.60061,-3.07192 0.62631,-3.10782 0.14949,-0.20899 2.78158,0.80312 2.77658,1.06764 -0.003,0.17626 -0.30059,1.80867 -0.66043,3.62768 -0.74466,3.76428 -0.78857,4.32119 -0.32814,4.16771 0.30717,-0.10239 0.46746,-0.79693 1.31206,-5.68906 0.19386,-1.12283 0.46193,-1.91823 0.64648,-1.91823 0.17341,0 0.84455,0.22657 1.49138,0.50384 l 1.17564,0.50437 -0.60824,2.94607 c -0.72281,3.50094 -0.86582,4.88149 -0.51676,4.98729 0.218,0.0661 0.81665,-2.45852 1.57458,-6.64145 l 0.18242,-1.00718 1.98902,1.07281 c 5.61121,3.02663 9.46795,7.57667 10.42107,12.29537 0.19886,0.98434 0.24968,2.40694 0.13798,3.83646 -0.32216,4.12263 -1.46606,15.06384 -1.61592,15.45435 -0.0809,0.21074 0.1526,1.2758 0.51883,2.36678 0.36624,1.09099 0.8069,2.75146 0.97978,3.6897 0.28503,1.54691 0.25998,1.8765 -0.2713,3.53673 -1.50834,4.71352 -6.63119,12.15991 -11.49645,16.71113 -4.30578,4.02783 -14.26808,9.64051 -18.81642,10.6009 h -5.2e-4 c -1.82471,0.38534 -2.86257,0.5306 -3.175,0.4439 -2.36067,-0.65492 -4.16402,-1.3385 -4.59714,-1.74201 -0.33154,-0.30888 -0.92698,-0.50443 -1.54306,-0.50643 -0.29794,-0.001 -0.55448,-0.01 -0.78186,-0.032 l -4.40025,-0.49351 c -0.0211,0 -0.0452,-0.006 -0.0708,-0.016 l -3.41633,-0.77773 c -0.031,0 -0.73038,-0.23188 -1.55391,-0.51521 -1.20387,-0.4142 -1.6576,-0.45917 -2.31511,-0.22996 -1.2471,0.43474 -3.7712,0.0977 -5.46116,-0.72916 -3.05267,-1.49354 -7.0506,-6.10238 -9.84488,-11.34918 -3.40535,-6.39417 -5.61196,-14.07006 -5.63066,-19.58795 -0.0115,-3.38038 0.53337,-5.09296 2.15542,-6.77581 l 1.27951,-1.32757 0.32039,-2.95951 c 0.3666,-3.38459 2.10099,-10.45869 3.82302,-15.59388 1.76561,-5.26507 1.79334,-5.3157 3.5047,-6.38617 0.83124,-0.51994 1.54128,-0.91542 1.57768,-0.87902 0.0364,0.0364 -0.21867,1.60713 -0.56637,3.49075 -0.3477,1.88361 -0.57628,3.48083 -0.50798,3.54913 0.33359,0.3336 0.66827,-0.67419 1.32653,-3.99459 l 0.71882,-3.6251 1.02474,-0.40979 c 0.56367,-0.22554 1.06473,-0.41031 1.11363,-0.41031 0.0781,0 -0.39488,2.55409 -1.11518,6.01927 -0.1766,0.84948 -0.15251,1.12448 0.0982,1.12448 0.44205,0 0.47901,-0.12561 1.21078,-4.07572 0.63108,-3.40662 0.63471,-3.41534 1.51722,-3.78427 0.48648,-0.20338 0.96887,-0.3339 1.07228,-0.2899 0.1034,0.044 -0.12341,1.66204 -0.50436,3.59564 -0.59336,3.01171 -0.63414,3.50472 -0.28525,3.43752 0.2901,-0.0559 0.54348,-0.80077 0.88057,-2.58951 0.26028,-1.38114 0.52187,-2.7496 0.58187,-3.04064 0.06,-0.29104 0.11788,-0.78593 0.12868,-1.09967 0.015,-0.43604 0.31083,-0.66937 1.25522,-0.99116 0.67953,-0.23156 1.28355,-0.37267 1.34255,-0.31367 0.059,0.059 -0.20447,1.68033 -0.58549,3.6034 -0.38101,1.92306 -0.62566,3.56324 -0.54416,3.64474 0.35032,0.35032 0.66425,-0.52997 1.19166,-3.34037 0.76889,-4.09719 0.78459,-4.12816 2.23552,-4.46019 0.67241,-0.15391 1.2619,-0.20649 1.31,-0.11679 0.0877,0.16356 -1.01484,6.04205 -1.30431,6.9541 -0.10273,0.32367 -0.0222,0.48524 0.24236,0.48524 0.47919,0 0.51471,-0.1133 1.25574,-4.02353 0.32287,-1.70372 0.66334,-3.22112 0.75654,-3.37189 0.17018,-0.27536 2.69622,-0.85239 2.88871,-0.6599 0.0566,0.0566 -0.15858,1.44534 -0.478,3.08663 -0.31942,1.64129 -0.64334,3.31174 -0.71934,3.71192 -0.13045,0.68674 0.22727,1.01061 0.54622,0.49454 0.0793,-0.12832 0.45647,-1.84937 0.83819,-3.82457 l 0.69402,-3.59151 1.13068,-0.1695 c 1.99612,-0.29934 1.96974,-0.36127 1.29708,3.05614 -0.32941,1.67349 -0.66296,3.37013 -0.74156,3.77031 -0.0999,0.50855 -0.0341,0.72761 0.21859,0.72761 0.40669,0 0.40063,0.0211 1.23713,-4.43177 l 0.60875,-3.24115 h 1.6676 c 0.91719,0 1.66737,0.0297 1.66657,0.0661 -7.9e-4,0.0364 -0.29845,1.60875 -0.66146,3.49436 -0.75259,3.90919 -0.77724,4.19544 -0.3483,4.05246 0.17149,-0.0572 0.47111,-0.92993 0.66611,-1.93993 0.195,-1.00999 0.54032,-2.70526 0.76739,-3.76721 z m 28.85095,30.26224 c -0.24143,0.0229 -0.44423,0.95748 -1.27279,5.63273 -0.14257,0.80445 -0.16687,0.81527 -2.54868,1.15238 -1.3226,0.18719 -3.32889,0.60911 -4.45813,0.93741 l -2.0531,0.59686 -0.17209,-0.68678 c -0.30358,-1.20959 -1.93907,-4.53202 -2.23087,-4.53202 -0.35825,0 -0.37235,-0.14495 0.24753,2.51354 0.72571,3.11237 0.71246,3.20277 -0.555,3.84938 -0.59619,0.30415 -1.10962,0.51521 -1.14102,0.46871 -2.26173,-3.35514 -4.19741,-5.50479 -4.5067,-5.00435 -0.0972,0.15731 0.11782,0.67393 0.47801,1.14773 0.7669,1.00877 2.54971,4.11712 2.54971,4.44573 0,0.12449 -0.81002,0.75027 -1.79989,1.39061 -3.28808,2.12706 -6.5588,5.24872 -9.33224,8.90643 l -0.6811,0.89814 -1.60093,-0.97255 c -0.88047,-0.53486 -1.74952,-1.1516 -1.93115,-1.37046 -0.41982,-0.50584 -0.79427,-0.51104 -0.79427,-0.0109 0,0.21298 0.74414,1.00052 1.65365,1.74976 0.90949,0.74924 1.75278,1.45384 1.8743,1.56631 0.12152,0.11248 -0.0973,0.70956 -0.48679,1.32654 -1.27501,2.01975 -2.38831,4.87408 -3.73259,9.57202 -0.11365,0.39719 -0.31959,0.35993 -1.87275,-0.33693 -2.72679,-1.22342 -2.60877,-0.45438 0.14831,0.96635 l 1.42058,0.73226 -0.16381,1.34514 c -0.0901,0.73964 -0.24185,2.16424 -0.33745,3.16621 -0.14312,1.50045 -0.108,1.80027 0.19844,1.69861 0.25295,-0.0839 0.43705,-0.79447 0.57567,-2.21899 0.23148,-2.37881 0.99953,-5.63819 1.83348,-7.78351 0.73319,-1.88609 2.70967,-5.8656 3.60133,-7.2502 3.94756,-6.12992 9.85613,-11.39585 15.66055,-13.9578 3.99325,-1.76255 6.7437,-2.37278 11.17864,-2.47944 3.74518,-0.0901 4.88436,-0.33348 3.22616,-0.68936 -0.42831,-0.0919 -1.20949,-0.18124 -1.73581,-0.19844 l -0.95705,-0.031 0.031,-3.21582 c 0.0207,-2.15481 -0.0667,-3.24943 -0.26458,-3.31763 -0.0166,-0.006 -0.0325,-0.008 -0.0486,-0.007 z m -45.49955,0.73173 c -0.0455,7e-5 -0.0955,0.003 -0.14934,0.006 0.0863,-0.006 0.15861,-0.007 0.22376,-0.002 -0.0243,-0.002 -0.0472,-0.004 -0.0744,-0.004 z m 0.10697,0.006 c 0.0288,0.003 0.0566,0.007 0.0811,0.014 -0.0246,-0.007 -0.0522,-0.0108 -0.0811,-0.014 z m 0.0863,0.0155 c 0.0273,0.008 0.0519,0.0178 0.0739,0.031 -0.0219,-0.0131 -0.0467,-0.0232 -0.0739,-0.031 z m 0.0739,0.031 c 0.0211,0.0127 0.0394,0.0286 0.0558,0.047 -0.0164,-0.0185 -0.0347,-0.0344 -0.0558,-0.047 z m -1.11828,0.0155 c -0.0951,0.0112 -0.1775,0.0245 -0.2496,0.0429 0.0721,-0.0184 0.15448,-0.0317 0.2496,-0.0429 z m 1.18081,0.0387 c 0.0148,0.018 0.0274,0.0392 0.0382,0.063 -0.0109,-0.0238 -0.0235,-0.0451 -0.0382,-0.063 z m 0.045,0.0791 c 0.01,0.0243 0.0175,0.0516 0.0238,0.0822 -0.006,-0.0306 -0.014,-0.0578 -0.0238,-0.0822 z m 1.74976,0.0703 c -0.0705,-1.8e-4 -0.13437,0.002 -0.19224,0.01 0.0579,-0.008 0.12165,-0.01 0.19224,-0.01 z m 0.0367,5.2e-4 c 0.14279,0.001 0.27029,0.005 0.38292,0.0165 -0.11273,-0.0111 -0.24003,-0.0152 -0.38292,-0.0165 z m -1.75855,0.0351 c 0.006,0.0339 0.0104,0.07 0.0124,0.11162 -0.002,-0.0415 -0.007,-0.0778 -0.0124,-0.11162 z m 0.0124,0.11162 c 0.004,0.0877 -10e-4,0.19848 -0.0124,0.32556 0.0109,-0.12672 0.0167,-0.238 0.0124,-0.32556 z m 2.33423,-0.0982 c 0.0436,0.0102 0.0843,0.0225 0.12195,0.0372 -0.0376,-0.0146 -0.0785,-0.0271 -0.12195,-0.0372 z m 0.13901,0.0439 c 0.0415,0.0174 0.0799,0.0376 0.1142,0.062 -0.0344,-0.0245 -0.0725,-0.0445 -0.1142,-0.062 z m 0.1142,0.062 c 0.0349,0.0249 0.0658,0.054 0.0935,0.0873 -0.0277,-0.0333 -0.0587,-0.0625 -0.0935,-0.0873 z m -4.54132,0.091 c -0.0328,0.0779 -0.0628,0.17027 -0.0925,0.2806 0.0297,-0.11035 0.0597,-0.20266 0.0925,-0.2806 z m 4.64106,0.004 c 0.0273,0.0342 0.0514,0.0727 0.0718,0.11679 -0.0204,-0.0442 -0.0444,-0.0825 -0.0718,-0.11679 z m 0.0718,0.11679 c 0.0211,0.0457 0.0387,0.0969 0.0527,0.15451 -0.014,-0.0576 -0.0316,-0.10886 -0.0527,-0.15451 z m 0.0527,0.15451 c 0.0138,0.057 0.0238,0.12017 0.031,0.19017 -0.007,-0.0698 -0.0172,-0.1333 -0.031,-0.19017 z m -1.74305,-0.1142 c -0.037,0.091 -0.072,0.20267 -0.10697,0.33796 0.0349,-0.135 0.0701,-0.24701 0.10697,-0.33796 z m -1.0852,0.11834 c -0.0116,0.11917 -0.0307,0.26102 -0.0532,0.41754 0.0222,-0.15435 0.0418,-0.29968 0.0532,-0.41754 z m 0.97513,0.23099 c -0.0347,0.13596 -0.0692,0.29525 -0.10542,0.48369 0.0362,-0.18849 0.0707,-0.3477 0.10542,-0.48369 z m -0.10542,0.48369 c -0.0677,0.35218 -0.14308,0.81807 -0.23306,1.39578 0.09,-0.57798 0.16534,-1.04346 0.23306,-1.39578 z m -19.10012,-0.44441 c -0.0339,9.3e-4 -0.0661,0.0149 -0.0951,0.0439 -0.51885,0.51885 1.51184,10.39087 3.17758,15.44712 2.52722,7.67115 5.79761,13.63525 10.68669,19.48873 0.81814,0.97952 1.57706,1.78294 1.6862,1.78594 0.42343,0.0106 0.16201,-0.61501 -0.66146,-1.58337 -3.44362,-4.04956 -8.62063,-14.42818 -11.5688,-23.19186 -0.83405,-2.47927 -2.64665,-9.85416 -2.65565,-10.80606 -0.005,-0.56038 -0.33238,-1.19096 -0.56947,-1.18442 z m 18.13687,0.40927 c -0.0575,0.37022 -0.12819,0.79046 -0.22531,1.37046 0.096,-0.57311 0.16798,-1.00244 0.22531,-1.37046 z m -2.13062,0.22221 c -0.0554,0.28086 -0.10873,0.58403 -0.15968,0.90744 0.051,-0.32341 0.10425,-0.62658 0.15968,-0.90744 z m -0.15968,0.90744 c -0.051,0.32341 -0.0994,0.66717 -0.14572,1.02784 0.0463,-0.36066 0.0948,-0.70443 0.14572,-1.02784 z m -0.14572,1.02784 c -0.0463,0.36067 -0.0903,0.73856 -0.13178,1.1312 0.0415,-0.39263 0.0855,-0.77053 0.13178,-1.1312 z m 5.37021,-1.80247 c -0.0221,0.23835 -0.0556,0.51296 -0.0987,0.82941 0.0431,-0.31645 0.0766,-0.59106 0.0987,-0.82941 z m -2.22725,1.2237 c -0.17788,1.149 -0.32503,2.3193 -0.44184,3.50469 0.11679,-1.18522 0.26399,-2.35584 0.44184,-3.50469 z m -0.44184,3.50469 c -0.11698,1.18724 -0.20352,2.38975 -0.25993,3.6003 0.0564,-1.21071 0.14293,-2.4129 0.25993,-3.6003 z m -0.25993,3.60754 c -0.0281,0.60435 -0.0489,1.2108 -0.062,1.81849 0.0131,-0.60768 0.0339,-1.21415 0.062,-1.81849 z m -0.062,1.82159 c -0.0131,0.60907 -0.0189,1.21909 -0.017,1.82986 -0.002,-0.61076 0.004,-1.22079 0.017,-1.82986 z m 44.98382,0.18448 c -3.68403,0 -9.5565,2.86232 -13.74438,6.69934 -2.66913,2.4455 -8.59081,10.05478 -11.24738,14.45286 -1.34076,2.21969 -3.09459,5.92753 -3.10059,6.55619 -0.007,0.70032 4.56907,-0.79529 7.85327,-2.56677 7.48527,-4.03749 15.19903,-11.21445 18.97145,-17.65112 1.11601,-1.90418 2.27635,-5.24001 2.27635,-6.54482 0,-0.91893 -0.0286,-0.94568 -1.00872,-0.94568 z m -45.00087,1.6459 c 0.002,0.61094 0.0112,1.22249 0.0279,1.83348 -0.0167,-0.61098 -0.0261,-1.22254 -0.0279,-1.83348 z m -2.97605,0.43873 c -0.009,1.40477 0.009,2.77464 0.0563,4.03852 -0.0476,-1.26387 -0.0656,-2.63376 -0.0563,-4.03852 z m 0.0563,4.03852 c 0.0159,0.42111 0.0349,0.83086 0.0574,1.22576 -0.0225,-0.39505 -0.0415,-0.80448 -0.0574,-1.22576 z m 2.94762,-2.64325 c 0.0167,0.61098 0.0408,1.22152 0.0723,1.83089 -0.0315,-0.60937 -0.0556,-1.21991 -0.0723,-1.83089 z m 0.0723,1.83141 c 0.0945,1.82847 0.25549,3.646 0.48162,5.43016 -0.22615,-1.78414 -0.38708,-3.60171 -0.48162,-5.43016 z m -2.96261,2.03812 c 0.045,0.7901 0.1036,1.52217 0.17621,2.17557 -0.0726,-0.65325 -0.1312,-1.38568 -0.17621,-2.17557 z m 0.17621,2.17557 c 0.13889,1.24979 0.30545,2.45709 0.50075,3.62459 -0.19528,-1.16752 -0.36186,-2.3748 -0.50075,-3.62459 z m 0.50075,3.62459 c 0.1302,0.77834 0.2731,1.53883 0.42891,2.28255 -0.1558,-0.74373 -0.29872,-1.50421 -0.42891,-2.28255 z m 0.42891,2.28255 c 0.0779,0.37186 0.159,0.73979 0.2434,1.10329 -0.0844,-0.3635 -0.1655,-0.73143 -0.2434,-1.10329 z m 0.2434,1.10329 c 0.0844,0.3635 0.1721,0.72264 0.26303,1.07797 -0.0909,-0.35534 -0.17864,-0.71447 -0.26303,-1.07797 z m 0.26303,1.07797 c 0.0909,0.35533 0.18514,0.70684 0.28267,1.0542 -0.0975,-0.34736 -0.19174,-0.69886 -0.28267,-1.0542 z m 0.28267,1.0542 c 0.0975,0.34735 0.19864,0.69085 0.30283,1.03043 -0.10418,-0.33959 -0.2053,-0.68307 -0.30283,-1.03043 z m 0.30283,1.03043 c 0.10418,0.33958 0.21157,0.67518 0.32246,1.00717 -0.11088,-0.332 -0.21829,-0.66759 -0.32246,-1.00717 z m 0.32246,1.00717 c 0.11089,0.332 0.22496,0.66035 0.34261,0.98495 -0.11764,-0.32461 -0.23173,-0.65295 -0.34261,-0.98495 z m 0.34261,0.98495 c 0.11765,0.32461 0.23882,0.64532 0.36329,0.96274 -0.12446,-0.31742 -0.24565,-0.63812 -0.36329,-0.96274 z m 0.36329,0.96274 c 0.12446,0.31741 0.2521,0.63164 0.38344,0.94206 -0.13133,-0.31042 -0.25899,-0.62464 -0.38344,-0.94206 z m 0.38344,0.94206 c 0.13133,0.31041 0.26637,0.61726 0.40462,0.92087 -0.13825,-0.30362 -0.2733,-0.61045 -0.40462,-0.92087 z m 0.40462,0.92087 c 0.13826,0.30362 0.28006,0.60372 0.4253,0.90072 -0.14523,-0.29701 -0.28704,-0.5971 -0.4253,-0.90072 z m 0.4253,0.90072 c 0.14524,0.29701 0.2937,0.59101 0.44597,0.8816 -0.15227,-0.29059 -0.30074,-0.58459 -0.44597,-0.8816 z m -2.1022,-15.34738 c 0.009,0.0786 0.0174,0.15511 0.0264,0.23306 -0.009,-0.0775 -0.0176,-0.15497 -0.0264,-0.23306 z m 1.10691,0.67282 c 0.15076,1.18938 0.33059,2.36398 0.53899,3.5171 -0.20841,-1.15311 -0.38822,-2.32773 -0.53899,-3.5171 z m -0.70073,2.43086 c 0.006,0.041 0.0127,0.0817 0.0191,0.12196 -0.006,-0.0401 -0.0128,-0.0811 -0.0191,-0.12196 z m 1.23972,1.08676 c 0.31261,1.72976 0.68978,3.41098 1.13016,5.02192 -0.4404,-1.61093 -0.81753,-3.29218 -1.13016,-5.02192 z m -1.0294,0.11834 c 0.002,0.0122 0.005,0.0298 0.007,0.0419 0.004,0.0184 0.009,0.0389 0.0124,0.0574 -0.004,-0.0188 -0.008,-0.0387 -0.0119,-0.0574 -0.003,-0.0129 -0.005,-0.0288 -0.008,-0.0419 z m 0.91054,3.66334 c 0.0108,0.0376 0.0216,0.0746 0.0326,0.11214 -0.0109,-0.0374 -0.0218,-0.0747 -0.0326,-0.11214 z m 1.24902,1.24075 c 0.23677,0.86608 0.52713,1.77201 0.84801,2.66599 -0.32085,-0.89399 -0.61122,-1.79991 -0.84801,-2.66599 z m 0.84801,2.66651 c 0.3209,0.89397 0.67238,1.77614 1.03198,2.59467 -0.35955,-0.81853 -0.71111,-1.70068 -1.03198,-2.59467 z m 1.03198,2.59519 c 0.17633,0.40134 0.35477,0.78666 0.53227,1.15135 -0.17757,-0.36486 -0.35587,-0.74979 -0.53227,-1.15135 z m -0.63045,0.19378 c 0.014,0.0277 0.0277,0.055 0.0418,0.0827 -0.014,-0.0276 -0.0279,-0.0551 -0.0418,-0.0827 z m 1.18132,0.99529 c 0.1783,0.36495 0.35581,0.70852 0.52968,1.02371 -0.17374,-0.31497 -0.35152,-0.65902 -0.52968,-1.02371 z m -1.9637,1.92081 c 0.10398,0.20879 0.19023,0.38549 0.24184,0.49816 -0.0512,-0.11161 -0.1392,-0.29209 -0.24184,-0.49816 z m 3.25303,0.3266 c 0.0786,0.10811 0.15561,0.20653 0.22996,0.29507 -0.0744,-0.0886 -0.15131,-0.18684 -0.22996,-0.29507 z" /><path
       id="path2289-7-9"
       style="fill:url(#linearGradient7602);fill-opacity:1;stroke-width:0.264583"
       d="m 545.27156,393.85442 c -0.10773,0.007 -0.23253,0.0197 -0.37568,0.0315 -0.985,0.0815 -0.99433,0.0937 -1.3007,1.6459 -0.88696,4.49372 -1.21033,14.77259 -0.62942,19.99981 0.74075,6.66551 2.27295,12.12365 4.70927,16.77313 0.58002,1.10689 1.02939,2.01229 0.99839,2.01229 l 3.48713,0.79375 c -0.49575,0 -2.27321,-2.72131 -3.45612,-5.29167 -1.06802,-2.32072 -2.34884,-6.39348 -2.95383,-9.39271 -0.54432,-2.6985 -1.17277,-9.11972 -1.17977,-12.05198 -0.007,-3.04744 0.4544,-8.8562 0.92966,-11.69437 0.44502,-2.65764 0.52518,-2.87608 -0.22893,-2.82567 z m 6.88899,41.2564 4.40025,0.49351 -0.002,-0.006 c -0.97706,-0.0992 -1.43033,-0.45888 -2.37247,-1.63504 -4.29963,-5.36767 -6.67232,-15.83253 -6.36912,-28.08924 0.0729,-2.94745 0.33255,-6.62421 0.58653,-8.29975 0.49181,-3.24455 0.4394,-3.46108 -0.84387,-3.47008 -0.65161,-0.005 -0.72161,0.16773 -1.12552,2.77399 -1.42844,9.21715 -0.88036,19.81772 1.46865,28.41016 0.94724,3.46489 2.74886,7.56677 3.95221,8.99686 0.49495,0.58821 0.5829,0.82528 0.30541,0.82528 z" /><path
       id="path2442-8-1"
       style="fill:url(#linearGradient9980);fill-opacity:1;stroke:none;stroke-width:0.365001;stroke-linecap:round;paint-order:stroke fill markers;stop-color:#000000"
       d="m 590.65277,406.00665 c -3.68402,0 -9.55701,2.86232 -13.74489,6.69933 -2.66913,2.4455 -8.5903,10.05478 -11.24686,14.45287 -1.34076,2.21968 -3.09459,5.92753 -3.10059,6.55618 -0.007,0.70032 4.56907,-0.79529 7.85327,-2.56676 7.48527,-4.0375 15.19902,-11.21446 18.97145,-17.65112 1.11601,-1.90419 2.27635,-5.24001 2.27635,-6.54482 0,-0.91893 -0.0286,-0.94568 -1.00873,-0.94568 z" /><rect
       style="opacity:0.0389105;fill:#aaa172;fill-opacity:0.01;stroke:#010100;stroke-width:0.365001;stroke-linecap:round;stroke-opacity:0.010395;paint-order:stroke fill markers;stop-color:#000000"
       id="rect14116-4"
       width="94.746117"
       height="94.746117"
       x="511.3739"
       y="351.99731" /></g></svg>
