<?xml version="1.0" encoding="UTF-8" standalone="no"?>
<!-- Created with Inkscape (http://www.inkscape.org/) -->

<svg
   width="74.654022mm"
   height="74.654022mm"
   viewBox="0 0 74.654022 74.654022"
   version="1.1"
   id="svg1"
   xml:space="preserve"
   xmlns="http://www.w3.org/2000/svg"
   xmlns:svg="http://www.w3.org/2000/svg"><defs
     id="defs1" /><g
     id="layer1"
     transform="translate(1862.7498,-1718.2042)"><g
       id="g4"><rect
         style="opacity:0.1;fill:#d9d9d9;fill-opacity:0.01;stroke:none;stroke-width:2;stroke-linecap:butt;stroke-linejoin:miter;stroke-dasharray:none;stroke-opacity:1"
         id="rect40-1-5-5-4"
         width="74.654022"
         height="74.654022"
         x="-1937.4038"
         y="1718.2042" /><path
         id="path8-2-3"
         style="fill:#dc7575;fill-opacity:1;stroke:none;stroke-width:0.367203;stroke-linecap:round;stroke-linejoin:round;stroke-dasharray:none;stroke-opacity:1"
         d="m -1899.8884,1732.7321 a 14.726314,14.726314 0 0 0 -14.7261,14.7266 v 6.4796 c -2.2471,0.3291 -3.9633,2.25 -3.9633,4.5912 v 19.6242 c 0,2.574 2.0721,4.6463 4.6462,4.6463 h 28.0865 c 2.574,0 4.6463,-2.0723 4.6463,-4.6463 v -19.6242 c 0,-2.3412 -1.7163,-4.2619 -3.9632,-4.5912 v -6.4796 a 14.726314,14.726314 0 0 0 -14.7264,-14.7266 z m 0,6.975 a 7.7514044,7.7514044 0 0 1 7.7515,7.7516 v 6.4243 h -15.5029 v -6.4243 a 7.7514044,7.7514044 0 0 1 7.7514,-7.7516 z" /><g
         id="path11-06-2"
         transform="matrix(0.23997664,0,0,0.23997664,-1782.1486,1703.7744)"
         style="fill:#8e3030;fill-opacity:1"><path
           style="color:#000000;fill:#8e3030;fill-opacity:1;stroke-linejoin:round;-inkscape-stroke:none"
           d="m -459.87631,238.30239 -61.50779,61.50778"
           id="path12-2-9" /><path
           id="path13-1-60"
           style="color:#000000;fill:#8e3030;fill-opacity:1;stroke-linejoin:round;-inkscape-stroke:none"
           d="m -513.60534,230.5234 -15.55668,15.55667 22.97535,22.97534 -22.97535,22.97586 15.55668,15.55667 22.97534,-22.97586 22.97586,22.97586 15.55667,-15.55667 -22.97586,-22.97534 22.97586,-22.97586 -15.55667,-15.55667 -22.97586,22.97534 z" /></g></g><g
       id="g3"><rect
         style="opacity:0.1;fill:#d9d9d9;fill-opacity:0.01;stroke:none;stroke-width:2;stroke-linecap:butt;stroke-linejoin:miter;stroke-dasharray:none;stroke-opacity:1"
         id="rect40-1-5-5"
         width="74.654022"
         height="74.654022"
         x="-1862.7498"
         y="1718.2042" /><path
         id="path8-8-4-5-0-2"
         style="fill:#8be284;fill-opacity:1;stroke-width:1.57722;stroke-linecap:round;stroke-linejoin:round"
         d="m -1825.4229,1727.2357 c -8.0606,0 -14.595,6.5347 -14.595,14.5954 v 13.0163 c -2.2272,0.3262 -3.9279,2.2296 -3.9279,4.5501 v 19.45 c 0,2.5512 2.0538,4.6049 4.6048,4.6049 h 27.8366 c 2.5512,0 4.6049,-2.0537 4.6049,-4.6049 v -2.8908 -16.5592 -0.081 c 0,-0.114 -0.011,-0.2264 -0.02,-0.3369 -0.2099,-2.3538 -2.1739,-4.1874 -4.5842,-4.1874 h -21.6018 v -12.9615 c 0,-4.2429 3.4395,-7.6827 7.6823,-7.6827 4.243,-10e-5 7.6827,3.4397 7.6827,7.6827 v 5.1822 h 0.1612 3.3755 3.376 v -5.178 c 0,-8.0608 -6.5348,-14.5955 -14.5954,-14.5955 z" /><g
         id="path11-0-0-8-0-4"
         transform="matrix(0.32399667,0,0,0.32399667,-1707.1581,1689.9617)"
         style="fill:#206a1a;fill-opacity:1"><path
           id="path13-5-9-0-3-8"
           style="color:#000000;fill:#206a1a;fill-opacity:1;stroke-width:0.745521;stroke-linejoin:round;-inkscape-stroke:none"
           d="m -390.71125,232.72848 -11.59782,11.59783 17.1286,17.1286 11.59782,11.59783 11.59784,-11.59744 34.2576,-34.25798 -11.59784,-11.59783 -34.2576,34.25759 z" /></g></g><g
       id="g10"><rect
         style="opacity:0.01;fill:#2d2d2d;fill-opacity:0.01;stroke:none;stroke-width:1.98995;stroke-linecap:butt;stroke-linejoin:round;stroke-dasharray:none;stroke-opacity:1"
         id="rect16-3-3-6-9-8-8"
         width="74.654106"
         height="74.654106"
         x="-1862.7499"
         y="1643.5502"
         ry="0"
         rx="0" /><path
         id="path8-8-4-5-3-8-1"
         style="fill:#1d6819;fill-opacity:1;stroke-width:1.57722;stroke-linecap:round;stroke-linejoin:round"
         d="m -1825.2342,1652.3929 c -8.0606,0 -14.5955,6.5346 -14.5955,14.5955 v 13.0162 c -2.2269,0.3264 -3.9279,2.2298 -3.9279,4.5501 v 19.4495 c 0,2.5513 2.0538,4.6054 4.6049,4.6054 h 27.837 c 2.5512,0 4.6049,-2.0542 4.6049,-4.6054 v -2.8903 -16.5592 -0.081 c 0,-0.114 -0.011,-0.2264 -0.02,-0.3369 -0.2099,-2.3538 -2.174,-4.1873 -4.5842,-4.1873 h -21.6018 v -12.9615 c 0,-4.243 3.4399,-7.6828 7.6827,-7.6828 4.243,-10e-5 7.6827,3.4397 7.6827,7.6828 v 5.1821 h 0.1613 3.3755 3.3755 v -5.1785 c 0,-8.0607 -6.5343,-14.595 -14.595,-14.595 z" /><g
         id="path11-0-0-8-6-6-9"
         transform="matrix(0.32399667,0,0,0.32399667,-1706.9697,1615.1189)"
         style="fill:#d34848;fill-opacity:1"><path
           id="path13-5-9-0-5-2-6"
           style="color:#000000;fill:#2fa925;fill-opacity:1;stroke-width:0.745521;stroke-linejoin:round;-inkscape-stroke:none"
           d="m -390.71125,232.72848 -11.59782,11.59783 17.1286,17.1286 11.59782,11.59783 11.59784,-11.59744 34.2576,-34.25798 -11.59784,-11.59783 -34.2576,34.25759 z" /></g></g></g></svg>
