<?xml version="1.0" encoding="UTF-8" standalone="no"?>
<!-- Created with Inkscape (http://www.inkscape.org/) -->

<svg
   width="74.654106mm"
   height="74.654106mm"
   viewBox="0 0 74.654106 74.654106"
   version="1.1"
   id="svg1"
   xml:space="preserve"
   xmlns="http://www.w3.org/2000/svg"
   xmlns:svg="http://www.w3.org/2000/svg"><defs
     id="defs1" /><g
     id="layer1"
     transform="translate(2087.0889,-1643.5502)"><g
       id="g8"><rect
         style="opacity:0.01;fill:#2d2d2d;fill-opacity:0.01;stroke:none;stroke-width:2;stroke-linecap:butt;stroke-linejoin:round;stroke-dasharray:none;stroke-opacity:0.972549"
         id="rect16-3-3-7-2-4"
         width="75.031059"
         height="75.031059"
         x="-2012.4348"
         y="1643.1732"
         ry="0"
         rx="0" /><path
         id="path8-2-1-8-2"
         style="fill:#acacac;fill-opacity:1;stroke:none;stroke-width:0.367203;stroke-linecap:round;stroke-linejoin:round;stroke-dasharray:none;stroke-opacity:1"
         d="m -1974.9196,1657.8897 a 14.726314,14.726314 0 0 0 -14.7261,14.7264 v 6.4798 c -2.2471,0.3291 -3.9633,2.2499 -3.9633,4.5911 v 19.6242 c 0,2.574 2.0721,4.6463 4.6462,4.6463 h 28.0865 c 2.574,0 4.6463,-2.0723 4.6463,-4.6463 v -19.6242 c 0,-2.3412 -1.7163,-4.2619 -3.9632,-4.5911 v -6.4798 a 14.726314,14.726314 0 0 0 -14.7264,-14.7264 z m 0,6.9748 a 7.7514044,7.7514044 0 0 1 7.7515,7.7516 v 6.4245 h -15.5029 v -6.4245 a 7.7514044,7.7514044 0 0 1 7.7514,-7.7516 z" /></g><g
       id="g7"><rect
         style="opacity:0.01;fill:#2d2d2d;fill-opacity:0.01;stroke:none;stroke-width:1.98995;stroke-linecap:butt;stroke-linejoin:round;stroke-dasharray:none;stroke-opacity:1"
         id="rect16-3-3-6-9-8-8-0"
         width="74.654106"
         height="74.654106"
         x="-2087.0889"
         y="1643.5502"
         ry="0"
         rx="0" /><path
         id="path8-8-4-5-3-8-1-7"
         style="fill:#acacac;fill-opacity:1;stroke-width:1.57722;stroke-linecap:round;stroke-linejoin:round"
         d="m -2049.5731,1652.3929 c -8.0606,0 -14.5955,6.5346 -14.5955,14.5955 v 13.0162 c -2.2269,0.3264 -3.9279,2.2298 -3.9279,4.5501 v 19.4495 c 0,2.5513 2.0538,4.6054 4.6049,4.6054 h 27.837 c 2.5512,0 4.6049,-2.0542 4.6049,-4.6054 v -2.8903 -16.5592 -0.081 c 0,-0.114 -0.011,-0.2264 -0.02,-0.3369 -0.2099,-2.3538 -2.174,-4.1873 -4.5842,-4.1873 h -21.6018 v -12.9615 c 0,-4.243 3.4399,-7.6828 7.6827,-7.6828 4.243,-10e-5 7.6827,3.4397 7.6827,7.6828 v 5.1821 h 0.1613 3.3755 3.3755 v -5.1785 c 0,-8.0607 -6.5343,-14.595 -14.595,-14.595 z" /></g></g></svg>
