<?xml version="1.0" encoding="UTF-8" standalone="no"?>
<!-- Created with Inkscape (http://www.inkscape.org/) -->

<svg
   width="75.031059mm"
   height="75.031059mm"
   viewBox="0 0 75.031059 75.031059"
   version="1.1"
   id="svg1"
   xml:space="preserve"
   xmlns="http://www.w3.org/2000/svg"
   xmlns:svg="http://www.w3.org/2000/svg"><defs
     id="defs1" /><g
     id="layer1"
     transform="translate(1263.6326,-1643.1731)"><g
       id="g66"><rect
         style="opacity:0.01;fill:#2d2d2d;fill-opacity:0.01;stroke:none;stroke-width:2;stroke-linecap:butt;stroke-linejoin:round;stroke-dasharray:none;stroke-opacity:0.972549"
         id="rect16-3-3-7-2-4-4"
         width="75.031059"
         height="75.031059"
         x="-1263.6326"
         y="1643.1731"
         ry="0"
         rx="0" /><path
         style="-inkscape-font-specification:Arial;fill:#ffffff;fill-opacity:1;stroke-width:34.9106;stroke-linejoin:bevel;stroke-opacity:0.972549"
         d="m -1236.3168,1663.2341 h -13.0735 v 34.9098 h 46.5464 v -7.2653 h -3.1571 l -0.1012,-0.081 c 1.0119,-0.8095 1.8079,-1.7472 2.388,-2.813 0.5802,-1.0659 0.8703,-2.2531 0.8703,-3.5618 0,-0.5667 -0.047,-1.0929 -0.1417,-1.5786 -0.094,-0.4857 -0.2361,-0.9444 -0.425,-1.3761 -0.1889,-0.4453 -0.4182,-0.8703 -0.6881,-1.275 -0.2833,-0.4183 -0.6071,-0.8433 -0.9714,-1.275 -0.5531,-0.6341 -1.113,-1.2547 -1.6797,-1.8618 -0.5667,-0.6071 -1.1603,-1.194 -1.7809,-1.7607 -0.4183,-0.3777 -0.8433,-0.7353 -1.275,-1.0726 -0.4317,-0.3507 -0.8432,-0.7217 -1.2344,-1.113 -0.4992,-0.4857 -0.9782,-0.9849 -1.4369,-1.4976 -0.4722,-0.5127 -0.9781,-0.9984 -1.5178,-1.4571 -2.1722,-1.8214 -4.513,-3.1841 -7.0225,-4.088 -2.5094,-0.9175 -5.1807,-1.3762 -8.014,-1.3762 -0.5801,-0.3373 -1.1603,-0.6003 -1.7405,-0.7892 -0.5936,-0.2024 -1.1872,-0.3508 -1.7809,-0.4452 -0.6071,-0.1079 -1.2209,-0.1687 -1.8416,-0.1822 -0.6341,-0.027 -1.2749,-0.041 -1.9225,-0.041 z"
         id="text45-3"
         aria-label="🚄" /><path
         style="-inkscape-font-specification:Arial;fill:#616161;stroke-width:34.9106;stroke-linejoin:bevel;stroke-opacity:0.972549"
         d="m 1236.3168,1663.2341 h 13.0735 v 34.9098 h -46.5464 v -7.2653 h 3.1571 l 0.1011,-0.081 q -1.5178,-1.2143 -2.388,-2.8131 -0.8702,-1.5987 -0.8702,-3.5618 0,-0.8499 0.1417,-1.5785 0.1416,-0.7285 0.4249,-1.3761 0.2834,-0.6679 0.6881,-1.275 0.425,-0.6274 0.9714,-1.275 0.8298,-0.9511 1.6797,-1.8618 0.85,-0.9107 1.7809,-1.7607 0.6274,-0.5667 1.275,-1.0726 0.6476,-0.5262 1.2345,-1.1131 0.7488,-0.7285 1.4369,-1.4975 0.7083,-0.7691 1.5178,-1.4571 3.2582,-2.7321 7.0224,-4.088 3.7642,-1.3762 8.0141,-1.3762 0.8702,-0.5059 1.7404,-0.7892 0.8905,-0.3036 1.7809,-0.4453 0.9107,-0.1619 1.8416,-0.1821 0.9512,-0.041 1.9226,-0.041 z m -24.7505,26.1874 h 34.93 v -17.4448 q -5.2213,0 -10.0985,1.2548 -4.8571,1.2345 -9.2891,3.5213 -4.4118,2.2868 -8.3379,5.5046 -3.9058,3.2178 -7.2045,7.1641 z m 34.93,5.8284 v -2.9142 h -24.7505 l 1.4571,-1.4571 h -13.0937 l -2.894,2.9142 h -1.4571 v 1.4571 z m -17.465,-28.373 q -2.3678,0 -4.6142,0.5869 -2.2261,0.5666 -4.2701,1.619 -2.0238,1.0321 -3.8249,2.5094 -1.7809,1.4774 -3.2785,3.2785 2.3678,0 4.5939,-0.5666 2.2464,-0.5869 4.2702,-1.619 2.044,-1.0524 3.8249,-2.5297 1.8011,-1.4774 3.2987,-3.2785 z m -20.359,16.7364 v 1.4369 h 2.9142 v -1.4369 z"
         id="text28-40-4-8-8-5-2-8-4"
         transform="scale(-1,1)"
         aria-label="🚄" /></g><g
       id="g67"><rect
         style="opacity:0.01;fill:#2d2d2d;fill-opacity:0.01;stroke:none;stroke-width:2;stroke-linecap:butt;stroke-linejoin:round;stroke-dasharray:none;stroke-opacity:0.972549"
         id="rect16-3-3-7-2-4-4-1"
         width="75.031059"
         height="75.031059"
         x="-1338.6636"
         y="1643.1731"
         ry="0"
         rx="0" /><path
         style="-inkscape-font-specification:Arial;fill:#ffffff;fill-opacity:1;stroke-width:34.9106;stroke-linejoin:bevel;stroke-opacity:0.972549"
         d="m -1317.5002,1676.3275 h -2.5499 c -0.6071,0 -1.1738,0.1147 -1.6999,0.344 -0.5262,0.2294 -0.9849,0.5465 -1.3762,0.9512 -0.4047,0.3913 -0.7218,0.85 -0.9512,1.3761 -0.2293,0.5262 -0.344,1.0929 -0.344,1.7 v 10.1795 h 6.0713 c 0.1619,0.4317 0.3845,0.823 0.6678,1.1738 0.2699,0.3643 0.5802,0.6746 0.9309,0.9309 0.3508,0.2563 0.7421,0.452 1.1738,0.5869 0.4317,0.1349 0.877,0.2023 1.3357,0.2023 0.9444,0 1.7876,-0.2631 2.5297,-0.7892 0.7285,-0.5127 1.2547,-1.2142 1.5785,-2.1047 h 16.5138 c 0.1619,0.4317 0.3846,0.823 0.6679,1.1738 0.2698,0.3643 0.5801,0.6746 0.9309,0.9309 0.3508,0.2563 0.7421,0.452 1.1738,0.5869 0.4317,0.1349 0.877,0.2023 1.3357,0.2023 0.9444,0 1.7876,-0.2631 2.5297,-0.7892 0.7285,-0.5127 1.2547,-1.2142 1.5785,-2.1047 h 7.5284 v -10.1795 c 0,-0.6071 -0.1147,-1.1738 -0.3441,-1.7 -0.2293,-0.5261 -0.5396,-0.9848 -0.9309,-1.3761 -0.4047,-0.4047 -0.8702,-0.7218 -1.3964,-0.9512 -0.5262,-0.2293 -1.0928,-0.344 -1.6999,-0.344 h -5.4642 c -0.7285,-1.4706 -1.4503,-2.9277 -2.1654,-4.3713 -0.7285,-1.4437 -1.4638,-2.894 -2.2059,-4.3511 h -21.047 c -0.7421,1.4571 -1.4706,2.9074 -2.1857,4.3511 -0.7285,1.4436 -1.4571,2.9007 -2.1857,4.3713 z"
         id="text44-4"
         aria-label="🚗" /><path
         style="-inkscape-font-specification:Arial;fill:#616161;stroke-width:34.9106;stroke-linejoin:bevel;stroke-opacity:0.972549"
         d="m 1317.5,1676.3275 h 2.55 q 0.9106,0 1.6999,0.344 0.7893,0.344 1.3762,0.9512 0.6071,0.5869 0.9511,1.3761 0.3441,0.7893 0.3441,1.7 v 10.1795 h -6.0713 q -0.2428,0.6476 -0.6678,1.1737 -0.4048,0.5465 -0.931,0.931 -0.5261,0.3845 -1.1737,0.5869 -0.6476,0.2023 -1.3357,0.2023 -1.4166,0 -2.5297,-0.7892 -1.0928,-0.7691 -1.5785,-2.1047 h -16.5139 q -0.2428,0.6476 -0.6678,1.1737 -0.4048,0.5465 -0.9309,0.931 -0.5262,0.3845 -1.1738,0.5869 -0.6476,0.2023 -1.3357,0.2023 -1.4166,0 -2.5297,-0.7892 -1.0928,-0.7691 -1.5785,-2.1047 h -7.5284 v -10.1795 q 0,-0.9107 0.344,-1.7 0.3441,-0.7892 0.931,-1.3761 0.6071,-0.6072 1.3964,-0.9512 0.7892,-0.344 1.6999,-0.344 h 5.4642 q 1.0928,-2.2059 2.1654,-4.3713 1.0928,-2.1655 2.2059,-4.3511 h 21.047 q 1.1131,2.1856 2.1857,4.3511 1.0928,2.1654 2.1856,4.3713 z m 2.55,4.3713 h 1.4571 v -0.081 q 0,-0.2631 -0.1215,-0.5059 -0.1214,-0.2631 -0.3238,-0.4452 -0.2023,-0.2024 -0.4654,-0.3036 -0.2429,-0.1214 -0.506,-0.1214 h -10.2199 v -7.2855 h 2.1856 l -0.7285,-1.4571 h -17.4448 l -0.7285,1.4571 h 6.5367 v 7.2855 h -5.8082 v 1.4571 h -1.4571 v -1.4571 h -10.1795 q -0.6071,0 -1.0321,0.425 -0.425,0.425 -0.425,1.0321 h 1.4571 v 2.894 h -1.4571 v 4.3713 h 4.6142 q 0.2226,-0.6476 0.6273,-1.1941 0.425,-0.5261 0.9714,-0.9106 0.5465,-0.3846 1.1738,-0.5869 0.6476,-0.2226 1.3357,-0.2226 0.6881,0 1.3154,0.2226 0.6476,0.2023 1.1941,0.5869 0.5464,0.3845 0.9511,0.9106 0.425,0.5465 0.6476,1.1941 h 16.4936 q 0.2429,-0.6476 0.6476,-1.1941 0.425,-0.5261 0.9512,-0.9106 0.5464,-0.3846 1.1738,-0.5869 0.6476,-0.2226 1.3559,-0.2226 0.6881,0 1.3154,0.2226 0.6476,0.2023 1.194,0.5869 0.5464,0.3845 0.9512,0.9106 0.425,0.5465 0.6476,1.1941 h 3.1571 v -4.3713 h -1.4571 z m -18.9019,-8.7426 h 7.2653 v 7.2855 h -7.2653 z m 13.0937,16.0079 q -0.6071,0 -1.0321,0.4249 -0.425,0.425 -0.425,1.0322 0,0.5869 0.425,1.0118 0.4452,0.4453 1.0321,0.4453 0.5869,0 1.0119,-0.4453 0.4452,-0.4249 0.4452,-1.0118 0,-0.6072 -0.425,-1.0322 -0.425,-0.4249 -1.0321,-0.4249 z m -24.7303,0 q -0.6071,0 -1.0321,0.4249 -0.425,0.425 -0.425,1.0322 0,0.5869 0.425,1.0118 0.4452,0.4453 1.0321,0.4453 0.5869,0 1.0119,-0.4453 0.4452,-0.4249 0.4452,-1.0118 0,-0.6072 -0.425,-1.0322 -0.425,-0.4249 -1.0321,-0.4249 z"
         id="text28-40-4-8-8-5-6-7"
         transform="scale(-1,1)"
         aria-label="🚗" /></g><g
       id="g60"><path
         style="-inkscape-font-specification:Arial;stroke-width:34.9106;stroke-linejoin:bevel;stroke-opacity:0.972549"
         d="m 1317.5,1751.3585 h 2.55 q 0.9106,0 1.6999,0.344 0.7893,0.3441 1.3762,0.9512 0.6071,0.5869 0.9511,1.3761 0.3441,0.7893 0.3441,1.7 v 10.1795 h -6.0713 q -0.2428,0.6476 -0.6678,1.1738 -0.4048,0.5464 -0.931,0.9309 -0.5261,0.3845 -1.1737,0.5869 -0.6476,0.2023 -1.3357,0.2023 -1.4166,0 -2.5297,-0.7892 -1.0928,-0.769 -1.5785,-2.1047 h -16.5139 q -0.2428,0.6476 -0.6678,1.1738 -0.4048,0.5464 -0.9309,0.9309 -0.5262,0.3845 -1.1738,0.5869 -0.6476,0.2023 -1.3357,0.2023 -1.4166,0 -2.5297,-0.7892 -1.0928,-0.769 -1.5785,-2.1047 h -7.5284 v -10.1795 q 0,-0.9107 0.344,-1.7 0.3441,-0.7892 0.931,-1.3761 0.6071,-0.6071 1.3964,-0.9512 0.7892,-0.344 1.6999,-0.344 h 5.4642 q 1.0928,-2.2059 2.1654,-4.3713 1.0928,-2.1655 2.2059,-4.3511 h 21.047 q 1.1131,2.1856 2.1857,4.3511 1.0928,2.1654 2.1856,4.3713 z m 2.55,4.3713 h 1.4571 v -0.081 q 0,-0.2631 -0.1215,-0.5059 -0.1214,-0.2631 -0.3238,-0.4452 -0.2023,-0.2024 -0.4654,-0.3036 -0.2429,-0.1214 -0.506,-0.1214 h -10.2199 v -7.2855 h 2.1856 l -0.7285,-1.4571 h -17.4448 l -0.7285,1.4571 h 6.5367 v 7.2855 h -5.8082 v 1.4571 h -1.4571 v -1.4571 h -10.1795 q -0.6071,0 -1.0321,0.425 -0.425,0.425 -0.425,1.0321 h 1.4571 v 2.894 h -1.4571 v 4.3713 h 4.6142 q 0.2226,-0.6476 0.6273,-1.194 0.425,-0.5262 0.9714,-0.9107 0.5465,-0.3846 1.1738,-0.5869 0.6476,-0.2226 1.3357,-0.2226 0.6881,0 1.3154,0.2226 0.6476,0.2023 1.1941,0.5869 0.5464,0.3845 0.9511,0.9107 0.425,0.5464 0.6476,1.194 h 16.4936 q 0.2429,-0.6476 0.6476,-1.194 0.425,-0.5262 0.9512,-0.9107 0.5464,-0.3846 1.1738,-0.5869 0.6476,-0.2226 1.3559,-0.2226 0.6881,0 1.3154,0.2226 0.6476,0.2023 1.194,0.5869 0.5464,0.3845 0.9512,0.9107 0.425,0.5464 0.6476,1.194 h 3.1571 v -4.3713 h -1.4571 z m -18.9019,-8.7426 h 7.2653 v 7.2855 h -7.2653 z m 13.0937,16.0079 q -0.6071,0 -1.0321,0.425 -0.425,0.4249 -0.425,1.0321 0,0.5869 0.425,1.0118 0.4452,0.4453 1.0321,0.4453 0.5869,0 1.0119,-0.4453 0.4452,-0.4249 0.4452,-1.0118 0,-0.6072 -0.425,-1.0321 -0.425,-0.425 -1.0321,-0.425 z m -24.7303,0 q -0.6071,0 -1.0321,0.425 -0.425,0.4249 -0.425,1.0321 0,0.5869 0.425,1.0118 0.4452,0.4453 1.0321,0.4453 0.5869,0 1.0119,-0.4453 0.4452,-0.4249 0.4452,-1.0118 0,-0.6072 -0.425,-1.0321 -0.425,-0.425 -1.0321,-0.425 z"
         id="text28-40-4-8-8-5-3"
         transform="scale(-1,1)"
         aria-label="🚗" /><rect
         style="opacity:0.01;fill:#2d2d2d;fill-opacity:0.01;stroke:none;stroke-width:2;stroke-linecap:butt;stroke-linejoin:round;stroke-dasharray:none;stroke-opacity:0.972549"
         id="rect16-3-3-7-2-4-4-1-0-6-8-7-1"
         width="75.031059"
         height="75.031059"
         x="-1338.6636"
         y="1718.2041"
         ry="0"
         rx="0" /></g><g
       id="g59"><path
         style="-inkscape-font-specification:Arial;stroke-width:34.9106;stroke-linejoin:bevel;stroke-opacity:0.972549"
         d="m 1236.3167,1738.2648 h 13.0734 v 34.9097 h -46.5463 v -7.2652 h 3.157 l 0.1012,-0.081 q -1.5178,-1.2143 -2.388,-2.813 -0.8702,-1.5988 -0.8702,-3.5618 0,-0.85 0.1416,-1.5786 0.1417,-0.7285 0.425,-1.3761 0.2834,-0.6678 0.6881,-1.275 0.425,-0.6273 0.9714,-1.2749 0.8297,-0.9512 1.6797,-1.8619 0.85,-0.9107 1.7809,-1.7607 0.6274,-0.5666 1.275,-1.0726 0.6476,-0.5261 1.2345,-1.113 0.7488,-0.7286 1.4368,-1.4976 0.7084,-0.769 1.5179,-1.4571 3.2582,-2.7321 7.0224,-4.088 3.7642,-1.3761 8.0141,-1.3761 0.8702,-0.506 1.7404,-0.7893 0.8904,-0.3036 1.7809,-0.4452 0.9107,-0.1619 1.8416,-0.1822 0.9512,-0.04 1.9226,-0.04 z m -24.7505,26.1873 h 34.93 v -17.4447 q -5.2213,0 -10.0986,1.2547 -4.857,1.2345 -9.289,3.5213 -4.4118,2.2869 -8.3379,5.5047 -3.9058,3.2177 -7.2045,7.164 z m 34.93,5.8285 v -2.9142 h -24.7506 l 1.4571,-1.4571 h -13.0936 l -2.894,2.9142 h -1.4571 v 1.4571 z m -17.465,-28.3731 q -2.3678,0 -4.6142,0.5869 -2.2261,0.5667 -4.2701,1.619 -2.0238,1.0321 -3.8249,2.5095 -1.7809,1.4773 -3.2785,3.2785 2.3678,0 4.5939,-0.5667 2.2464,-0.5869 4.2701,-1.619 2.044,-1.0524 3.8249,-2.5297 1.8012,-1.4773 3.2988,-3.2785 z m -20.359,16.7365 v 1.4368 h 2.9142 v -1.4368 z"
         id="text28-40-4-8-8-5-2-80"
         transform="scale(-1,1)"
         aria-label="🚄" /><rect
         style="opacity:0.01;fill:#2d2d2d;fill-opacity:0.01;stroke:none;stroke-width:2;stroke-linecap:butt;stroke-linejoin:round;stroke-dasharray:none;stroke-opacity:0.972549"
         id="rect16-3-3-7-2-4-4-1-0-6-8-7-87"
         width="75.031059"
         height="75.031059"
         x="-1263.6326"
         y="1718.2041"
         ry="0"
         rx="0" /></g></g></svg>
