<?xml version="1.0" encoding="UTF-8" standalone="no"?>
<!-- Created with Inkscape (http://www.inkscape.org/) -->

<svg
   width="75.031059mm"
   height="75.031059mm"
   viewBox="0 0 75.031059 75.031059"
   version="1.1"
   id="svg1"
   xml:space="preserve"
   xmlns="http://www.w3.org/2000/svg"
   xmlns:svg="http://www.w3.org/2000/svg"><defs
     id="defs1" /><g
     id="layer1"
     transform="translate(1338.6636,-1718.2041)"><g
       id="g66"><rect
         style="opacity:0.01;fill:#2d2d2d;fill-opacity:0.01;stroke:none;stroke-width:2;stroke-linecap:butt;stroke-linejoin:round;stroke-dasharray:none;stroke-opacity:0.972549"
         id="rect16-3-3-7-2-4-4"
         width="75.031059"
         height="75.031059"
         x="-1263.6326"
         y="1643.1731"
         ry="0"
         rx="0" /><path
         style="-inkscape-font-specification:Arial;fill:#ffffff;fill-opacity:1;stroke-width:34.9106;stroke-linejoin:bevel;stroke-opacity:0.972549"
         d="m -1236.3168,1663.2341 h -13.0735 v 34.9098 h 46.5464 v -7.2653 h -3.1571 l -0.1012,-0.081 c 1.0119,-0.8095 1.8079,-1.7472 2.388,-2.813 0.5802,-1.0659 0.8703,-2.2531 0.8703,-3.5618 0,-0.5667 -0.047,-1.0929 -0.1417,-1.5786 -0.094,-0.4857 -0.2361,-0.9444 -0.425,-1.3761 -0.1889,-0.4453 -0.4182,-0.8703 -0.6881,-1.275 -0.2833,-0.4183 -0.6071,-0.8433 -0.9714,-1.275 -0.5531,-0.6341 -1.113,-1.2547 -1.6797,-1.8618 -0.5667,-0.6071 -1.1603,-1.194 -1.7809,-1.7607 -0.4183,-0.3777 -0.8433,-0.7353 -1.275,-1.0726 -0.4317,-0.3507 -0.8432,-0.7217 -1.2344,-1.113 -0.4992,-0.4857 -0.9782,-0.9849 -1.4369,-1.4976 -0.4722,-0.5127 -0.9781,-0.9984 -1.5178,-1.4571 -2.1722,-1.8214 -4.513,-3.1841 -7.0225,-4.088 -2.5094,-0.9175 -5.1807,-1.3762 -8.014,-1.3762 -0.5801,-0.3373 -1.1603,-0.6003 -1.7405,-0.7892 -0.5936,-0.2024 -1.1872,-0.3508 -1.7809,-0.4452 -0.6071,-0.1079 -1.2209,-0.1687 -1.8416,-0.1822 -0.6341,-0.027 -1.2749,-0.041 -1.9225,-0.041 z"
         id="text45-3"
         aria-label="ðŸš„" /><path
         style="-inkscape-font-specification:Arial;fill:#616161;stroke-width:34.9106;stroke-linejoin:bevel;stroke-opacity:0.972549"
         d="m 1236.3168,1663.2341 h 13.0735 v 34.9098 h -46.5464 v -7.2653 h 3.1571 l 0.1011,-0.081 q -1.5178,-1.2143 -2.388,-2.8131 -0.8702,-1.5987 -0.8702,-3.5618 0,-0.8499 0.1417,-1.5785 0.1416,-0.7285 0.4249,-1.3761 0.2834,-0.6679 0.6881,-1.275 0.425,-0.6274 0.9714,-1.275 0.8298,-0.9511 1.6797,-1.8618 0.85,-0.9107 1.7809,-1.7607 0.6274,-0.5667 1.275,-1.0726 0.6476,-0.5262 1.2345,-1.1131 0.7488,-0.7285 1.4369,-1.4975 0.7083,-0.7691 1.5178,-1.4571 3.2582,-2.7321 7.0224,-4.088 3.7642,-1.3762 8.0141,-1.3762 0.8702,-0.5059 1.7404,-0.7892 0.8905,-0.3036 1.7809,-0.4453 0.9107,-0.1619 1.8416,-0.1821 0.9512,-0.041 1.9226,-0.041 z m -24.7505,26.1874 h 34.93 v -17.4448 q -5.2213,0 -10.0985,1.2548 -4.8571,1.2345 -9.2891,3.5213 -4.4118,2.2868 -8.3379,5.5046 -3.9058,3.2178 -7.2045,7.1641 z m 34.93,5.8284 v -2.9142 h -24.7505 l 1.4571,-1.4571 h -13.0937 l -2.894,2.9142 h -1.4571 v 1.4571 z m -17.465,-28.373 q -2.3678,0 -4.6142,0.5869 -2.2261,0.5666 -4.2701,1.619 -2.0238,1.0321 -3.8249,2.5094 -1.7809,1.4774 -3.2785,3.2785 2.3678,0 4.5939,-0.5666 2.2464,-0.5869 4.2702,-1.619 2.044,-1.0524 3.8249,-2.5297 1.8011,-1.4774 3.2987,-3.2785 z m -20.359,16.7364 v 1.4369 h 2.9142 v -1.4369 z"
         id="text28-40-4-8-8-5-2-8-4"
         transform="scale(-1,1)"
         aria-label="ðŸš„" /></g><g
       id="g67"><rect
         style="opacity:0.01;fill:#2d2d2d;fill-opacity:0.01;stroke:none;stroke-width:2;stroke-linecap:butt;stroke-linejoin:round;stroke-dasharray:none;stroke-opacity:0.972549"
         id="rect16-3-3-7-2-4-4-1"
         width="75.031059"
         height="75.031059"
         x="-1338.6636"
         y="1643.1731"
         ry="0"
         rx="0" /><path
         style="-inkscape-font-specification:Arial;fill:#ffffff;fill-opacity:1;stroke-width:34.9106;stroke-linejoin:bevel;stroke-opacity:0.972549"
         d="m -1317.5002,1676.3275 h -2.5499 c -0.6071,0 -1.1738,0.1147 -1.6999,0.344 -0.5262,0.2294 -0.9849,0.5465 -1.3762,0.9512 -0.4047,0.3913 -0.7218,0.85 -0.9512,1.3761 -0.2293,0.5262 -0.344,1.0929 -0.344,1.7 v 10.1795 h 6.0713 c 0.1619,0.4317 0.3845,0.823 0.6678,1.1738 0.2699,0.3643 0.5802,0.6746 0.9309,0.9309 0.3508,0.2563 0.7421,0.452 1.1738,0.5869 0.4317,0.1349 0.877,0.2023 1.3357,0.2023 0.9444,0 1.7876,-0.2631 2.5297,-0.7892 0.7285,-0.5127 1.2547,-1.2142 1.5785,-2.1047 h 16.5138 c 0.1619,0.4317 0.3846,0.823 0.6679,1.1738 0.2698,0.3643 0.5801,0.6746 0.9309,0.9309 0.3508,0.2563 0.7421,0.452 1.1738,0.5869 0.4317,0.1349 0.877,0.2023 1.3357,0.2023 0.9444,0 1.7876,-0.2631 2.5297,-0.7892 0.7285,-0.5127 1.2547,-1.2142 1.5785,-2.1047 h 7.5284 v -10.1795 c 0,-0.6071 -0.1147,-1.1738 -0.3441,-1.7 -0.2293,-0.5261 -0.5396,-0.9848 -0.9309,-1.3761 -0.4047,-0.4047 -0.8702,-0.7218 -1.3964,-0.9512 -0.5262,-0.2293 -1.0928,-0.344 -1.6999,-0.344 h -5.4642 c -0.7285,-1.4706 -1.4503,-2.9277 -2.1654,-4.3713 -0.7285,-1.4437 -1.4638,-2.894 -2.2059,-4.3511 h -21.047 c -0.7421,1.4571 -1.4706,2.9074 -2.1857,4.3511 -0.7285,1.4436 -1.4571,2.9007 -2.1857,4.3713 z"
         id="text44-4"
         aria-label="ðŸš—" /><path
         style="-inkscape-font-specification:Arial;fill:#616161;stroke-width:34.9106;stroke-linejoin:bevel;stroke-opacity:0.972549"
         d="m 1317.5,1676.3275 h 2.55 q 0.9106,0 1.6999,0.344 0.7893,0.344 1.3762,0.9512 0.6071,0.5869 0.9511,1.3761 0.3441,0.7893 0.3441,1.7 v 10.1795 h -6.0713 q -0.2428,0.6476 -0.6678,1.1737 -0.4048,0.5465 -0.931,0.931 -0.5261,0.3845 -1.1737,0.5869 -0.6476,0.2023 -1.3357,0.2023 -1.4166,0 -2.5297,-0.7892 -1.0928,-0.7691 -1.5785,-2.1047 h -16.5139 q -0.2428,0.6476 -0.6678,1.1737 -0.4048,0.5465 -0.9309,0.931 -0.5262,0.3845 -1.1738,0.5869 -0.6476,0.2023 -1.3357,0.2023 -1.4166,0 -2.5297,-0.7892 -1.0928,-0.7691 -1.5785,-2.1047 h -7.5284 v -10.1795 q 0,-0.9107 0.344,-1.7 0.3441,-0.7892 0.931,-1.3761 0.6071,-0.6072 1.3964,-0.9512 0.7892,-0.344 1.6999,-0.344 h 5.4642 q 1.0928,-2.2059 2.1654,-4.3713 1.0928,-2.1655 2.2059,-4.3511 h 21.047 q 1.1131,2.1856 2.1857,4.3511 1.0928,2.1654 2.1856,4.3713 z m 2.55,4.3713 h 1.4571 v -0.081 q 0,-0.2631 -0.1215,-0.5059 -0.1214,-0.2631 -0.3238,-0.4452 -0.2023,-0.2024 -0.4654,-0.3036 -0.2429,-0.1214 -0.506,-0.1214 h -10.2199 v -7.2855 h 2.1856 l -0.7285,-1.4571 h -17.4448 l -0.7285,1.4571 h 6.5367 v 7.2855 h -5.8082 v 1.4571 h -1.4571 v -1.4571 h -10.1795 q -0.6071,0 -1.0321,0.425 -0.425,0.425 -0.425,1.0321 h 1.4571 v 2.894 h -1.4571 v 4.3713 h 4.6142 q 0.2226,-0.6476 0.6273,-1.1941 0.425,-0.5261 0.9714,-0.9106 0.5465,-0.3846 1.1738,-0.5869 0.6476,-0.2226 1.3357,-0.2226 0.6881,0 1.3154,0.2226 0.6476,0.2023 1.1941,0.5869 0.5464,0.3845 0.9511,0.9106 0.425,0.5465 0.6476,1.1941 h 16.4936 q 0.2429,-0.6476 0.6476,-1.1941 0.425,-0.5261 0.9512,-0.9106 0.5464,-0.3846 1.1738,-0.5869 0.6476,-0.2226 1.3559,-0.2226 0.6881,0 1.3154,0.2226 0.6476,0.2023 1.194,0.5869 0.5464,0.3845 0.9512,0.9106 0.425,0.5465 0.6476,1.1941 h 3.1571 v -4.3713 h -1.4571 z m -18.9019,-8.7426 h 7.2653 v 7.2855 h -7.2653 z m 13.0937,16.0079 q -0.6071,0 -1.0321,0.4249 -0.425,0.425 -0.425,1.0322 0,0.5869 0.425,1.0118 0.4452,0.4453 1.0321,0.4453 0.5869,0 1.0119,-0.4453 0.4452,-0.4249 0.4452,-1.0118 0,-0.6072 -0.425,-1.0322 -0.425,-0.4249 -1.0321,-0.4249 z m -24.7303,0 q -0.6071,0 -1.0321,0.4249 -0.425,0.425 -0.425,1.0322 0,0.5869 0.425,1.0118 0.4452,0.4453 1.0321,0.4453 0.5869,0 1.0119,-0.4453 0.4452,-0.4249 0.4452,-1.0118 0,-0.6072 -0.425,-1.0322 -0.425,-0.4249 -1.0321,-0.4249 z"
         id="text28-40-4-8-8-5-6-7"
         transform="scale(-1,1)"
         aria-label="ðŸš—" /></g><g
       id="g68"><rect
         style="opacity:0.01;fill:#2d2d2d;fill-opacity:0.01;stroke:none;stroke-width:2;stroke-linecap:butt;stroke-linejoin:round;stroke-dasharray:none;stroke-opacity:0.972549"
         id="rect16-3-3-7-2-4-4-1-0"
         width="75.031059"
         height="75.031059"
         x="-1413.6946"
         y="1643.1731"
         ry="0"
         rx="0" /><path
         style="-inkscape-font-specification:Arial;fill:#ffffff;fill-opacity:1;stroke-width:34.9106;stroke-linejoin:bevel;stroke-opacity:0.972549"
         d="m -1394.0792,1687.5089 v 11.6366 h 2.9142 c 1.0523,0 2.0237,-0.2563 2.9142,-0.769 0.8905,-0.5127 1.5988,-1.221 2.1249,-2.1249 h 5.8689 c 0.7016,0 1.3627,-0.1349 1.9833,-0.4048 0.6071,-0.2698 1.1468,-0.6341 1.619,-1.0928 0.4587,-0.4587 0.823,-0.9917 1.0928,-1.5988 0.2699,-0.6206 0.4048,-1.2817 0.4048,-1.9833 l 1.3559,0.3036 4.7963,11.4747 10.7259,-4.4725 -0.344,-0.8298 c -0.2699,-0.6611 -0.5397,-1.2952 -0.8095,-1.9023 -0.2833,-0.5936 -0.6206,-1.1265 -1.0119,-1.5987 -0.3913,-0.4857 -0.8702,-0.8905 -1.4369,-1.2143 -0.5666,-0.3373 -1.2749,-0.5599 -2.1249,-0.6678 -0.5127,-1.2413 -1.0186,-2.4825 -1.5178,-3.7237 -0.5127,-1.2413 -1.0457,-2.4758 -1.5988,-3.7035 -0.2293,-0.5262 -0.4992,-0.9444 -0.8095,-1.2547 -0.3238,-0.3238 -0.6678,-0.5936 -1.0321,-0.8095 -0.3778,-0.2294 -0.7826,-0.4318 -1.2143,-0.6072 -0.4317,-0.1754 -0.8837,-0.371 -1.3559,-0.5869 l 0.1417,-0.3845 c 0.6206,0.3373 1.3019,0.506 2.044,0.506 0.4182,0 0.8432,-0.061 1.2749,-0.1822 0.4183,-0.1349 0.8028,-0.3171 1.1536,-0.5464 l 4.3511,-2.9142 c 0.6071,-0.4047 1.086,-0.9309 1.4368,-1.5785 0.3373,-0.6476 0.506,-1.3357 0.506,-2.0643 0,-0.6206 -0.1147,-1.194 -0.3441,-1.7201 -0.2429,-0.5397 -0.5667,-0.9985 -0.9714,-1.3762 -0.4047,-0.3913 -0.8702,-0.6948 -1.3964,-0.9107 -0.5397,-0.2293 -1.1063,-0.344 -1.6999,-0.344 -0.095,0 -0.1822,0.01 -0.2631,0.02 -0.095,0 -0.1889,0.01 -0.2833,0.02 0.3103,-0.715 0.4924,-1.3963 0.5464,-2.0439 0.041,-0.6611 0.061,-1.3627 0.061,-2.1048 v -0.3845 c 0,-0.9983 -0.1956,-1.9292 -0.5869,-2.7927 -0.3913,-0.877 -0.9174,-1.6326 -1.5785,-2.2667 -0.6746,-0.6476 -1.4504,-1.1535 -2.3274,-1.5178 -0.8904,-0.3777 -1.8281,-0.5666 -2.813,-0.5666 -0.9849,0 -1.9158,0.1889 -2.7928,0.5666 -0.8769,0.3643 -1.6459,0.8702 -2.307,1.5178 -0.6611,0.6476 -1.1806,1.4099 -1.5583,2.2869 -0.3913,0.8635 -0.5869,1.7876 -0.5869,2.7725 v 1.1333 c 0,0.3508 0.014,0.6949 0.041,1.0322 0.013,0.3373 0.054,0.6813 0.1214,1.0321 -0.4587,0.1484 -0.8972,0.3238 -1.3155,0.5261 -0.4317,0.2024 -0.8297,0.4588 -1.194,0.7691 h -0.7083 c -0.2429,-0.013 -0.479,-0.02 -0.7083,-0.02 -0.5531,0 -1.0726,0.047 -1.5583,0.1417 -0.4992,0.095 -0.9849,0.2968 -1.4571,0.6071 l -4.3713,2.9142 c -0.6071,0.4048 -1.0793,0.931 -1.4166,1.5786 -0.3508,0.6341 -0.5262,1.3154 -0.5262,2.0439 0,0.6071 0.1147,1.1738 0.344,1.7 0.2294,0.5262 0.5397,0.9917 0.931,1.3964 0.3912,0.3913 0.8499,0.7016 1.3761,0.9309 0.5262,0.2294 1.0929,0.3441 1.7,0.3441 0.7015,0 1.3424,-0.1484 1.9225,-0.4453 l -1.5178,4.8166 h 2.5095 v 1.4368 z"
         id="text43-5"
         aria-label="ðŸƒ" /><path
         style="-inkscape-font-specification:Arial;fill:#616161;stroke-width:34.9106;stroke-linejoin:bevel;stroke-opacity:0.972549"
         d="m 1394.0792,1687.5089 v 11.6366 h -2.9142 q -1.5786,0 -2.9142,-0.769 -1.3357,-0.769 -2.125,-2.125 h -5.8689 q -1.0523,0 -1.9832,-0.4047 -0.9107,-0.4048 -1.619,-1.0928 -0.6881,-0.6881 -1.0929,-1.5988 -0.4047,-0.9309 -0.4047,-1.9833 l -1.3559,0.3036 -4.7963,11.4747 -10.7259,-4.4725 0.344,-0.8298 q 0.4047,-0.9916 0.8095,-1.9023 0.425,-0.8905 1.0119,-1.5988 0.5869,-0.7285 1.4368,-1.2142 0.85,-0.506 2.125,-0.6679 0.769,-1.8618 1.5178,-3.7237 0.769,-1.8618 1.5988,-3.7034 0.344,-0.7893 0.8095,-1.2548 0.4857,-0.4857 1.0321,-0.8095 0.5666,-0.344 1.2142,-0.6071 0.6476,-0.2631 1.356,-0.5869 l -0.1417,-0.3845 q -0.9309,0.5059 -2.044,0.5059 -0.6274,0 -1.275,-0.1821 -0.6273,-0.2024 -1.1535,-0.5464 l -4.3511,-2.9142 q -0.9107,-0.6071 -1.4368,-1.5785 -0.506,-0.9714 -0.506,-2.0643 0,-0.9309 0.3441,-1.7202 0.3642,-0.8095 0.9714,-1.3761 0.6071,-0.5869 1.3963,-0.9107 0.8095,-0.3441 1.7,-0.3441 0.1417,0 0.2631,0.02 0.1416,0 0.2833,0.02 -0.4655,-1.0726 -0.5464,-2.044 -0.061,-0.9916 -0.061,-2.1047 v -0.3845 q 0,-1.4976 0.5869,-2.7928 0.5869,-1.3154 1.5785,-2.2666 1.0119,-0.9714 2.3273,-1.5178 1.3357,-0.5666 2.813,-0.5666 1.4774,0 2.7928,0.5666 1.3155,0.5464 2.3071,1.5178 0.9916,0.9714 1.5583,2.2869 0.5869,1.2952 0.5869,2.7725 v 1.1333 q 0,0.5262 -0.04,1.0321 -0.02,0.506 -0.1214,1.0321 0.6881,0.2227 1.3154,0.5262 0.6476,0.3036 1.194,0.769 0.3441,0 0.7084,0 0.3642,-0.02 0.7083,-0.02 0.8297,0 1.5583,0.1417 0.7487,0.1416 1.4571,0.6071 l 4.3713,2.9142 q 0.9107,0.6071 1.4166,1.5785 0.5262,0.9512 0.5262,2.044 0,0.9107 -0.3441,1.7 -0.344,0.7892 -0.9309,1.3964 -0.5869,0.5869 -1.3761,0.9309 -0.7893,0.344 -1.7,0.344 -1.0523,0 -1.9226,-0.4452 l 1.5179,4.8166 h -2.5095 v 1.4368 z m -18.9221,-15.9876 q -0.5869,0 -1.1131,0.2428 -0.5262,0.2226 -0.9309,0.6274 -0.3845,0.3845 -0.6274,0.9107 -0.2226,0.5261 -0.2226,1.113 0,0.425 0.1012,0.8702 0.1214,0.4453 0.2833,0.8905 0.1619,0.425 0.3238,0.8702 0.1822,0.425 0.3238,0.8095 l 1.8619,5.3022 h 8.7426 l -1.8619,-5.8284 h -5.4236 v -5.8081 z m 14.5508,5.8081 q 0,-0.3642 -0.1619,-0.6273 -0.1417,-0.2834 -0.425,-0.5262 -0.3441,-0.2833 -0.7286,-0.5059 -0.3642,-0.2429 -0.7488,-0.4858 -0.7487,-0.4654 -1.4571,-0.9916 -0.7083,-0.5262 -1.4773,-0.9714 -0.2226,-0.1214 -0.425,-0.1821 -0.1821,-0.061 -0.425,-0.061 h -5.7879 v 2.8939 h 5.3832 q 0.2226,0.1619 0.5869,0.4453 0.3845,0.263 0.8297,0.5868 0.4655,0.3238 0.9512,0.6679 0.5059,0.3238 0.9714,0.6071 0.4654,0.2631 0.8499,0.4452 0.3846,0.1619 0.6072,0.1619 0.6071,0 1.0321,-0.425 0.425,-0.4249 0.425,-1.0321 z m -21.8161,-10.1795 q 0,0.9107 0.344,1.7 0.3441,0.7893 0.931,1.3964 0.5868,0.5869 1.3761,0.9309 0.7893,0.3441 1.7,0.3441 1.1535,0 2.1451,-0.5667 1.0119,-0.5666 1.5988,-1.5381 l -1.0321,-1.0118 q 0.2024,-0.2429 0.2024,-0.5262 v -0.7286 q 0,-0.2833 -0.2226,-0.5059 -0.2024,-0.2226 -0.4857,-0.2226 -0.3036,0 -0.5262,0.2226 -0.2024,0.2024 -0.2024,0.5059 l -1.4571,-1.4571 h -4.3713 z m 1.4571,11.6366 q 0.3036,0 0.6071,-0.1214 0.3238,-0.1417 0.6071,-0.3238 0.2834,-0.2024 0.5667,-0.4047 0.2833,-0.2227 0.5262,-0.3846 -0.2631,-0.7083 -0.5464,-1.4368 -0.2631,-0.7286 -0.3036,-1.4976 l -1.4571,0.9714 -3.5618,-2.3678 q -0.3643,-0.2428 -0.8095,-0.2428 -0.5869,0 -1.0321,0.4452 -0.425,0.425 -0.425,1.0119 0,0.769 0.6476,1.194 l 4.3713,2.9142 q 0.3643,0.2428 0.8095,0.2428 z m 21.8161,11.6366 h -4.3713 v 2.9142 h 1.4571 q 0,0.6072 0.2226,1.1333 0.2428,0.5262 0.6273,0.9107 0.4048,0.4048 0.931,0.6274 0.5261,0.2428 1.1333,0.2428 z m -22.0387,4.6951 -2.6916,-1.113 -0.5464,1.3356 q -0.5667,-0.2226 -1.1131,-0.2226 -0.9107,0 -1.6392,0.4655 -0.7083,0.4857 -1.0524,1.3357 l 5.363,2.2261 z"
         id="text28-40-4-8-8-2-0"
         transform="scale(-1,1)"
         aria-label="ðŸƒ" /></g><g
       id="g63"><g
         id="g61"><path
           style="-inkscape-font-specification:Arial;stroke-width:34.9106;stroke-linejoin:bevel;stroke-opacity:0.972549"
           d="m 1394.0792,1762.7462 v 11.6366 h -2.9142 q -1.5786,0 -2.9142,-0.769 -1.3357,-0.769 -2.125,-2.125 h -5.8689 q -1.0523,0 -1.9832,-0.4047 -0.9107,-0.4048 -1.619,-1.0928 -0.6881,-0.6881 -1.0929,-1.5988 -0.4047,-0.9309 -0.4047,-1.9833 l -1.3559,0.3036 -4.7963,11.4747 -10.7259,-4.4725 0.344,-0.8298 q 0.4047,-0.9916 0.8095,-1.9023 0.425,-0.8904 1.0119,-1.5988 0.5869,-0.7285 1.4368,-1.2142 0.85,-0.506 2.125,-0.6679 0.769,-1.8618 1.5178,-3.7237 0.769,-1.8618 1.5988,-3.7034 0.344,-0.7893 0.8095,-1.2548 0.4857,-0.4857 1.0321,-0.8095 0.5666,-0.344 1.2142,-0.6071 0.6476,-0.2631 1.356,-0.5869 l -0.1417,-0.3845 q -0.9309,0.5059 -2.044,0.5059 -0.6274,0 -1.275,-0.1821 -0.6273,-0.2024 -1.1535,-0.5464 l -4.3511,-2.9142 q -0.9107,-0.6071 -1.4368,-1.5785 -0.506,-0.9714 -0.506,-2.0643 0,-0.9309 0.3441,-1.7202 0.3642,-0.8095 0.9714,-1.3761 0.6071,-0.5869 1.3963,-0.9107 0.8095,-0.344 1.7,-0.344 0.1417,0 0.2631,0.02 0.1416,0 0.2833,0.02 -0.4655,-1.0726 -0.5464,-2.044 -0.061,-0.9916 -0.061,-2.1047 v -0.3845 q 0,-1.4976 0.5869,-2.7928 0.5869,-1.3154 1.5785,-2.2666 1.0119,-0.9714 2.3273,-1.5178 1.3357,-0.5666 2.813,-0.5666 1.4774,0 2.7928,0.5666 1.3155,0.5464 2.3071,1.5178 0.9916,0.9714 1.5583,2.2869 0.5869,1.2952 0.5869,2.7725 v 1.1333 q 0,0.5262 -0.04,1.0321 -0.02,0.506 -0.1214,1.0322 0.6881,0.2226 1.3154,0.5261 0.6476,0.3036 1.194,0.7691 0.3441,0 0.7084,0 0.3642,-0.02 0.7083,-0.02 0.8297,0 1.5583,0.1417 0.7487,0.1416 1.4571,0.6071 l 4.3713,2.9142 q 0.9107,0.6071 1.4166,1.5785 0.5262,0.9512 0.5262,2.044 0,0.9107 -0.3441,1.7 -0.344,0.7893 -0.9309,1.3964 -0.5869,0.5869 -1.3761,0.9309 -0.7893,0.344 -1.7,0.344 -1.0523,0 -1.9226,-0.4452 l 1.5179,4.8166 h -2.5095 v 1.4368 z m -18.9221,-15.9876 q -0.5869,0 -1.1131,0.2428 -0.5262,0.2226 -0.9309,0.6274 -0.3845,0.3845 -0.6274,0.9107 -0.2226,0.5261 -0.2226,1.113 0,0.425 0.1012,0.8702 0.1214,0.4453 0.2833,0.8905 0.1619,0.425 0.3238,0.8702 0.1822,0.425 0.3238,0.8095 l 1.8619,5.3022 h 8.7426 l -1.8619,-5.8284 h -5.4236 v -5.8081 z m 14.5508,5.8081 q 0,-0.3642 -0.1619,-0.6273 -0.1417,-0.2834 -0.425,-0.5262 -0.3441,-0.2833 -0.7286,-0.5059 -0.3642,-0.2429 -0.7488,-0.4857 -0.7487,-0.4655 -1.4571,-0.9917 -0.7083,-0.5262 -1.4773,-0.9714 -0.2226,-0.1214 -0.425,-0.1821 -0.1821,-0.061 -0.425,-0.061 h -5.7879 v 2.8939 h 5.3832 q 0.2226,0.1619 0.5869,0.4453 0.3845,0.263 0.8297,0.5868 0.4655,0.3238 0.9512,0.6679 0.5059,0.3238 0.9714,0.6071 0.4654,0.2631 0.8499,0.4452 0.3846,0.1619 0.6072,0.1619 0.6071,0 1.0321,-0.425 0.425,-0.4249 0.425,-1.0321 z m -21.8161,-10.1795 q 0,0.9107 0.344,1.7 0.3441,0.7893 0.931,1.3964 0.5868,0.5869 1.3761,0.9309 0.7893,0.3441 1.7,0.3441 1.1535,0 2.1451,-0.5667 1.0119,-0.5666 1.5988,-1.538 l -1.0321,-1.0119 q 0.2024,-0.2429 0.2024,-0.5262 v -0.7286 q 0,-0.2833 -0.2226,-0.5059 -0.2024,-0.2226 -0.4857,-0.2226 -0.3036,0 -0.5262,0.2226 -0.2024,0.2024 -0.2024,0.5059 l -1.4571,-1.4571 h -4.3713 z m 1.4571,11.6366 q 0.3036,0 0.6071,-0.1214 0.3238,-0.1417 0.6071,-0.3238 0.2834,-0.2024 0.5667,-0.4047 0.2833,-0.2227 0.5262,-0.3846 -0.2631,-0.7083 -0.5464,-1.4368 -0.2631,-0.7286 -0.3036,-1.4976 l -1.4571,0.9714 -3.5618,-2.3678 q -0.3643,-0.2428 -0.8095,-0.2428 -0.5869,0 -1.0321,0.4452 -0.425,0.425 -0.425,1.0119 0,0.769 0.6476,1.194 l 4.3713,2.9142 q 0.3643,0.2428 0.8095,0.2428 z m 21.8161,11.6366 h -4.3713 v 2.9142 h 1.4571 q 0,0.6072 0.2226,1.1333 0.2428,0.5262 0.6273,0.9107 0.4048,0.4048 0.931,0.6274 0.5261,0.2428 1.1333,0.2428 z m -22.0387,4.6951 -2.6916,-1.113 -0.5464,1.3357 q -0.5667,-0.2227 -1.1131,-0.2227 -0.9107,0 -1.6392,0.4655 -0.7083,0.4857 -1.0524,1.3357 l 5.363,2.2261 z"
           id="text28-40-4-8-8-57"
           transform="scale(-1,1)"
           aria-label="ðŸƒ" /></g><rect
         style="opacity:0.01;fill:#2d2d2d;fill-opacity:0.01;stroke:none;stroke-width:2;stroke-linecap:butt;stroke-linejoin:round;stroke-dasharray:none;stroke-opacity:0.972549"
         id="rect16-3-3-7-2-4-4-1-0-6-8-7-8"
         width="75.031059"
         height="75.031059"
         x="-1413.6946"
         y="1718.2041"
         ry="0"
         rx="0" /></g><g
       id="g60"><path
         style="-inkscape-font-specification:Arial;stroke-width:34.9106;stroke-linejoin:bevel;stroke-opacity:0.972549"
         d="m 1317.5,1751.3585 h 2.55 q 0.9106,0 1.6999,0.344 0.7893,0.3441 1.3762,0.9512 0.6071,0.5869 0.9511,1.3761 0.3441,0.7893 0.3441,1.7 v 10.1795 h -6.0713 q -0.2428,0.6476 -0.6678,1.1738 -0.4048,0.5464 -0.931,0.9309 -0.5261,0.3845 -1.1737,0.5869 -0.6476,0.2023 -1.3357,0.2023 -1.4166,0 -2.5297,-0.7892 -1.0928,-0.769 -1.5785,-2.1047 h -16.5139 q -0.2428,0.6476 -0.6678,1.1738 -0.4048,0.5464 -0.9309,0.9309 -0.5262,0.3845 -1.1738,0.5869 -0.6476,0.2023 -1.3357,0.2023 -1.4166,0 -2.5297,-0.7892 -1.0928,-0.769 -1.5785,-2.1047 h -7.5284 v -10.1795 q 0,-0.9107 0.344,-1.7 0.3441,-0.7892 0.931,-1.3761 0.6071,-0.6071 1.3964,-0.9512 0.7892,-0.344 1.6999,-0.344 h 5.4642 q 1.0928,-2.2059 2.1654,-4.3713 1.0928,-2.1655 2.2059,-4.3511 h 21.047 q 1.1131,2.1856 2.1857,4.3511 1.0928,2.1654 2.1856,4.3713 z m 2.55,4.3713 h 1.4571 v -0.081 q 0,-0.2631 -0.1215,-0.5059 -0.1214,-0.2631 -0.3238,-0.4452 -0.2023,-0.2024 -0.4654,-0.3036 -0.2429,-0.1214 -0.506,-0.1214 h -10.2199 v -7.2855 h 2.1856 l -0.7285,-1.4571 h -17.4448 l -0.7285,1.4571 h 6.5367 v 7.2855 h -5.8082 v 1.4571 h -1.4571 v -1.4571 h -10.1795 q -0.6071,0 -1.0321,0.425 -0.425,0.425 -0.425,1.0321 h 1.4571 v 2.894 h -1.4571 v 4.3713 h 4.6142 q 0.2226,-0.6476 0.6273,-1.194 0.425,-0.5262 0.9714,-0.9107 0.5465,-0.3846 1.1738,-0.5869 0.6476,-0.2226 1.3357,-0.2226 0.6881,0 1.3154,0.2226 0.6476,0.2023 1.1941,0.5869 0.5464,0.3845 0.9511,0.9107 0.425,0.5464 0.6476,1.194 h 16.4936 q 0.2429,-0.6476 0.6476,-1.194 0.425,-0.5262 0.9512,-0.9107 0.5464,-0.3846 1.1738,-0.5869 0.6476,-0.2226 1.3559,-0.2226 0.6881,0 1.3154,0.2226 0.6476,0.2023 1.194,0.5869 0.5464,0.3845 0.9512,0.9107 0.425,0.5464 0.6476,1.194 h 3.1571 v -4.3713 h -1.4571 z m -18.9019,-8.7426 h 7.2653 v 7.2855 h -7.2653 z m 13.0937,16.0079 q -0.6071,0 -1.0321,0.425 -0.425,0.4249 -0.425,1.0321 0,0.5869 0.425,1.0118 0.4452,0.4453 1.0321,0.4453 0.5869,0 1.0119,-0.4453 0.4452,-0.4249 0.4452,-1.0118 0,-0.6072 -0.425,-1.0321 -0.425,-0.425 -1.0321,-0.425 z m -24.7303,0 q -0.6071,0 -1.0321,0.425 -0.425,0.4249 -0.425,1.0321 0,0.5869 0.425,1.0118 0.4452,0.4453 1.0321,0.4453 0.5869,0 1.0119,-0.4453 0.4452,-0.4249 0.4452,-1.0118 0,-0.6072 -0.425,-1.0321 -0.425,-0.425 -1.0321,-0.425 z"
         id="text28-40-4-8-8-5-3"
         transform="scale(-1,1)"
         aria-label="ðŸš—" /><rect
         style="opacity:0.01;fill:#2d2d2d;fill-opacity:0.01;stroke:none;stroke-width:2;stroke-linecap:butt;stroke-linejoin:round;stroke-dasharray:none;stroke-opacity:0.972549"
         id="rect16-3-3-7-2-4-4-1-0-6-8-7-1"
         width="75.031059"
         height="75.031059"
         x="-1338.6636"
         y="1718.2041"
         ry="0"
         rx="0" /></g><g
       id="g59"><path
         style="-inkscape-font-specification:Arial;stroke-width:34.9106;stroke-linejoin:bevel;stroke-opacity:0.972549"
         d="m 1236.3167,1738.2648 h 13.0734 v 34.9097 h -46.5463 v -7.2652 h 3.157 l 0.1012,-0.081 q -1.5178,-1.2143 -2.388,-2.813 -0.8702,-1.5988 -0.8702,-3.5618 0,-0.85 0.1416,-1.5786 0.1417,-0.7285 0.425,-1.3761 0.2834,-0.6678 0.6881,-1.275 0.425,-0.6273 0.9714,-1.2749 0.8297,-0.9512 1.6797,-1.8619 0.85,-0.9107 1.7809,-1.7607 0.6274,-0.5666 1.275,-1.0726 0.6476,-0.5261 1.2345,-1.113 0.7488,-0.7286 1.4368,-1.4976 0.7084,-0.769 1.5179,-1.4571 3.2582,-2.7321 7.0224,-4.088 3.7642,-1.3761 8.0141,-1.3761 0.8702,-0.506 1.7404,-0.7893 0.8904,-0.3036 1.7809,-0.4452 0.9107,-0.1619 1.8416,-0.1822 0.9512,-0.04 1.9226,-0.04 z m -24.7505,26.1873 h 34.93 v -17.4447 q -5.2213,0 -10.0986,1.2547 -4.857,1.2345 -9.289,3.5213 -4.4118,2.2869 -8.3379,5.5047 -3.9058,3.2177 -7.2045,7.164 z m 34.93,5.8285 v -2.9142 h -24.7506 l 1.4571,-1.4571 h -13.0936 l -2.894,2.9142 h -1.4571 v 1.4571 z m -17.465,-28.3731 q -2.3678,0 -4.6142,0.5869 -2.2261,0.5667 -4.2701,1.619 -2.0238,1.0321 -3.8249,2.5095 -1.7809,1.4773 -3.2785,3.2785 2.3678,0 4.5939,-0.5667 2.2464,-0.5869 4.2701,-1.619 2.044,-1.0524 3.8249,-2.5297 1.8012,-1.4773 3.2988,-3.2785 z m -20.359,16.7365 v 1.4368 h 2.9142 v -1.4368 z"
         id="text28-40-4-8-8-5-2-80"
         transform="scale(-1,1)"
         aria-label="ðŸš„" /><rect
         style="opacity:0.01;fill:#2d2d2d;fill-opacity:0.01;stroke:none;stroke-width:2;stroke-linecap:butt;stroke-linejoin:round;stroke-dasharray:none;stroke-opacity:0.972549"
         id="rect16-3-3-7-2-4-4-1-0-6-8-7-87"
         width="75.031059"
         height="75.031059"
         x="-1263.6326"
         y="1718.2041"
         ry="0"
         rx="0" /></g></g></svg>
