<?xml version="1.0" encoding="UTF-8" standalone="no"?>
<!-- Created with Inkscape (http://www.inkscape.org/) -->

<svg
   width="231.6492mm"
   height="231.6492mm"
   viewBox="0 0 231.6492 231.6492"
   version="1.1"
   id="svg5"
   xml:space="preserve"
   xmlns="http://www.w3.org/2000/svg"
   xmlns:svg="http://www.w3.org/2000/svg"><defs
     id="defs2" /><g
     id="layer1"
     transform="translate(-159.47544,-370.94704)"><path
       style="fill:#ffffff;stroke-width:0.264583"
       d="m 315.35669,581.58752 c -2.16565,-0.52351 -5.52804,-2.20917 -7.24067,-3.62996 -2.88768,-2.39561 -5.05917,-5.79339 -6.03073,-9.4364 -0.61534,-2.30734 -0.60987,-6.69361 0.0112,-8.97153 1.61439,-5.92117 6.10505,-10.73299 11.73736,-12.57679 1.02578,-0.3358 1.41746,-0.60504 1.49668,-1.02877 0.66538,-3.55939 1.08158,-5.03247 1.87318,-6.62984 1.24838,-2.51909 3.01268,-4.68108 5.12484,-6.28003 2.89386,-2.19071 4.62872,-2.87256 9.73986,-3.82801 0.42373,-0.0792 0.69297,-0.4709 1.02877,-1.49668 1.00246,-3.06225 3.01352,-6.00641 5.56058,-8.14065 1.63365,-1.36885 4.79881,-2.99184 7.01621,-3.59767 2.23664,-0.61109 6.64331,-0.61632 8.94176,-0.0106 6.46434,1.70352 11.58946,6.95022 13.11624,13.42737 1.33104,5.64678 -0.35141,11.90474 -4.3524,16.18896 -1.02946,1.10233 -2.40449,2.3402 -3.05562,2.75082 -0.81974,0.51694 -1.13251,0.86864 -1.01686,1.14344 1.06887,2.53979 1.26908,3.6671 1.26873,7.14375 -2.7e-4,3.18005 -0.0772,3.79235 -0.70087,5.58175 -1.95485,5.60885 -5.94509,9.5991 -11.55395,11.55395 -1.78939,0.62365 -2.4017,0.70054 -5.58174,0.70086 -3.47666,2.6e-4 -4.60396,-0.19985 -7.14375,-1.26872 -0.27481,-0.11565 -0.62651,0.19711 -1.14345,1.01685 -2.06854,3.2802 -6.91393,6.57026 -10.92905,7.42092 -2.28281,0.48365 -6.0927,0.46825 -8.16632,-0.033 z m -13.67638,-38.74227 c -0.24497,-0.14291 -1.56855,-2.07405 -2.94128,-4.29144 -1.37274,-2.21738 -4.14512,-6.405 -6.02798,-9.72014 -1.26735,-2.23142 -3.53321,-5.83086 -3.54101,-6.83593 -0.007,-0.9352 0.12837,-1.26548 0.73345,-1.78594 0.80605,-0.69334 1.88489,-0.8165 2.94021,-0.33567 0.45621,0.20787 1.96922,2.42823 4.82286,7.07761 2.28696,3.72609 4.97525,8.06614 5.974,9.64454 0.99874,1.5784 1.88173,3.19901 1.9622,3.60137 0.17104,0.8552 -0.4679,2.25009 -1.21343,2.64909 -0.63829,0.3416 -2.12073,0.33969 -2.70902,-0.003 z m 4.99255,-18.70794 c -4.47937,-4.47476 -8.25586,-8.31453 -8.3922,-8.53281 -1.20885,-1.9354 1.516,-4.65936 3.44818,-3.44705 0.21828,0.13696 4.05804,3.90832 8.53281,8.38081 l 8.13594,8.1318 v 1.15216 c 0,1.58845 -0.85857,2.45103 -2.43964,2.45103 h -1.14078 z m -28.4582,-4.27843 c -1.18899,-0.41056 -1.93108,-0.99912 -4.53736,-3.59861 l -3.11589,-3.10778 -1.54806,0.93904 c -3.74683,2.27278 -8.36432,3.90052 -12.71554,3.3632 -7.60186,-0.93873 -14.65606,-3.49441 -20.11819,-11.10333 -13.88606,-19.34373 -31.34188,-36.91448 -50.33828,-50.6697 -6.91554,-5.00752 -9.68947,-8.51498 -11.5555,-14.61123 -0.63763,-2.08307 -0.71427,-2.758 -0.73002,-6.42847 -0.0149,-3.48538 0.0736,-4.43866 0.59018,-6.35 0.72395,-2.67882 2.33441,-6.05112 3.96133,-8.29501 1.60355,-2.21165 25.09726,-25.76127 27.58346,-27.64909 2.49511,-1.89459 5.81072,-3.53851 8.72555,-4.32625 1.91134,-0.51654 2.86462,-0.60514 6.35,-0.59018 3.67047,0.0157 4.3454,0.0924 6.42847,0.73001 6.12042,1.87344 9.59,4.61774 14.60947,11.55551 13.43294,18.56661 30.74912,35.88238 49.34123,49.34003 5.655,4.0933 7.97635,6.55824 10.04409,10.66541 3.57503,7.10112 3.19255,16.31038 -0.96141,23.14855 l -0.94437,1.55458 3.18143,3.2202 c 2.89187,2.9271 3.22246,3.36171 3.63224,4.77493 0.5106,1.76094 0.39475,3.13887 -0.40315,4.79527 -0.32923,0.68346 -4.28481,4.82189 -11.16734,11.68358 -10.17515,10.14432 -10.72258,10.64431 -12.09462,11.04635 -1.82028,0.5334 -2.45921,0.52021 -4.21772,-0.087 z m 12.86343,-14.90257 c 6.59655,-6.59488 10.12158,-10.30398 10.12158,-10.65011 0,-0.45409 -3.12425,-3.93604 -4.91832,-5.48145 -0.51211,-0.44113 -0.8225,-0.15785 -11.19744,10.21947 l -10.67073,10.67316 2.7148,2.67898 c 1.70963,1.68706 2.92099,2.67897 3.27166,2.67897 0.37995,0 3.7724,-3.21472 10.67845,-10.11902 z m -39.19738,-29.98319 c 3.73003,-0.97155 7.07614,-3.83375 8.50819,-7.27772 2.81238,-6.76356 0.77641,-15.92528 -5.35428,-24.09397 -2.18075,-2.90568 -6.36217,-6.90315 -9.18656,-8.78244 -2.87571,-1.91343 -7.17127,-3.9548 -9.86818,-4.68964 -2.91324,-0.79378 -7.80524,-0.98509 -10.29149,-0.40247 -10.10309,2.36754 -13.2376,13.70993 -7.15639,25.89578 1.78877,3.58445 3.66465,6.11177 7.12913,9.60493 8.02447,8.09086 18.13888,11.85028 26.21958,9.74553 z m 72.1815,43.33125 c -3.89928,-2.36421 -15.13633,-9.30519 -17.22132,-10.63738 -1.03807,-0.66328 -1.46285,-2.34811 -0.87088,-3.45423 0.39726,-0.74228 1.79409,-1.38444 2.64241,-1.21477 0.88548,0.17709 19.52152,11.61899 20.17006,12.38374 0.51313,0.60506 0.61171,2.09639 0.1906,2.88326 -0.31515,0.58886 -1.58982,1.30826 -2.31804,1.30826 -0.27504,0 -1.44181,-0.571 -2.59283,-1.26888 z"
       id="path458" /><path
       style="fill:#8d5fd3;stroke-width:0.264583"
       d="m 315.35669,581.58752 c -2.16565,-0.52351 -5.52804,-2.20917 -7.24067,-3.62996 -2.88768,-2.39561 -5.05917,-5.79339 -6.03073,-9.4364 -0.61534,-2.30734 -0.60987,-6.69361 0.0112,-8.97153 1.61439,-5.92117 6.10505,-10.73299 11.73736,-12.57679 1.02578,-0.3358 1.41746,-0.60504 1.49668,-1.02877 0.66538,-3.55939 1.08158,-5.03247 1.87318,-6.62984 1.24838,-2.51909 3.01268,-4.68108 5.12484,-6.28003 2.89386,-2.19071 4.62872,-2.87256 9.73986,-3.82801 0.42373,-0.0792 0.69297,-0.4709 1.02877,-1.49668 1.00246,-3.06225 3.01352,-6.00641 5.56058,-8.14065 1.63365,-1.36885 4.79881,-2.99184 7.01621,-3.59767 2.23664,-0.61109 6.64331,-0.61632 8.94176,-0.0106 6.46434,1.70352 11.58946,6.95022 13.11624,13.42737 1.33104,5.64678 -0.35141,11.90474 -4.3524,16.18896 -1.02946,1.10233 -2.40449,2.3402 -3.05562,2.75082 -0.81974,0.51694 -1.13251,0.86864 -1.01686,1.14344 1.06887,2.53979 1.26908,3.6671 1.26873,7.14375 -2.7e-4,3.18005 -0.0772,3.79235 -0.70087,5.58175 -1.95485,5.60885 -5.94509,9.5991 -11.55395,11.55395 -1.78939,0.62365 -2.4017,0.70054 -5.58174,0.70086 -3.47666,2.6e-4 -4.60396,-0.19985 -7.14375,-1.26872 -0.27481,-0.11565 -0.62651,0.19711 -1.14345,1.01685 -2.06854,3.2802 -6.91393,6.57026 -10.92905,7.42092 -2.28281,0.48365 -6.0927,0.46825 -8.16632,-0.033 z m 8.27071,-5.43689 c 3.39587,-1.08908 5.86326,-3.33851 7.70481,-7.02419 0.4517,-0.90403 1.05212,-1.76723 1.33426,-1.91823 0.91297,-0.4886 2.12486,-0.29388 3.93491,0.63225 2.38342,1.2195 3.75613,1.55687 6.27017,1.54103 6.44684,-0.0406 11.64162,-4.64935 12.56297,-11.14568 0.35726,-2.51906 -0.0396,-4.72449 -1.32246,-7.34972 -1.05876,-2.16657 -1.28325,-3.40271 -0.78651,-4.33088 0.14716,-0.27496 1.2348,-1.00314 2.41699,-1.61819 6.5381,-3.40149 9.00602,-10.61373 5.8675,-17.14716 -3.03347,-6.31475 -10.7362,-8.94071 -17.13688,-5.8422 -3.73376,1.80749 -6.38244,5.56791 -7.15337,10.15589 -0.0998,0.59377 -0.4572,1.28566 -0.85426,1.65365 -0.59146,0.54815 -0.95161,0.63475 -2.6946,0.64797 -7.74068,0.0587 -13.25668,5.65631 -13.25668,13.45288 0,1.5368 -0.0935,1.90138 -0.6389,2.48982 -0.3514,0.37917 -0.97648,0.75564 -1.38907,0.8366 -3.80747,0.74716 -5.95935,1.77419 -7.9927,3.81468 -4.54375,4.5597 -4.98216,11.78638 -1.02612,16.9144 3.28093,4.25291 8.88335,5.92932 14.15994,4.23708 z m -21.94709,-33.30538 c -0.24497,-0.14291 -1.56855,-2.07405 -2.94128,-4.29144 -1.37274,-2.21738 -4.08533,-6.59145 -6.02798,-9.72014 -3.09401,-4.98298 -3.53321,-5.83086 -3.54101,-6.83593 -0.007,-0.9352 0.12837,-1.26548 0.73345,-1.78594 0.80605,-0.69334 1.88489,-0.8165 2.94021,-0.33567 0.45621,0.20787 1.96922,2.42823 4.82286,7.07761 2.28696,3.72609 4.97525,8.06614 5.974,9.64454 0.99874,1.5784 1.88173,3.19901 1.9622,3.60137 0.17104,0.8552 -0.4679,2.25009 -1.21343,2.64909 -0.63829,0.3416 -2.12073,0.33969 -2.70902,-0.003 z m 4.99255,-18.70794 c -4.47937,-4.47476 -8.25586,-8.31453 -8.3922,-8.53281 -1.20885,-1.9354 1.516,-4.65936 3.44818,-3.44705 0.21828,0.13696 4.05804,3.90832 8.53281,8.38081 l 8.13594,8.1318 v 1.15216 c 0,1.58845 -0.85857,2.45103 -2.43964,2.45103 h -1.14078 z m -28.4582,-4.27843 c -1.18899,-0.41056 -1.93108,-0.99912 -4.53736,-3.59861 l -3.11589,-3.10778 -1.54806,0.93904 c -3.74683,2.27278 -7.88033,3.36607 -12.71554,3.3632 -8.33349,-0.005 -14.65606,-3.49441 -20.11819,-11.10333 -13.88606,-19.34373 -31.34188,-36.91448 -50.33828,-50.6697 -6.91554,-5.00752 -9.68947,-8.51498 -11.5555,-14.61123 -0.63763,-2.08307 -0.71427,-2.758 -0.73002,-6.42847 -0.0149,-3.48538 0.0736,-4.43866 0.59018,-6.35 0.72395,-2.67882 2.33441,-6.05112 3.96133,-8.29501 1.60355,-2.21165 25.09726,-25.76127 27.58346,-27.64909 2.49511,-1.89459 5.81072,-3.53851 8.72555,-4.32625 1.91134,-0.51654 2.86462,-0.60514 6.35,-0.59018 3.67047,0.0157 4.3454,0.0924 6.42847,0.73001 6.12042,1.87344 9.59,4.61774 14.60947,11.55551 13.43294,18.56661 30.74912,35.88238 49.34123,49.34003 5.655,4.0933 7.97635,6.55824 10.04409,10.66541 3.57503,7.10112 3.19255,16.31038 -0.96141,23.14855 l -0.94437,1.55458 3.18143,3.2202 c 2.89187,2.9271 3.22246,3.36171 3.63224,4.77493 0.5106,1.76094 0.39475,3.13887 -0.40315,4.79527 -0.32923,0.68346 -4.28481,4.82189 -11.16734,11.68358 -10.17515,10.14432 -10.72258,10.64431 -12.09462,11.04635 -1.82028,0.5334 -2.45921,0.52021 -4.21772,-0.087 z m -18.0804,-7.84749 c 2.57367,-0.52764 5.03473,-1.55192 7.10206,-2.95581 2.06107,-1.39965 26.7027,-26.02679 28.0045,-27.98804 2.23985,-3.37446 3.14791,-6.463 3.14791,-10.70679 0,-3.50139 -0.44475,-5.49392 -1.85358,-8.30435 -1.7524,-3.49578 -3.13839,-4.93696 -8.43235,-8.76803 -13.06753,-9.45658 -26.26004,-21.44704 -36.67307,-33.33158 -5.53357,-6.31553 -7.69817,-8.98118 -12.24584,-15.08042 -4.99493,-6.69909 -5.42152,-7.20685 -7.16069,-8.52301 -3.42766,-2.59396 -7.15398,-3.85591 -11.38915,-3.85702 -4.19012,-10e-4 -7.37074,0.97715 -10.93994,3.3647 -1.17047,0.78296 -6.02474,5.45931 -14.49104,13.95989 -10.55592,10.59866 -12.92146,13.10772 -13.84585,14.68597 -4.11839,7.03144 -3.68653,14.98644 1.16387,21.43889 1.37805,1.83322 1.55137,1.98065 7.289,6.20047 19.22002,14.13563 36.1502,31.18178 49.91766,50.25958 1.24094,1.71959 2.86986,3.7586 3.61982,4.53113 4.25435,4.38241 10.68315,6.32576 16.78669,5.07442 z m -17.27521,-31.60044 c -7.64452,-1.37702 -14.84632,-5.34904 -21.04016,-11.60431 -5.80793,-5.86553 -9.73137,-12.91482 -11.13672,-20.00943 -0.20739,-1.047 -0.36279,-3.40475 -0.35749,-5.42396 0.0161,-6.11281 1.48304,-9.85295 5.4015,-13.77141 3.91846,-3.91847 7.6586,-5.38545 13.77141,-5.40151 3.94989,-0.0104 6.06566,0.32087 9.65729,1.51195 5.75176,1.90744 11.16823,5.36972 16.01148,10.23475 3.58235,3.59846 6.04732,6.97339 8.03278,10.9981 2.42943,4.92469 3.29456,8.11677 3.51369,12.96458 0.17058,3.7738 -0.1837,6.42171 -1.23206,9.20847 -0.81787,2.17409 -2.92405,5.20454 -4.792,6.89495 -1.77198,1.60354 -5.08424,3.38189 -7.51097,4.03263 -1.85621,0.49775 -8.31407,0.7263 -10.31875,0.36519 z m 81.20316,37.89342 c -3.89928,-2.36421 -15.13633,-9.30519 -17.22132,-10.63738 -1.03807,-0.66328 -1.46285,-2.34811 -0.87088,-3.45423 0.39726,-0.74228 1.79409,-1.38444 2.64241,-1.21477 0.88548,0.17709 19.52152,11.61899 20.17006,12.38374 0.51313,0.60506 0.61171,2.09639 0.1906,2.88326 -0.31515,0.58886 -1.58982,1.30826 -2.31804,1.30826 -0.27504,0 -1.44181,-0.571 -2.59283,-1.26888 z"
       id="path603" /><path
       style="fill:#000000;stroke:#000000;stroke-width:0.365;stroke-dasharray:none;stroke-opacity:1"
       d="m 315.35669,581.58752 c -2.16565,-0.52351 -5.52804,-2.20917 -7.24067,-3.62996 -2.88768,-2.39561 -5.05917,-5.79339 -6.03073,-9.4364 -0.61534,-2.30734 -0.60987,-6.69361 0.0112,-8.97153 1.61439,-5.92117 6.10505,-10.73299 11.73736,-12.57679 1.02578,-0.3358 1.41746,-0.60504 1.49668,-1.02877 0.66538,-3.55939 1.08158,-5.03247 1.87318,-6.62984 1.24838,-2.51909 3.01268,-4.68108 5.12484,-6.28003 2.89386,-2.19071 4.62872,-2.87256 9.73986,-3.82801 0.42373,-0.0792 0.69297,-0.4709 1.02877,-1.49668 1.00246,-3.06225 3.01352,-6.00641 5.56058,-8.14065 1.63365,-1.36885 4.79881,-2.99184 7.01621,-3.59767 2.23664,-0.61109 6.64331,-0.61632 8.94176,-0.0106 6.46434,1.70352 11.58946,6.95022 13.11624,13.42737 1.33104,5.64678 -0.35141,11.90474 -4.3524,16.18896 -1.02946,1.10233 -2.40449,2.3402 -3.05562,2.75082 -0.81974,0.51694 -1.13251,0.86864 -1.01686,1.14344 1.06887,2.53979 1.26908,3.6671 1.26873,7.14375 -2.7e-4,3.18005 -0.0772,3.79235 -0.70087,5.58175 -1.95485,5.60885 -5.94509,9.5991 -11.55395,11.55395 -1.78939,0.62365 -2.4017,0.70054 -5.58174,0.70086 -3.47666,2.6e-4 -4.60396,-0.19985 -7.14375,-1.26872 -0.27481,-0.11565 -0.62651,0.19711 -1.14345,1.01685 -2.06854,3.2802 -6.91393,6.57026 -10.92905,7.42092 -2.28281,0.48365 -6.0927,0.46825 -8.16632,-0.033 z m 8.27071,-5.43689 c 3.39587,-1.08908 5.86326,-3.33851 7.70481,-7.02419 0.4517,-0.90403 1.05212,-1.76723 1.33426,-1.91823 0.91297,-0.4886 2.12486,-0.29388 3.93491,0.63225 2.38342,1.2195 3.75613,1.55687 6.27017,1.54103 6.44684,-0.0406 11.64162,-4.64935 12.56297,-11.14568 0.35726,-2.51906 -0.0396,-4.72449 -1.32246,-7.34972 -1.05876,-2.16657 -1.28325,-3.40271 -0.78651,-4.33088 0.14716,-0.27496 1.2348,-1.00314 2.41699,-1.61819 6.5381,-3.40149 9.00602,-10.61373 5.8675,-17.14716 -3.03347,-6.31475 -10.7362,-8.94071 -17.13688,-5.8422 -3.73376,1.80749 -6.38244,5.56791 -7.15337,10.15589 -0.0998,0.59377 -0.4572,1.28566 -0.85426,1.65365 -0.59146,0.54815 -0.95161,0.63475 -2.6946,0.64797 -7.74068,0.0587 -13.25668,5.65631 -13.25668,13.45288 0,1.5368 -0.0935,1.90138 -0.6389,2.48982 -0.3514,0.37917 -0.97648,0.75564 -1.38907,0.8366 -3.80747,0.74716 -5.95935,1.77419 -7.9927,3.81468 -4.54375,4.5597 -4.98216,11.78638 -1.02612,16.9144 3.28093,4.25291 8.88335,5.92932 14.15994,4.23708 z m -21.94709,-33.30538 c -0.24497,-0.14291 -1.56855,-2.07405 -2.94128,-4.29144 -1.37274,-2.21738 -4.08533,-6.59145 -6.02798,-9.72014 -3.09401,-4.98298 -3.53321,-5.83086 -3.54101,-6.83593 -0.007,-0.9352 0.12837,-1.26548 0.73345,-1.78594 0.80605,-0.69334 1.88489,-0.8165 2.94021,-0.33567 0.45621,0.20787 1.96922,2.42823 4.82286,7.07761 2.28696,3.72609 4.97525,8.06614 5.974,9.64454 0.99874,1.5784 1.88173,3.19901 1.9622,3.60137 0.17104,0.8552 -0.4679,2.25009 -1.21343,2.64909 -0.63829,0.3416 -2.12073,0.33969 -2.70902,-0.003 z m 4.99255,-18.70794 c -4.47937,-4.47476 -8.25586,-8.31453 -8.3922,-8.53281 -1.20885,-1.9354 1.516,-4.65936 3.44818,-3.44705 0.21828,0.13696 4.05804,3.90832 8.53281,8.38081 l 8.13594,8.1318 v 1.15216 c 0,1.58845 -0.85857,2.45103 -2.43964,2.45103 h -1.14078 z m -28.4582,-4.27843 c -1.18899,-0.41056 -1.93108,-0.99912 -4.53736,-3.59861 l -3.11589,-3.10778 -1.54806,0.93904 c -3.74683,2.27278 -7.88033,3.36607 -12.71554,3.3632 -8.33349,-0.005 -14.65606,-3.49441 -20.11819,-11.10333 -13.88606,-19.34373 -31.34188,-36.91448 -50.33828,-50.6697 -6.91554,-5.00752 -9.68947,-8.51498 -11.5555,-14.61123 -0.63763,-2.08307 -0.71427,-2.758 -0.73002,-6.42847 -0.0149,-3.48538 0.0736,-4.43866 0.59018,-6.35 0.72395,-2.67882 2.33441,-6.05112 3.96133,-8.29501 1.60355,-2.21165 25.09726,-25.76127 27.58346,-27.64909 2.49511,-1.89459 5.81072,-3.53851 8.72555,-4.32625 1.91134,-0.51654 2.86462,-0.60514 6.35,-0.59018 3.67047,0.0157 4.3454,0.0924 6.42847,0.73001 6.12042,1.87344 9.59,4.61774 14.60947,11.55551 13.43294,18.56661 30.74912,35.88238 49.34123,49.34003 5.655,4.0933 7.97635,6.55824 10.04409,10.66541 3.57503,7.10112 3.19255,16.31038 -0.96141,23.14855 l -0.94437,1.55458 3.18143,3.2202 c 2.89187,2.9271 3.22246,3.36171 3.63224,4.77493 0.5106,1.76094 0.39475,3.13887 -0.40315,4.79527 -0.32923,0.68346 -4.28481,4.82189 -11.16734,11.68358 -10.17515,10.14432 -10.72258,10.64431 -12.09462,11.04635 -1.82028,0.5334 -2.45921,0.52021 -4.21772,-0.087 z m 12.86343,-14.90257 c 6.59655,-6.59488 10.12158,-10.30398 10.12158,-10.65011 0,-0.45409 -3.12425,-3.93604 -4.91832,-5.48145 -0.51211,-0.44113 -0.8225,-0.15785 -11.19744,10.21947 l -10.67073,10.67316 2.7148,2.67898 c 1.70963,1.68706 2.92099,2.67897 3.27166,2.67897 0.37995,0 3.7724,-3.21472 10.67845,-10.11902 z m -30.94383,7.05508 c 2.57367,-0.52764 5.03473,-1.55192 7.10206,-2.95581 2.06107,-1.39965 26.7027,-26.02679 28.0045,-27.98804 2.23985,-3.37446 3.14791,-6.463 3.14791,-10.70679 0,-3.50139 -0.44475,-5.49392 -1.85358,-8.30435 -1.7524,-3.49578 -3.13839,-4.93696 -8.43235,-8.76803 -13.06753,-9.45658 -26.26004,-21.44704 -36.67307,-33.33158 -5.53357,-6.31553 -7.69817,-8.98118 -12.24584,-15.08042 -4.99493,-6.69909 -5.42152,-7.20685 -7.16069,-8.52301 -3.42766,-2.59396 -7.15398,-3.85591 -11.38915,-3.85702 -4.19012,-10e-4 -7.37074,0.97715 -10.93994,3.3647 -1.17047,0.78296 -6.02474,5.45931 -14.49104,13.95989 -10.55592,10.59866 -12.92146,13.10772 -13.84585,14.68597 -4.11839,7.03144 -3.68653,14.98644 1.16387,21.43889 1.37805,1.83322 1.55137,1.98065 7.289,6.20047 19.22002,14.13563 36.1502,31.18178 49.91766,50.25958 1.24094,1.71959 2.86986,3.7586 3.61982,4.53113 4.25435,4.38241 10.68315,6.32576 16.78669,5.07442 z m -17.27521,-31.60044 c -7.64452,-1.37702 -14.84632,-5.34904 -21.04016,-11.60431 -5.80793,-5.86553 -9.73137,-12.91482 -11.13672,-20.00943 -0.20739,-1.047 -0.36279,-3.40475 -0.35749,-5.42396 0.0161,-6.11281 1.48304,-9.85295 5.4015,-13.77141 3.91846,-3.91847 7.6586,-5.38545 13.77141,-5.40151 3.94989,-0.0104 6.06566,0.32087 9.65729,1.51195 5.75176,1.90744 11.16823,5.36972 16.01148,10.23475 3.58235,3.59846 6.04732,6.97339 8.03278,10.9981 2.42943,4.92469 3.29456,8.11677 3.51369,12.96458 0.17058,3.7738 -0.1837,6.42171 -1.23206,9.20847 -0.81787,2.17409 -2.92405,5.20454 -4.792,6.89495 -1.77198,1.60354 -5.08424,3.38189 -7.51097,4.03263 -1.85621,0.49775 -8.31407,0.7263 -10.31875,0.36519 z m 9.02166,-5.43783 c 3.73003,-0.97155 7.07614,-3.83375 8.50819,-7.27772 2.81238,-6.76356 0.77641,-15.92528 -5.35428,-24.09397 -2.18075,-2.90568 -6.36217,-6.90315 -9.18656,-8.78244 -2.87571,-1.91343 -7.17127,-3.9548 -9.86818,-4.68964 -2.91324,-0.79378 -7.80524,-0.98509 -10.29149,-0.40247 -10.10309,2.36754 -13.2376,13.70993 -7.15639,25.89578 1.78877,3.58445 3.66465,6.11177 7.12913,9.60493 8.02447,8.09086 18.13888,11.85028 26.21958,9.74553 z m 72.1815,43.33125 c -3.89928,-2.36421 -15.13633,-9.30519 -17.22132,-10.63738 -1.03807,-0.66328 -1.46285,-2.34811 -0.87088,-3.45423 0.39726,-0.74228 1.79409,-1.38444 2.64241,-1.21477 0.88548,0.17709 19.52152,11.61899 20.17006,12.38374 0.51313,0.60506 0.61171,2.09639 0.1906,2.88326 -0.31515,0.58886 -1.58982,1.30826 -2.31804,1.30826 -0.27504,0 -1.44181,-0.571 -2.59283,-1.26888 z"
       id="path302" /><rect
       style="opacity:0.01;fill:#8d5fd3;fill-opacity:0.00623702;stroke:#010100;stroke-width:0.237319;stroke-linecap:round;stroke-opacity:1;paint-order:stroke fill markers;stop-color:#000000"
       id="rect677"
       width="231.41187"
       height="231.41187"
       x="155.77014"
       y="371.54367" /></g></svg>
